<?xml version="1.0" encoding="UTF-8"?>
<svg id="Layer_1" data-name="Layer 1" xmlns="http://www.w3.org/2000/svg" viewBox="0 0 200 200">
  <defs>
    <style>
      .cls-1 {
        fill: #373e50;
      }
    </style>
  </defs>
  <g>
    <g>
      <g>
        <path class="cls-1" d="M40.28,84.38c.6,0,.91-.31.91-.93,0-.28-.08-.5-.24-.66-.16-.16-.38-.24-.66-.24s-.5.08-.67.25c-.17.17-.25.39-.25.66,0,.29.08.52.25.68.17.17.39.25.67.25Z"/>
        <path class="cls-1" d="M52.29,94.16c0-.28-.08-.5-.24-.66-.16-.16-.38-.24-.66-.24-.61,0-.92.3-.92.91,0,.29.08.52.25.68.17.17.39.25.67.25.6,0,.91-.31.91-.93Z"/>
        <path class="cls-1" d="M50.14,94.16c0-.28-.08-.5-.24-.66-.16-.16-.38-.24-.66-.24-.61,0-.92.3-.92.91,0,.29.08.52.25.68.17.17.39.25.67.25.6,0,.91-.31.91-.93Z"/>
        <path class="cls-1" d="M57.69,84.57c.6,0,.91-.31.91-.93,0-.28-.08-.5-.24-.66-.16-.16-.38-.24-.66-.24s-.5.08-.67.25c-.17.17-.25.39-.25.66,0,.29.08.52.25.68.17.17.39.25.67.25Z"/>
        <path class="cls-1" d="M65.46,93.5c-.16-.16-.38-.24-.66-.24-.61,0-.92.3-.92.91,0,.29.08.52.25.68.17.17.39.25.67.25.6,0,.91-.31.91-.93,0-.28-.08-.5-.24-.66Z"/>
        <path class="cls-1" d="M63.55,94.16c0-.28-.08-.5-.24-.66-.16-.16-.38-.24-.66-.24-.61,0-.92.3-.92.91,0,.29.08.52.25.68.17.17.39.25.67.25.6,0,.91-.31.91-.93Z"/>
        <path class="cls-1" d="M70.49,89.09v-6.1l-1.74.93v5.15c0,.45-.09.76-.27.95-.18.19-.49.28-.91.28h-1.3c-.35,0-.6-.08-.75-.23-.15-.15-.22-.41-.22-.77v-3.5l-1.76.92v2.58c0,.36-.07.62-.22.77-.15.15-.4.23-.75.23h-2.62c.35-.57.53-1.14.53-1.73,0-.81-.21-1.48-.63-2.02-.5-.66-1.21-.99-2.12-.99-.8,0-1.45.26-1.94.77-.55.57-.82,1.32-.82,2.25,0,.59.18,1.16.53,1.73h-2.62c-.35,0-.6-.08-.75-.23-.15-.15-.22-.41-.22-.77v-3.5l-1.76.92v2.58c0,.36-.07.62-.22.77-.15.15-.4.23-.75.23h-1.67c-.35,0-.6-.08-.75-.23-.15-.15-.22-.41-.22-.77v-3.5h-.01s0-2.8,0-2.8l-1.74.93v5.15c0,.45-.09.76-.27.95-.18.19-.49.28-.91.28h-1.3c-.35,0-.6-.08-.75-.23-.15-.15-.22-.41-.22-.77v-3.5h-.01s0,0,0,0l-.6.32-1.14.6v4.52c0,.59-.14,1.04-.43,1.37-.28.33-.68.5-1.19.5-.46,0-.94-.13-1.42-.4v1.53c.56.3,1.13.45,1.72.45.75,0,1.4-.23,1.94-.7.6-.52.95-1.23,1.07-2.12.27.08.56.13.88.13h1.56c.74,0,1.37-.2,1.88-.61.46.41,1.05.61,1.77.61h2.01c.68,0,1.24-.18,1.69-.54.45.36,1.01.54,1.69.54h3.91c.46,0,.83-.03,1.12-.1.27.07.64.1,1.12.1h3.89c.68,0,1.24-.18,1.69-.54.45.36,1.01.54,1.69.54h1.56c.84,0,1.51-.25,2.01-.74.55-.54.82-1.26.82-2.16ZM58.47,89.46c-.2.31-.46.54-.77.69-.31-.14-.56-.36-.75-.68-.2-.31-.29-.65-.29-1.01,0-.85.35-1.27,1.06-1.27.33,0,.58.11.77.34.19.23.29.54.29.94,0,.34-.1.67-.3.98Z"/>
        <path class="cls-1" d="M79.07,93.42c0,.53.26.8.78.8s.78-.27.78-.8-.26-.78-.78-.78-.78.26-.78.78Z"/>
        <path class="cls-1" d="M89.14,94.16c0-.28-.08-.5-.24-.66-.16-.16-.38-.24-.66-.24-.61,0-.92.3-.92.91,0,.29.08.52.25.68.17.17.39.25.67.25.6,0,.91-.31.91-.93Z"/>
        <path class="cls-1" d="M86.99,94.16c0-.28-.08-.5-.24-.66s-.38-.24-.66-.24c-.61,0-.92.3-.92.91,0,.29.08.52.25.68.17.17.39.25.67.25.6,0,.91-.31.91-.93Z"/>
        <path class="cls-1" d="M91.44,84.57c.6,0,.91-.31.91-.93,0-.28-.08-.5-.24-.66-.16-.16-.38-.24-.66-.24s-.5.08-.67.25c-.17.17-.25.39-.25.66,0,.29.08.52.25.68.17.17.39.25.67.25Z"/>
        <path class="cls-1" d="M93.57,84.57c.6,0,.91-.31.91-.93,0-.28-.08-.5-.24-.66-.16-.16-.38-.24-.66-.24s-.49.08-.66.25c-.17.17-.26.39-.26.66s.08.5.25.68c.17.17.39.26.67.26Z"/>
        <path class="cls-1" d="M93.23,91.44c.45.36,1.01.54,1.69.54h2.25c.69,0,1.25-.2,1.69-.61.44.41,1,.61,1.69.61h1.38c.66,0,1.19-.21,1.59-.61.44.41,1,.61,1.69.61h1.38c.72-.02,1.29-.24,1.73-.66.5-.47.75-1.13.75-1.95v-3.59l-1.76.92v2.58c0,.36-.07.62-.22.77-.15.15-.4.23-.75.23h-.95c-.35,0-.61-.08-.76-.23-.15-.15-.23-.41-.23-.77v-3.14l-1.76.93v2.2c0,.36-.07.62-.22.77-.15.15-.4.23-.75.23h-.95c-.35,0-.6-.08-.75-.23-.15-.15-.22-.41-.22-.77v-2.76l-1.76.92v1.84c0,.36-.08.62-.23.77-.15.15-.41.23-.76.23h-1.9c-.35,0-.6-.08-.75-.23-.15-.15-.22-.41-.22-.77v-3.5l-1.76.92v2.58c0,.36-.07.62-.22.77-.15.15-.4.23-.75.23h-1.67c-.35,0-.6-.08-.75-.23-.15-.15-.22-.41-.22-.77v-3.5l-1.76.92v2.58c0,.36-.07.62-.22.77-.15.15-.4.23-.75.23h-1.33c-.8,0-1.38-.11-1.74-.32.2-.17.38-.39.56-.67v-.7c-.53-.98-1.14-1.73-1.83-2.26-.69-.53-1.4-.8-2.13-.8-.99,0-1.86.43-2.64,1.28v1.55c.86-.81,1.68-1.21,2.44-1.21.9,0,1.67.56,2.32,1.69-.33.26-.91.49-1.72.68-.89.21-1.51.4-1.86.54-.35.15-.67.37-.97.66-.68.66-1.02,1.57-1.02,2.73s.32,2,.96,2.68c.67.71,1.56,1.06,2.68,1.06,1.02,0,1.94-.26,2.75-.78v-1.66c-.8.5-1.66.75-2.57.75-1.42,0-2.13-.68-2.13-2.04,0-.68.2-1.2.6-1.58.33-.29.93-.53,1.8-.74.68-.16,1.15-.28,1.41-.38.39.44.82.74,1.28.92.46.18,1.06.27,1.81.27h1.51c.68,0,1.24-.18,1.69-.54.45.36,1.01.54,1.69.54h2.01c.68,0,1.24-.18,1.69-.54Z"/>
        <path class="cls-1" d="M118.45,93.26c-.28,0-.5.08-.67.25-.17.17-.25.39-.25.66,0,.29.08.52.25.68.17.17.39.25.67.25.6,0,.91-.31.91-.93,0-.28-.08-.5-.24-.66-.16-.16-.38-.24-.66-.24Z"/>
        <path class="cls-1" d="M117.72,86.71v2.58c0,.36-.07.62-.22.77-.15.15-.4.23-.75.23h-1.67c-.35,0-.6-.08-.75-.23-.15-.15-.22-.41-.22-.77v-3.5h-.01s0,0,0,0l-.6.32-1.14.6v4.52c0,.59-.14,1.04-.43,1.37-.28.33-.68.5-1.19.5-.46,0-.94-.13-1.42-.4v1.53c.56.3,1.13.45,1.72.45.75,0,1.4-.23,1.94-.7.6-.52.95-1.23,1.07-2.12.27.08.56.13.88.13h2.01c.73,0,1.33-.21,1.79-.63.52-.47.78-1.13.78-1.98v-3.59l-1.76.92Z"/>
      </g>
      <rect class="cls-1" x="110.69" y="105.78" width=".61" height="16.94" transform="translate(225.25 3.25) rotate(90)"/>
      <rect class="cls-1" x="44.81" y="105.78" width=".61" height="16.94" transform="translate(159.37 69.14) rotate(90)"/>
      <g>
        <path class="cls-1" d="M38.93,96.93c-.29,0-.71.02-1.27.06-.56.04-.89.08-1.01.1v8.11h1.68v-3.03c.11.07.42.1.94.1.65,0,1.21-.17,1.69-.5.72-.49,1.08-1.26,1.08-2.31,0-1.69-1.04-2.54-3.11-2.54ZM39.97,100.58c-.2.24-.47.37-.81.37s-.61-.04-.83-.13v-2.45c.09-.06.36-.09.8-.09.76,0,1.14.43,1.14,1.3,0,.43-.1.76-.3,1.01Z"/>
        <path class="cls-1" d="M46.19,99.23c-.26,0-.51.07-.75.2-.24.13-.41.29-.49.47l-.15-.51h-1.37v5.83h1.59v-4.18c.14-.3.35-.45.64-.45.32,0,.62.16.9.49l1.36-.74c-.38-.73-.95-1.09-1.72-1.09Z"/>
        <path class="cls-1" d="M51.01,99.23c-.83,0-1.51.27-2.05.82-.6.6-.9,1.36-.9,2.27s.27,1.66.8,2.19c.56.56,1.33.85,2.32.85.92,0,1.69-.27,2.31-.82l-.41-.86c-.61.34-1.19.51-1.75.51-.39,0-.73-.13-1.02-.39-.29-.26-.45-.59-.48-.98h4v-.59c0-.85-.22-1.54-.67-2.07-.51-.62-1.23-.94-2.16-.94ZM49.74,101.63c.09-.84.51-1.26,1.26-1.26s1.18.42,1.22,1.26h-2.48Z"/>
        <path class="cls-1" d="M58.79,102.18c-.25-.21-.72-.41-1.41-.58-.56-.14-.83-.37-.83-.69,0-.35.21-.53.62-.53.54,0,1.02.14,1.44.41l.59-.86c-.6-.47-1.3-.71-2.12-.71-.6,0-1.1.16-1.49.49-.4.33-.6.73-.6,1.22,0,1.02.65,1.65,1.95,1.9.61.11.91.35.91.71,0,.2-.08.36-.23.47-.15.12-.36.18-.6.18-.62,0-1.16-.18-1.6-.53l-.59.9c.64.53,1.43.8,2.36.8.66,0,1.18-.16,1.57-.49.39-.32.58-.76.58-1.31,0-.62-.18-1.08-.54-1.39Z"/>
        <path class="cls-1" d="M63.09,104.21c-.28,0-.42-.21-.42-.64v-2.89h1.67v-1.3h-1.66v-1.9c-.66.34-1.2.63-1.63.86v1.04h-.82v1.3h.81v3.04c0,1.13.51,1.69,1.54,1.69.74,0,1.41-.24,2.01-.72l-.54-.82c-.38.22-.71.33-.96.33Z"/>
        <path class="cls-1" d="M66.5,96.88c-.27,0-.49.1-.69.3-.19.2-.29.44-.29.71,0,.29.09.53.28.72.18.19.42.29.7.29.3,0,.55-.09.74-.28.19-.19.29-.43.29-.73,0-.28-.1-.52-.3-.72-.2-.2-.44-.3-.72-.3Z"/>
        <rect class="cls-1" x="65.72" y="99.38" width="1.63" height="5.83"/>
        <path class="cls-1" d="M72.97,100.01c0-.09-.12-.21-.37-.38-.38-.27-.83-.4-1.37-.4-.68,0-1.26.23-1.76.68-.65.61-.98,1.47-.98,2.59,0,.79.2,1.44.6,1.95.47.61,1.13.91,1.99.91.7,0,1.24-.29,1.63-.86,0,1.28-.46,1.92-1.39,1.92-.65,0-1.24-.17-1.76-.51l-.41.82c.68.62,1.48.92,2.4.92s1.57-.26,2.05-.78c.49-.53.73-1.29.73-2.27v-5.22h-1.24l-.13.63ZM72.71,102.83c0,.37-.13.69-.38.96-.26.27-.56.4-.91.4-.84,0-1.26-.64-1.26-1.91,0-.58.13-1.04.38-1.39.26-.34.6-.51,1.03-.51.27,0,.52.1.75.29.23.19.36.42.39.69v1.48Z"/>
        <path class="cls-1" d="M78.65,99.23c-.83,0-1.51.27-2.05.82-.6.6-.9,1.36-.9,2.27s.27,1.66.8,2.19c.56.56,1.33.85,2.32.85.92,0,1.69-.27,2.31-.82l-.41-.86c-.61.34-1.19.51-1.75.51-.39,0-.73-.13-1.02-.39-.29-.26-.45-.59-.48-.98h4v-.59c0-.85-.22-1.54-.67-2.07-.51-.62-1.23-.94-2.16-.94ZM77.38,101.63c.09-.84.51-1.26,1.26-1.26s1.18.42,1.22,1.26h-2.48Z"/>
        <polygon class="cls-1" points="87.75 97.09 86.07 97.09 86.07 105.21 90.79 105.21 90.79 103.86 87.75 103.86 87.75 97.09"/>
        <path class="cls-1" d="M94.42,99.23c-.83,0-1.51.27-2.05.82-.6.6-.9,1.36-.9,2.27s.27,1.66.8,2.19c.56.56,1.33.85,2.32.85.92,0,1.69-.27,2.31-.82l-.41-.86c-.61.34-1.19.51-1.75.51-.39,0-.73-.13-1.02-.39-.29-.26-.45-.59-.48-.98h4v-.59c0-.85-.22-1.54-.67-2.07-.51-.62-1.23-.94-2.16-.94ZM93.15,101.63c.09-.84.51-1.26,1.26-1.26s1.18.42,1.22,1.26h-2.48Z"/>
        <path class="cls-1" d="M100.8,103.23l-1.24-3.85h-1.63l2.27,5.83h1.26c.43-1.05,1.04-2.56,1.83-4.53l.28-.69.24-.6h-1.69l-1.32,3.85Z"/>
        <path class="cls-1" d="M107.32,99.23c-.83,0-1.51.27-2.05.82-.6.6-.9,1.36-.9,2.27s.27,1.66.8,2.19c.56.56,1.33.85,2.32.85.92,0,1.69-.27,2.31-.82l-.41-.86c-.61.34-1.19.51-1.75.51-.39,0-.73-.13-1.02-.39-.29-.26-.45-.59-.48-.98h4v-.59c0-.85-.22-1.54-.67-2.07-.51-.62-1.23-.94-2.16-.94ZM106.05,101.63c.09-.84.51-1.26,1.26-1.26s1.18.42,1.22,1.26h-2.48Z"/>
        <polygon class="cls-1" points="111.5 105.21 113.12 105.21 113.12 96.93 111.5 97.78 111.5 105.21"/>
        <path class="cls-1" d="M118.46,102.18c-.25-.21-.72-.41-1.41-.58-.56-.14-.83-.37-.83-.69,0-.35.21-.53.62-.53.54,0,1.02.14,1.44.41l.59-.86c-.6-.47-1.3-.71-2.12-.71-.6,0-1.1.16-1.49.49-.4.33-.6.73-.6,1.22,0,1.02.65,1.65,1.95,1.9.61.11.91.35.91.71,0,.2-.08.36-.23.47-.15.12-.36.18-.6.18-.62,0-1.16-.18-1.6-.53l-.59.9c.64.53,1.43.8,2.36.8.66,0,1.18-.16,1.57-.49.39-.32.58-.76.58-1.31,0-.62-.18-1.08-.54-1.39Z"/>
      </g>
    </g>
    <g>
      <path class="cls-1" d="M59.25,110.45l2.63,6.18h-.68l-.88-2.09h-2.87l-.87,2.09h-.79l2.76-6.18h.69ZM57.71,113.99h2.39l-1.18-2.83-1.2,2.83Z"/>
      <path class="cls-1" d="M67.28,116.04v.59h-1.77c-.48,0-.87-.13-1.16-.4-.29-.27-.44-.64-.44-1.12v-4.66h.62v4.77c0,.21.1.42.31.63.13.13.36.19.68.19h1.77Z"/>
      <path class="cls-1" d="M73.98,110.45v6.18h-.69l-3.55-5.38v5.38h-.64v-6.18h.84l3.41,5.19v-5.19h.63Z"/>
      <path class="cls-1" d="M80.97,114.36v2.26h-.59v-.71c-.5.57-1.11.84-1.83.82-.64-.03-1.18-.27-1.61-.73-.44-.47-.67-1.03-.67-1.66,0-.67.24-1.24.71-1.72.47-.48,1.04-.71,1.71-.68.65.03,1.19.27,1.64.74.45.47.66,1.02.64,1.65v.03ZM77.4,113.05c-.34.34-.51.75-.52,1.24-.01.49.15.92.47,1.27.33.35.73.54,1.2.57.5.02.93-.15,1.29-.52.36-.37.53-.81.52-1.33,0-.47-.18-.88-.51-1.24-.33-.34-.73-.51-1.2-.51s-.9.17-1.24.51Z"/>
      <path class="cls-1" d="M83.81,113.89v2.74h-.64v-4.58h.57v.65c.12-.24.31-.43.57-.57.23-.12.47-.17.71-.17v.61c-.28,0-.51.08-.69.23-.17.14-.29.27-.36.38-.1.17-.15.41-.15.71Z"/>
      <path class="cls-1" d="M87.27,118.04l-.17.03v-.61c.2-.02.34-.1.43-.25.06-.1.09-.29.09-.58v-4.59h.62v4.7c0,.43-.08.73-.22.89-.18.21-.42.34-.74.4ZM88.25,110.44v1.08h-.63v-1.08h.63Z"/>
      <path class="cls-1" d="M94.5,115.13h.65c-.17.49-.46.88-.87,1.17-.41.28-.86.43-1.36.44-.63.01-1.19-.22-1.66-.68-.49-.48-.73-1.04-.74-1.68-.02-.69.22-1.27.72-1.77.51-.5,1.1-.73,1.77-.69.62.04,1.15.29,1.59.75.43.46.65.97.65,1.54v.33h-4.11c.05.47.24.85.59,1.14.35.3.76.45,1.21.44.72,0,1.23-.34,1.55-1ZM91.15,113.99h3.51c-.09-.43-.29-.77-.6-1.04-.31-.26-.69-.4-1.13-.41-.43,0-.82.13-1.16.39-.32.26-.53.61-.62,1.05Z"/>
      <path class="cls-1" d="M98.05,115.27v.15c0,.15.09.31.26.48.17.17.35.25.55.24.26-.01.47-.09.61-.23.13-.13.2-.31.21-.55,0-.39-.22-.66-.67-.8l-.54-.17c-.56-.18-.86-.56-.88-1.15-.02-.35.1-.66.35-.91.26-.25.57-.39.92-.4.31-.02.6.09.87.31.27.21.42.48.44.8v.14s-.63,0-.63,0v-.1c0-.16-.07-.28-.2-.39-.13-.1-.29-.15-.47-.15-.18,0-.33.07-.45.18-.12.12-.19.27-.19.44-.02.33.17.56.59.7l.53.18c.61.21.94.62.98,1.22.03.41-.11.77-.43,1.08-.32.29-.69.43-1.11.41-.37-.02-.7-.18-.97-.47-.26-.28-.39-.62-.39-1.01h.63Z"/>
    </g>
  </g>
  <g>
    <path class="cls-1" d="M156.74,106.78v-3.4s-.04,0-.04,0c0-1.88-1.52-3.4-3.4-3.4h-17.49c-1.87,0-3.38-1.51-3.4-3.37,0,.03,0,.06,0,.09v-.23c-.06-1.82-1.56-3.28-3.4-3.28h-3.4s0,6.8,0,6.8h3.4c1.84,0,3.34,1.46,3.4,3.28,0,.03,0,.06,0,.09v.06c.01,1.86,1.53,3.37,3.4,3.37h20.93Z"/>
    <path class="cls-1" d="M152.3,93.18v-3.4s-.04,0-.04,0c0-1.88-1.52-3.4-3.4-3.4h-13.05c-1.87,0-3.38-1.51-3.4-3.37,0,.03,0,.06,0,.09v-.23c-.06-1.82-1.56-3.28-3.4-3.28h-3.4s0,6.8,0,6.8h3.4c1.84,0,3.34,1.46,3.4,3.28,0,.03,0,.06,0,.09v.06c.01,1.86,1.53,3.37,3.4,3.37h16.49Z"/>
    <path class="cls-1" d="M163.53,120.38v-3.4c0-1.88-1.52-3.4-3.4-3.4h-24.33c-1.88,0-3.4-1.52-3.4-3.4,0,.04,0,.08,0,.12v-.23c-.06-1.82-1.56-3.28-3.4-3.28h-3.4s0,6.8,0,6.8h3.4c1.84,0,3.34,1.46,3.4,3.28,0,.04,0,.08,0,.12,0,1.88,1.52,3.4,3.4,3.4h27.73Z"/>
  </g>
</svg>