<?xml version="1.0" encoding="UTF-8"?>
<svg id="Layer_1" data-name="Layer 1" xmlns="http://www.w3.org/2000/svg" viewBox="0 0 200 200">
  <defs>
    <style>
      .cls-1 {
        fill: #303030;
      }
    </style>
  </defs>
  <path class="cls-1" d="M144.78,111.76h-38.56c-3.77,0-6.86-3.07-6.89-6.83v-.11s0-.07,0-.11v-.02c-.1-2.92-2.46-5.2-5.39-5.2h-6.89v-13.78h6.89c1.8,0,3.5.69,4.79,1.94,1.29,1.25,2.03,2.92,2.09,4.71v.03s0,.26,0,.26h0c.02,2.95,2.44,5.34,5.39,5.34h31.59c3.55,0,6.48,2.69,6.85,6.14h.12v7.64ZM100.82,104.62c0,.07,0,.13,0,.19v.11c.02,2.94,2.44,5.34,5.39,5.34h37.06v-4.64h-.08v-.75c0-2.97-2.42-5.39-5.39-5.39h-31.59c-3.72,0-6.78-2.98-6.89-6.68h0v-.41c-.1-2.91-2.47-5.19-5.39-5.19h-5.39v10.78h5.39c1.8,0,3.5.69,4.79,1.94,1.29,1.25,2.03,2.92,2.09,4.71Z"/>
  <path class="cls-1" d="M136.77,87.19h-30.55c-3.77,0-6.86-3.07-6.89-6.83v-.11s0-.07,0-.11v-.02c-.1-2.92-2.46-5.2-5.39-5.2h-6.89v-13.78h6.89c1.8,0,3.5.69,4.79,1.94,1.29,1.25,2.03,2.92,2.09,4.71v.03s0,.26,0,.26h0c.02,2.95,2.44,5.34,5.39,5.34h23.58c3.55,0,6.48,2.69,6.85,6.14h.12v7.64ZM100.82,80.05c0,.07,0,.13,0,.19v.11c.02,2.94,2.44,5.34,5.39,5.34h29.05v-4.64h-.08v-.75c0-2.97-2.42-5.39-5.39-5.39h-23.58c-3.72,0-6.78-2.98-6.89-6.68h0v-.41c-.1-2.91-2.47-5.19-5.39-5.19h-5.39v10.78h5.39c1.8,0,3.5.69,4.79,1.94,1.29,1.25,2.03,2.92,2.09,4.7Z"/>
  <path class="cls-1" d="M157.06,136.32h-50.84c-3.8,0-6.89-3.09-6.89-6.89,0-.06,0-.11,0-.15v-.03c-.1-2.92-2.47-5.2-5.39-5.2h-6.89v-13.78h6.89c1.8,0,3.5.69,4.79,1.94,1.29,1.25,2.03,2.92,2.09,4.71v.03s0,.21,0,.21h0c0,2.97,2.42,5.39,5.39,5.39h43.95c3.8,0,6.89,3.09,6.89,6.89v6.89ZM100.82,129.18c0,.09,0,.18,0,.25,0,2.97,2.42,5.39,5.39,5.39h49.34v-5.39c0-2.97-2.42-5.39-5.39-5.39h-43.95c-3.73,0-6.78-2.98-6.89-6.68h0v-.41c-.1-2.91-2.47-5.19-5.39-5.19h-5.39v10.78h5.39c1.8,0,3.5.69,4.79,1.94,1.28,1.25,2.03,2.91,2.09,4.7Z"/>
</svg>