<?xml version="1.0" encoding="UTF-8"?>
<svg id="Layer_1" data-name="Layer 1" xmlns="http://www.w3.org/2000/svg" viewBox="0 0 200 200">
  <defs>
    <style>
      .cls-1 {
        fill: #373e50;
      }
    </style>
  </defs>
  <g>
    <g>
      <g>
        <path class="cls-1" d="M113.67,86.05v-3.82s-.05,0-.05,0c0-2.11-1.71-3.82-3.82-3.82h-19.64c-2.1,0-3.8-1.69-3.82-3.78,0,.03,0,.07,0,.1v-.26c-.07-2.05-1.75-3.69-3.81-3.69h-3.82s0,7.64,0,7.64h3.82c2.07,0,3.75,1.64,3.81,3.69,0,.03,0,.07,0,.1v.07c.02,2.09,1.72,3.79,3.82,3.79h23.51Z"/>
        <path class="cls-1" d="M108.68,70.78v-3.82s-.05,0-.05,0c0-2.11-1.71-3.82-3.82-3.82h-14.66c-2.1,0-3.8-1.69-3.82-3.78,0,.03,0,.07,0,.1v-.26c-.07-2.05-1.75-3.69-3.81-3.69h-3.82s0,7.64,0,7.64h3.82c2.07,0,3.75,1.64,3.81,3.69,0,.03,0,.07,0,.1v.07c.02,2.09,1.72,3.79,3.82,3.79h18.53Z"/>
        <path class="cls-1" d="M121.3,101.33v-3.82c0-2.11-1.71-3.82-3.82-3.82h-27.33c-2.11,0-3.82-1.71-3.82-3.82,0,.04,0,.09,0,.13v-.26c-.07-2.05-1.75-3.69-3.81-3.69h-3.82s0,7.64,0,7.64h3.82c2.07,0,3.75,1.64,3.81,3.69,0,.04,0,.09,0,.13,0,2.11,1.71,3.82,3.82,3.82h31.14Z"/>
      </g>
      <g>
        <path class="cls-1" d="M57.4,106.43c.68,0,1.02-.35,1.02-1.06,0-.32-.09-.56-.28-.75-.18-.18-.43-.28-.75-.28s-.57.09-.76.28c-.19.19-.28.44-.28.74,0,.33.09.58.28.77.19.19.44.28.76.28Z"/>
        <path class="cls-1" d="M70.98,117.48c0-.32-.09-.57-.28-.75-.18-.18-.43-.28-.75-.28-.69,0-1.04.34-1.04,1.02,0,.33.09.58.28.77.19.19.44.28.76.28.68,0,1.02-.35,1.02-1.06Z"/>
        <path class="cls-1" d="M68.55,117.48c0-.32-.09-.57-.28-.75-.18-.18-.43-.28-.75-.28-.69,0-1.04.34-1.04,1.02,0,.33.09.58.28.77.19.19.44.28.76.28.68,0,1.02-.35,1.02-1.06Z"/>
        <path class="cls-1" d="M77.08,106.63c.68,0,1.02-.35,1.02-1.06,0-.32-.09-.56-.28-.75-.18-.18-.43-.28-.75-.28s-.57.09-.76.28c-.19.19-.28.44-.28.74,0,.33.09.58.28.77.19.19.44.28.76.28Z"/>
        <path class="cls-1" d="M85.85,116.73c-.18-.18-.43-.28-.75-.28-.69,0-1.04.34-1.04,1.02,0,.33.09.58.28.77.19.19.44.28.76.28.68,0,1.02-.35,1.02-1.06,0-.32-.09-.57-.28-.75Z"/>
        <path class="cls-1" d="M83.7,117.48c0-.32-.09-.57-.28-.75-.18-.18-.43-.28-.75-.28-.69,0-1.04.34-1.04,1.02,0,.33.09.58.28.77.19.19.44.28.76.28.68,0,1.02-.35,1.02-1.06Z"/>
        <path class="cls-1" d="M91.54,111.74v-6.89l-1.97,1.06v5.82c0,.5-.1.86-.31,1.07-.2.21-.55.32-1.03.32h-1.47c-.4,0-.68-.09-.85-.26-.17-.17-.25-.47-.25-.88v-3.96l-1.99,1.04v2.92c0,.41-.08.7-.25.88-.17.17-.45.26-.85.26h-2.96c.4-.64.6-1.29.6-1.96,0-.91-.24-1.68-.71-2.29-.57-.75-1.37-1.12-2.4-1.12-.9,0-1.63.29-2.19.87-.62.64-.93,1.49-.93,2.54,0,.66.2,1.31.6,1.96h-2.96c-.4,0-.68-.09-.85-.26-.17-.17-.25-.47-.25-.88v-3.96l-1.99,1.04v2.92c0,.41-.08.7-.25.88-.17.17-.45.26-.85.26h-1.89c-.4,0-.68-.09-.85-.26-.17-.17-.25-.47-.25-.88v-3.96l-.02.02v-3.19l-1.97,1.06v5.82c0,.5-.1.86-.31,1.07-.2.21-.55.32-1.03.32h-1.47c-.4,0-.68-.09-.85-.26-.17-.17-.25-.47-.25-.88v-3.96l-.02.02v-.02l-.68.36-1.29.68v5.11c0,.66-.16,1.18-.48,1.55-.32.37-.77.56-1.35.56-.53,0-1.06-.15-1.61-.46v1.73c.63.34,1.28.5,1.94.5.85,0,1.58-.26,2.19-.79.67-.59,1.08-1.39,1.21-2.4.3.09.64.14.99.14h1.77c.84,0,1.55-.23,2.13-.69.51.46,1.18.69,2,.69h2.27c.77,0,1.4-.2,1.91-.61.5.41,1.14.61,1.91.61h4.41c.51,0,.94-.04,1.26-.11.3.07.73.11,1.26.11h4.4c.77,0,1.4-.2,1.91-.61.5.41,1.14.61,1.91.61h1.77c.95,0,1.7-.28,2.27-.84.62-.61.93-1.42.93-2.44ZM77.95,112.16c-.23.35-.52.61-.88.78-.35-.16-.63-.41-.85-.76-.22-.35-.33-.73-.33-1.14,0-.96.4-1.43,1.2-1.43.37,0,.66.13.88.39.22.26.32.61.32,1.06,0,.39-.11.76-.34,1.11Z"/>
        <path class="cls-1" d="M101.23,116.64c0,.6.29.9.88.9s.88-.3.88-.9-.29-.88-.88-.88-.88.29-.88.88Z"/>
        <path class="cls-1" d="M112.62,117.48c0-.32-.09-.57-.28-.75-.18-.18-.43-.28-.75-.28-.69,0-1.04.34-1.04,1.02,0,.33.09.58.28.77.19.19.44.28.76.28.68,0,1.02-.35,1.02-1.06Z"/>
        <path class="cls-1" d="M110.19,117.48c0-.32-.09-.57-.28-.75s-.43-.28-.75-.28c-.69,0-1.04.34-1.04,1.02,0,.33.09.58.28.77.19.19.44.28.76.28.68,0,1.02-.35,1.02-1.06Z"/>
        <path class="cls-1" d="M115.22,106.63c.68,0,1.02-.35,1.02-1.06,0-.32-.09-.56-.28-.75-.18-.18-.43-.28-.75-.28s-.57.09-.76.28c-.19.19-.28.44-.28.74,0,.33.09.58.28.77.19.19.44.28.76.28Z"/>
        <path class="cls-1" d="M117.63,106.63c.68,0,1.02-.35,1.02-1.06,0-.32-.09-.56-.28-.75-.18-.18-.43-.28-.75-.28s-.55.09-.75.28c-.19.19-.29.44-.29.74s.09.57.28.76c.19.19.44.29.76.29Z"/>
        <path class="cls-1" d="M117.24,114.41c.5.41,1.14.61,1.91.61h2.54c.78,0,1.41-.23,1.91-.69.49.46,1.13.69,1.91.69h1.56c.75-.01,1.35-.24,1.8-.69.49.46,1.13.69,1.91.69h1.56c.81-.02,1.46-.27,1.96-.74.57-.54.85-1.27.85-2.21v-4.05l-1.99,1.04v2.92c0,.41-.08.7-.25.88-.17.17-.45.26-.85.26h-1.07c-.4,0-.69-.09-.86-.26-.17-.17-.26-.47-.26-.88v-3.55l-1.99,1.06v2.49c0,.41-.08.7-.25.88-.17.17-.45.26-.85.26h-1.07c-.4,0-.68-.09-.85-.26-.17-.17-.25-.47-.25-.88v-3.12l-1.99,1.04v2.08c0,.41-.09.7-.26.88-.17.17-.46.26-.86.26h-2.14c-.4,0-.68-.09-.85-.26-.17-.17-.25-.47-.25-.88v-3.96l-1.99,1.04v2.92c0,.41-.08.7-.25.88-.17.17-.45.26-.85.26h-1.89c-.4,0-.68-.09-.85-.26-.17-.17-.25-.47-.25-.88v-3.96l-1.99,1.04v2.92c0,.41-.08.7-.25.88-.17.17-.45.26-.85.26h-1.5c-.9,0-1.56-.12-1.97-.36.22-.19.43-.44.63-.76v-.79c-.6-1.1-1.29-1.96-2.07-2.55-.78-.6-1.58-.9-2.41-.9-1.11,0-2.11.48-2.98,1.45v1.75c.98-.91,1.9-1.37,2.76-1.37,1.02,0,1.89.64,2.62,1.91-.38.29-1.02.55-1.94.77-1.01.24-1.71.45-2.1.61-.39.17-.76.42-1.1.74-.77.75-1.15,1.78-1.15,3.09s.36,2.26,1.09,3.03c.76.8,1.77,1.2,3.03,1.2,1.16,0,2.19-.29,3.11-.88v-1.88c-.9.57-1.87.85-2.9.85-1.61,0-2.41-.77-2.41-2.3,0-.77.23-1.36.68-1.78.37-.33,1.05-.6,2.03-.84.77-.18,1.3-.32,1.59-.43.44.49.92.84,1.44,1.04.52.2,1.2.3,2.04.3h1.7c.77,0,1.4-.2,1.91-.61.5.41,1.14.61,1.91.61h2.27c.77,0,1.4-.2,1.91-.61Z"/>
        <path class="cls-1" d="M145.74,116.46c-.32,0-.57.09-.76.28-.19.19-.28.44-.28.74,0,.33.09.58.28.77.19.19.44.28.76.28.68,0,1.02-.35,1.02-1.06,0-.32-.09-.57-.28-.75-.18-.18-.43-.28-.75-.28Z"/>
        <path class="cls-1" d="M144.92,109.06v2.92c0,.41-.08.7-.25.88-.17.17-.45.26-.85.26h-1.89c-.4,0-.68-.09-.85-.26-.17-.17-.25-.47-.25-.88v-3.96l-.02.02v-.02l-.68.36-1.29.68v5.11c0,.66-.16,1.18-.48,1.55-.32.37-.77.56-1.35.56-.53,0-1.06-.15-1.61-.46v1.73c.63.34,1.28.5,1.94.5.85,0,1.58-.26,2.19-.79.67-.59,1.08-1.39,1.21-2.4.3.09.64.14.99.14h2.27c.83,0,1.5-.24,2.02-.71.59-.54.88-1.28.88-2.24v-4.05l-1.99,1.04Z"/>
      </g>
    </g>
    <rect class="cls-1" x="136.98" y="130.61" width=".69" height="19.15" transform="translate(277.51 2.86) rotate(90)"/>
    <rect class="cls-1" x="62.51" y="130.61" width=".69" height="19.15" transform="translate(203.05 77.32) rotate(90)"/>
    <g>
      <path class="cls-1" d="M55.87,120.61c-.33,0-.81.02-1.44.07-.63.05-1.01.09-1.15.12v9.17h1.9v-3.42c.13.08.48.12,1.06.12.73,0,1.37-.19,1.91-.57.81-.55,1.22-1.42,1.22-2.61,0-1.91-1.17-2.87-3.51-2.87ZM57.04,124.73c-.22.28-.53.41-.91.41s-.69-.05-.94-.15v-2.77c.11-.07.41-.1.9-.1.86,0,1.29.49,1.29,1.46,0,.48-.11.86-.33,1.14Z"/>
      <path class="cls-1" d="M64.08,123.2c-.29,0-.57.08-.85.22-.28.15-.46.33-.56.53l-.17-.58h-1.55v6.58h1.8v-4.73c.15-.34.4-.51.73-.51.36,0,.7.18,1.02.55l1.54-.84c-.43-.82-1.07-1.23-1.94-1.23Z"/>
      <path class="cls-1" d="M69.53,123.2c-.94,0-1.71.31-2.32.93-.68.68-1.02,1.53-1.02,2.57s.3,1.88.9,2.48c.63.64,1.5.96,2.62.96,1.04,0,1.91-.31,2.61-.93l-.46-.97c-.69.39-1.34.58-1.97.58-.44,0-.83-.15-1.15-.44-.32-.29-.51-.66-.54-1.11h4.52v-.67c0-.96-.25-1.74-.75-2.33-.58-.71-1.39-1.06-2.44-1.06ZM68.09,125.92c.11-.95.58-1.42,1.42-1.42s1.33.47,1.38,1.42h-2.8Z"/>
      <path class="cls-1" d="M78.32,126.54c-.28-.24-.81-.46-1.6-.65-.63-.15-.94-.42-.94-.78,0-.4.23-.59.7-.59.61,0,1.15.15,1.62.46l.67-.97c-.68-.53-1.47-.8-2.39-.8-.68,0-1.24.18-1.69.55-.45.37-.67.83-.67,1.38,0,1.15.73,1.87,2.2,2.15.69.13,1.03.39,1.03.8,0,.22-.09.4-.26.54-.17.14-.4.2-.68.2-.71,0-1.31-.2-1.81-.59l-.67,1.02c.73.6,1.61.9,2.67.9.74,0,1.34-.18,1.78-.55.44-.37.66-.86.66-1.48,0-.7-.2-1.22-.61-1.57Z"/>
      <path class="cls-1" d="M83.18,128.83c-.32,0-.48-.24-.48-.73v-3.26h1.89v-1.46h-1.87v-2.15c-.74.39-1.36.71-1.84.97v1.17h-.93v1.46h.91v3.44c0,1.28.58,1.91,1.74,1.91.83,0,1.59-.27,2.28-.81l-.61-.93c-.44.25-.8.38-1.09.38Z"/>
      <path class="cls-1" d="M87.03,120.55c-.3,0-.56.11-.78.34-.22.23-.33.5-.33.8,0,.33.1.6.31.82.21.22.47.33.79.33.34,0,.62-.11.83-.32.22-.21.33-.49.33-.83,0-.32-.11-.59-.34-.81-.23-.22-.5-.33-.82-.33Z"/>
      <rect class="cls-1" x="86.15" y="123.38" width="1.84" height="6.58"/>
      <path class="cls-1" d="M94.34,124.09c0-.1-.14-.24-.42-.44-.43-.3-.94-.45-1.55-.45-.76,0-1.43.26-1.99.77-.73.69-1.1,1.66-1.1,2.93,0,.89.23,1.62.68,2.2.53.69,1.28,1.03,2.25,1.03.79,0,1.41-.32,1.84-.97,0,1.45-.52,2.18-1.57,2.18-.73,0-1.4-.19-1.99-.58l-.46.93c.76.7,1.67,1.04,2.71,1.04s1.78-.3,2.32-.88c.55-.6.83-1.46.83-2.57v-5.9h-1.41l-.15.71ZM94.05,127.28c0,.42-.15.78-.44,1.08-.29.3-.63.46-1.03.46-.95,0-1.42-.72-1.42-2.16,0-.66.15-1.18.44-1.57.29-.39.68-.58,1.16-.58.31,0,.59.11.85.33.26.22.4.48.44.78v1.67Z"/>
      <path class="cls-1" d="M100.77,123.2c-.94,0-1.71.31-2.32.93-.68.68-1.02,1.53-1.02,2.57s.3,1.88.9,2.48c.63.64,1.5.96,2.62.96,1.04,0,1.91-.31,2.61-.93l-.46-.97c-.69.39-1.34.58-1.97.58-.44,0-.83-.15-1.15-.44-.32-.29-.51-.66-.54-1.11h4.52v-.67c0-.96-.25-1.74-.75-2.33-.58-.71-1.39-1.06-2.44-1.06ZM99.33,125.92c.11-.95.58-1.42,1.42-1.42s1.33.47,1.38,1.42h-2.8Z"/>
      <polygon class="cls-1" points="111.05 120.78 109.15 120.78 109.15 129.96 114.48 129.96 114.48 128.44 111.05 128.44 111.05 120.78"/>
      <path class="cls-1" d="M118.59,123.2c-.94,0-1.71.31-2.32.93-.68.68-1.02,1.53-1.02,2.57s.3,1.88.9,2.48c.63.64,1.5.96,2.62.96,1.04,0,1.91-.31,2.61-.93l-.46-.97c-.69.39-1.34.58-1.97.58-.44,0-.83-.15-1.15-.44-.32-.29-.51-.66-.54-1.11h4.52v-.67c0-.96-.25-1.74-.75-2.33-.58-.71-1.39-1.06-2.44-1.06ZM117.15,125.92c.11-.95.58-1.42,1.42-1.42s1.33.47,1.38,1.42h-2.8Z"/>
      <path class="cls-1" d="M125.8,127.73l-1.41-4.35h-1.84l2.57,6.58h1.42c.48-1.19,1.17-2.9,2.07-5.12l.32-.78.28-.68h-1.91l-1.49,4.35Z"/>
      <path class="cls-1" d="M133.16,123.2c-.94,0-1.71.31-2.32.93-.68.68-1.02,1.53-1.02,2.57s.3,1.88.9,2.48c.63.64,1.5.96,2.62.96,1.04,0,1.91-.31,2.61-.93l-.46-.97c-.69.39-1.34.58-1.97.58-.44,0-.83-.15-1.15-.44-.32-.29-.51-.66-.54-1.11h4.52v-.67c0-.96-.25-1.74-.75-2.33-.58-.71-1.39-1.06-2.44-1.06ZM131.73,125.92c.11-.95.58-1.42,1.42-1.42s1.33.47,1.38,1.42h-2.8Z"/>
      <polygon class="cls-1" points="137.89 129.96 139.72 129.96 139.72 120.61 137.89 121.57 137.89 129.96"/>
      <path class="cls-1" d="M145.75,126.54c-.28-.24-.81-.46-1.6-.65-.63-.15-.94-.42-.94-.78,0-.4.23-.59.7-.59.61,0,1.15.15,1.62.46l.67-.97c-.68-.53-1.47-.8-2.39-.8-.68,0-1.24.18-1.69.55-.45.37-.67.83-.67,1.38,0,1.15.73,1.87,2.2,2.15.69.13,1.03.39,1.03.8,0,.22-.09.4-.26.54-.17.14-.4.2-.68.2-.71,0-1.31-.2-1.81-.59l-.67,1.02c.73.6,1.61.9,2.67.9.74,0,1.34-.18,1.78-.55.44-.37.66-.86.66-1.48,0-.7-.2-1.22-.61-1.57Z"/>
    </g>
  </g>
  <g>
    <path class="cls-1" d="M78.84,135.88l2.97,6.99h-.77l-.99-2.36h-3.24l-.98,2.36h-.89l3.12-6.99h.78ZM77.1,139.88h2.7l-1.33-3.2-1.36,3.2Z"/>
    <path class="cls-1" d="M87.91,142.21v.66h-2.01c-.54,0-.98-.15-1.32-.45-.33-.3-.5-.73-.5-1.27v-5.26h.7v5.39c0,.24.11.48.34.72.15.15.4.22.77.22h2.01Z"/>
    <path class="cls-1" d="M95.48,135.88v6.99h-.78l-4.01-6.08v6.08h-.73v-6.99h.94l3.86,5.86v-5.86h.72Z"/>
    <path class="cls-1" d="M103.38,140.31v2.56h-.67v-.81c-.56.64-1.25.95-2.07.93-.72-.03-1.33-.31-1.82-.83-.5-.53-.75-1.16-.75-1.88,0-.76.27-1.4.81-1.94.53-.54,1.18-.8,1.93-.77.73.03,1.35.31,1.85.84.51.53.75,1.16.73,1.87v.04ZM99.35,138.82c-.38.38-.58.85-.59,1.41-.01.56.17,1.03.54,1.43.37.4.82.61,1.35.64.57.02,1.05-.17,1.45-.59.41-.42.6-.92.59-1.5,0-.53-.2-1-.58-1.4-.37-.39-.82-.58-1.35-.58s-1.02.19-1.41.58Z"/>
    <path class="cls-1" d="M106.59,139.78v3.1h-.73v-5.17h.64v.74c.14-.27.35-.49.64-.64.26-.13.53-.2.8-.19v.69c-.31,0-.57.09-.78.26-.19.16-.33.3-.41.43-.11.19-.17.46-.17.8Z"/>
    <path class="cls-1" d="M110.51,144.46l-.19.04v-.69c.22-.02.38-.11.48-.28.07-.12.1-.33.1-.65v-5.18h.7v5.31c0,.48-.08.82-.25,1.01-.2.24-.48.39-.84.45ZM111.61,135.87v1.23h-.72v-1.23h.72Z"/>
    <path class="cls-1" d="M118.68,141.17h.74c-.19.56-.52,1-.98,1.33-.46.32-.97.49-1.53.5-.71.01-1.34-.25-1.88-.77-.55-.54-.83-1.17-.84-1.9-.02-.77.25-1.44.82-2,.57-.56,1.24-.82,2.01-.78.7.05,1.29.33,1.8.85.49.51.74,1.1.74,1.74v.37h-4.65c.05.53.28.96.66,1.29.4.34.86.51,1.37.5.81,0,1.39-.38,1.75-1.13ZM114.89,139.88h3.97c-.1-.48-.33-.87-.68-1.17-.35-.3-.78-.45-1.28-.46-.49,0-.93.14-1.31.44-.36.29-.6.69-.7,1.19Z"/>
    <path class="cls-1" d="M122.69,141.34v.17c0,.17.1.35.29.54.19.19.4.28.62.27.3-.01.53-.1.69-.26.15-.15.22-.35.24-.62,0-.44-.25-.74-.75-.91l-.61-.19c-.64-.2-.97-.63-1-1.3-.02-.4.11-.74.4-1.03.3-.28.64-.44,1.04-.45.35-.02.68.1.98.34.31.24.47.54.5.91v.15s-.72,0-.72,0v-.12c0-.18-.08-.32-.23-.44-.15-.11-.33-.17-.54-.17-.2,0-.37.08-.51.21-.14.13-.21.3-.22.5-.02.37.2.63.66.79l.6.2c.69.24,1.06.7,1.11,1.38.04.47-.13.87-.49,1.22-.36.33-.78.49-1.25.46-.42-.02-.79-.2-1.1-.53-.29-.31-.44-.7-.44-1.14h.72Z"/>
  </g>
</svg>