<svg width="744" height="800" viewBox="0 0 744 800" fill="none" xmlns="http://www.w3.org/2000/svg">
<path d="M610.88 533.111V466.452H610.096C610.096 429.594 580.295 399.794 543.437 399.794H200.538C163.876 399.794 134.271 370.19 133.879 333.723C133.879 334.312 133.879 334.9 133.879 335.488V330.979C132.703 295.297 103.295 266.673 67.2207 266.673H0.562256V399.99H67.2207C103.295 399.99 132.703 428.614 133.879 464.296C133.879 464.884 133.879 465.472 133.879 466.06V467.236C134.075 503.703 163.876 533.307 200.538 533.307H610.88V533.111Z" fill="#B9A67F"/>
<path d="M523.832 266.477V199.819H523.047C523.047 162.961 493.247 133.16 456.389 133.16H200.538C163.876 133.16 134.271 103.556 133.879 67.0901C133.879 67.6783 133.879 68.2664 133.879 68.8545V64.3454C132.703 28.6634 103.295 0.0393677 67.2207 0.0393677H0.562256V133.356H67.2207C103.295 133.356 132.703 161.98 133.879 197.662C133.879 198.25 133.879 198.839 133.879 199.427V200.603C134.075 237.069 163.876 266.674 200.538 266.674H523.832V266.477Z" fill="#B9A67F"/>
<path d="M744 799.744V733.086C744 696.228 714.2 666.427 677.342 666.427H200.341C163.483 666.427 133.682 636.627 133.682 599.769C133.682 600.553 133.682 601.337 133.682 602.121V597.612C132.506 561.93 103.098 533.306 67.0238 533.306H0.365234V666.623H67.0238C103.098 666.623 132.506 695.247 133.682 730.929C133.682 731.713 133.682 732.498 133.682 733.282C133.682 770.14 163.483 799.94 200.341 799.94H744V799.744Z" fill="#B9A67F"/>
</svg>
