<svg width="70" height="70" viewBox="0 0 70 70" fill="none" xmlns="http://www.w3.org/2000/svg">
<path d="M40.8332 64.1666C51.8319 64.1666 57.3327 64.1666 60.7481 60.6316C64.1636 57.0966 64.1665 51.4091 64.1665 40.0312V35.5949C64.1665 28.9187 64.1665 25.582 62.6498 22.817C61.139 20.0491 58.3711 18.3341 52.8381 14.8983L47.0048 11.2787C41.154 7.64742 38.2315 5.83325 34.9998 5.83325C31.7682 5.83325 28.8457 7.64742 22.9948 11.2787L17.1615 14.8983C11.6286 18.3341 8.86065 20.0491 7.3469 22.817C6.4194 24.5087 6.06357 26.4133 5.92065 29.1666" stroke="currentColor" stroke-width="3.5" stroke-linecap="round"/>
<path d="M32.0833 64.1665C32.0833 57.2046 29.3176 50.5278 24.3948 45.605C19.472 40.6821 12.7952 37.9165 5.83325 37.9165" stroke="currentColor" stroke-width="3.5" stroke-linecap="round"/>
<path d="M23.3333 64.1665C23.3333 59.5252 21.4895 55.074 18.2076 51.7921C14.9257 48.5102 10.4745 46.6665 5.83325 46.6665M14.5833 64.1665C14.5833 61.8459 13.6614 59.6203 12.0204 57.9793C10.3795 56.3384 8.1539 55.4165 5.83325 55.4165" stroke="currentColor" stroke-width="3.5" stroke-linecap="round"/>
</svg>
