<svg width="1651" height="840" viewBox="0 0 1651 840" fill="none" xmlns="http://www.w3.org/2000/svg">
<g clip-path="url(#clip0_275_422)">
<path d="M1562.51 53.8599H1562.47C1559.32 53.6099 1556.18 53.4899 1553.05 53.4899C1551.14 53.4899 1549.24 53.5399 1547.34 53.6299C1539.94 54.3199 1532.43 55.1499 1524.82 56.0999C1524.8 56.0999 1524.79 56.1099 1524.77 56.1099C1523.8 56.1599 1522.85 56.1799 1521.93 56.1799C1513.51 56.1799 1507.86 54.3499 1505.01 50.6799C1504.98 50.6499 1504.97 50.6499 1504.95 50.6199C1504.89 50.5499 1504.86 50.4499 1504.86 50.3599C1504.37 39.2999 1510.39 33.2 1522.92 32.02C1523.52 31.97 1524.14 31.9399 1524.77 31.9399C1534.1 31.9399 1545.88 38.1799 1560.14 50.6799C1561.02 51.4499 1561.91 52.2399 1562.81 53.0699C1563.12 53.3499 1562.91 53.8599 1562.51 53.8599Z" fill="white"/>
<path d="M1499.14 396.6C1497.16 396.6 1495.2 396.61 1493.27 396.64C1405.82 401.03 1362.21 406.19 1362.4 412.11V413.54L1444.81 464.54C1488.34 431.11 1522.19 409.62 1546.38 400.06V398.35C1529.07 397.18 1513.33 396.6 1499.14 396.6ZM1629.81 577.26C1623.57 573.18 1615.75 569.51 1606.54 566.35L1591.68 565.27L1576.55 564.18C1509.09 568.92 1462.78 571.61 1438.91 572.18H1438.72C1435.51 572.18 1417.77 571.94 1401.43 571.7C1393.75 592.96 1390.12 613.69 1390.63 633.38C1391.53 670.52 1406.67 695.07 1436.91 708.47C1446 712.49 1456.04 715.13 1466.74 716.29C1473.47 717.02 1479.23 717.4 1483.88 717.4C1484.54 717.4 1485.17 717.39 1485.77 717.37L1499.19 717.08C1530.43 716.34 1560.13 705.86 1587.44 685.96C1601.43 675.77 1615.1 662.9 1628.05 647.71C1632.87 642.09 1637.68 636.03 1642.38 629.66C1645.77 620.48 1648.03 613.39 1649.1 608.6C1649.23 608.01 1649.28 607.41 1649.24 606.82C1648.51 595 1642.15 585.34 1629.81 577.26ZM1520.16 652.34C1519.01 658.64 1517.96 664.96 1517.01 671.26C1514.9 681 1512.42 685.87 1509.56 685.87C1506.11 685.87 1499.62 683.39 1490.07 678.42C1481.29 673.83 1476.56 670.98 1475.88 669.83C1475.22 668.68 1474.7 666.38 1474.31 662.94C1476.41 656.45 1478.99 647.09 1482.05 634.87C1482.62 631.23 1483.67 629.52 1485.2 629.7L1490.07 632.86C1495.8 635.15 1504.4 639.17 1515.86 644.89C1517.19 645.28 1518.45 645.75 1519.59 646.33C1520.73 646.89 1520.92 648.91 1520.16 652.34ZM1597.74 403.51C1595.9 404.53 1594.08 405.53 1592.28 406.53C1526 443.23 1480.92 470.67 1457 488.9C1456.22 503.41 1454.19 510.68 1450.9 510.68C1445.3 505.71 1442.49 502.18 1442.49 500.07H1440.75C1431.27 507.91 1423.72 516.41 1418.11 525.58L1452.93 524.72C1499.95 523.76 1542.5 521.28 1580.62 517.27C1581.86 517.24 1583.08 517.22 1584.29 517.22C1587.01 517.22 1589.68 517.3 1592.28 517.45C1608.85 518.4 1622.86 522.37 1634.3 529.37C1639.16 532.35 1643.56 535.87 1647.5 539.94C1648.71 541.2 1649.87 542.5 1650.96 543.85V109.31C1650.96 60.5899 1618.75 19.0199 1574.56 4.84985C1574.67 4.93985 1574.79 5.03989 1574.9 5.13989C1589.53 17.6899 1600.59 32.8699 1608.08 50.6799C1612.92 62.1699 1616.27 74.7599 1618.13 88.4499C1621.97 116.21 1619.25 141.71 1609.98 164.97C1605.36 173.26 1599.46 182.07 1592.28 191.41C1576.94 211.36 1555.77 233.69 1528.75 258.41C1506.83 278.47 1483.24 297.67 1457.19 312.13C1443.46 319.75 1422.97 325.59 1404.29 325.59C1395.05 325.59 1386.25 324.16 1378.93 320.81C1363.13 313.6 1352.78 298.17 1344.88 282.71C1334.49 262.38 1326.86 240.77 1319.42 219.18C1319.3 218.83 1319.58 218.57 1319.86 218.57C1320.01 218.57 1320.14 218.64 1320.24 218.79C1329.1 233.32 1338.35 247.8 1350.83 259.34C1363.24 270.82 1379.46 279.18 1396.23 279.18C1397.69 279.18 1399.17 279.11 1400.64 278.98C1412.69 277.9 1428.6 276.4 1439.47 271.07C1456.06 262.93 1471.15 252.68 1486.21 242.41C1502.36 231.4 1517.44 218.47 1532.02 205.49C1559.37 181.21 1579.45 161.55 1592.28 146.51C1600.39 137.01 1605.59 129.35 1607.89 123.54C1607.94 123.43 1607.94 123.31 1607.89 123.19C1606.08 118.42 1600.88 114.06 1592.28 110.12C1591.01 109.54 1589.68 108.97 1588.27 108.4C1578.95 104.7 1569.11 102.85 1558.77 102.85C1554.48 102.85 1550.12 103.17 1545.66 103.8C1533.61 105.42 1526.12 106.37 1523.16 106.65C1520.66 106.88 1518.25 107 1515.94 107C1501.23 107 1490.57 102.24 1483.97 92.7198C1480 86.9798 1477.5 79.5099 1476.47 70.3199C1475.68 63.5499 1475.55 57.0099 1476.06 50.6799C1477.23 35.8199 1481.96 22.1599 1490.22 9.68988C1492.7 5.94988 1495.26 2.6099 1497.91 -0.350098H1124.95V730.76C1124.95 749.67 1129.8 767.51 1138.34 783.08C1146.31 782.92 1157.23 779.76 1171.14 773.62C1178.23 770.48 1186.09 766.58 1194.72 761.89C1206.7 755.39 1220.18 747.39 1235.14 737.89C1238.14 735.98 1241.2 734.02 1244.32 732C1249.31 728.73 1254.09 725.6 1258.63 722.6C1297.39 697.03 1320.06 681.04 1326.62 674.66C1329.78 671.89 1331.37 669.21 1331.37 666.64C1331.37 662.88 1327.7 658.32 1320.38 652.97C1311.47 646.25 1297.1 638.12 1277.29 628.61C1255.71 618.52 1239.66 609.89 1229.17 602.77C1223.64 598.98 1218.3 594.91 1213.17 590.56C1211.59 589.23 1210.03 587.87 1208.49 586.48C1197.98 577.01 1188.33 566.29 1179.56 554.34C1178.06 552.52 1175.26 550.28 1171.14 547.63C1170.52 547.24 1169.87 546.83 1169.2 546.41C1168.99 546.28 1168.78 546.16 1168.56 546.02C1165.39 544.24 1163.81 540.07 1163.81 533.55V508.29C1163.81 506.12 1164.1 504.53 1164.69 503.53C1164.94 503.3 1165.31 503.17 1165.8 503.17C1166.6 503.17 1167.73 503.5 1169.2 504.16C1169.73 504.4 1170.31 504.69 1170.94 505.03L1171.14 505.12L1208.49 522.89L1213.17 525.11L1214.02 525.52C1215.8 526.32 1217.38 527.11 1218.77 527.91C1225.7 531.86 1232.16 538.62 1230.38 540.59C1229.68 541.36 1228.13 541.64 1225.93 541.64C1222.8 541.64 1218.34 541.06 1213.17 540.48C1211.66 540.31 1210.09 540.15 1208.49 539.98C1206.43 539.78 1204.31 539.61 1202.14 539.48C1204.17 541.48 1206.29 543.44 1208.49 545.36C1210.01 546.7 1211.57 548.03 1213.17 549.34C1227.36 560.97 1244.47 571.45 1264.52 580.78C1296.01 595.64 1314.63 605.24 1320.38 609.6C1334.23 619.11 1341.17 635.55 1341.17 658.92C1341.17 663.87 1340.77 668.72 1339.99 673.48C1337.8 686.35 1335.23 695.46 1332.26 700.8C1330.28 704.56 1325.92 709.52 1319.18 715.66C1316.91 717.72 1314.18 720.03 1310.99 722.6C1305.55 726.97 1298.81 732.07 1290.74 737.89C1281.08 744.85 1269.54 752.85 1256.1 761.89C1250.7 765.52 1244.98 769.33 1238.97 773.3C1235.6 775.58 1232.31 777.79 1229.09 779.92C1203.28 797.02 1182.45 809.26 1166.6 816.63C1166.6 816.63 1166.61 816.633 1166.62 816.64C1185.33 831.53 1208.99 840.45 1234.61 840.45H1650.93C1650.93 840.45 1650.96 840.44 1650.96 840.43V666.69C1646.31 675.16 1640.76 683.44 1634.3 691.54C1623.04 705.67 1609.04 719.25 1592.28 732.27C1589.85 734.15 1587.37 736.03 1584.83 737.89C1584.54 738.1 1584.24 738.32 1583.95 738.53C1570.29 748.47 1555.01 756.04 1538.78 760.7C1521.22 765.75 1503.92 768.47 1486.89 768.85C1485.89 768.88 1484.9 768.89 1483.92 768.89C1454.45 768.89 1427.9 758.55 1404.23 737.89C1402.75 736.6 1401.29 735.27 1399.84 733.89C1380.29 707.33 1370.14 677.05 1369.37 643.06L1369.08 625.87C1368.49 604.85 1370.71 583.54 1375.74 561.97C1368.69 560.44 1359.13 558.2 1352.04 556.53C1343.07 554.4 1334.36 551.28 1326.18 547.01C1320.54 544.07 1316.07 541.12 1312.77 538.18C1300.01 525.77 1291.69 513.73 1287.83 502.08C1281.43 490.43 1275.44 407.43 1269.83 253.07C1267.7 208.57 1263.82 170.65 1258.22 139.32C1253.77 121.17 1250.1 110.95 1247.19 108.66C1244.47 108.66 1237.81 121.08 1227.17 145.92L1225.72 146.77H1225.13C1224.16 146.77 1223.69 146.3 1223.69 145.34C1223.69 129.66 1228.14 112.11 1237.04 92.7198C1238.25 90.0898 1239.53 87.4299 1240.9 84.7399C1243.3 79.9999 1246.75 75.8499 1251.02 72.6999C1251.92 72.0299 1252.48 71.6999 1252.71 71.6999H1256.19C1262.32 71.6999 1267.72 78.6998 1272.38 92.7198C1283.74 126.87 1290.72 202.67 1293.33 320.13C1293.33 322.16 1293.34 324.16 1293.35 326.17C1293.35 327.47 1293.37 328.79 1293.37 330.08C1293.88 395.04 1299.48 444.15 1310.17 477.45C1316.21 491.8 1326.7 503.68 1341.6 513.13C1359.53 520.69 1376.21 524.49 1391.66 524.49C1392.74 524.49 1393.82 524.46 1394.9 524.43C1394.9 523.67 1403.99 510.59 1422.18 485.17V483.45C1406.7 476.54 1384.98 463.12 1357.04 443.2C1352.62 440.05 1348.76 436.13 1345.91 431.52C1342.52 425.99 1340.76 420.19 1340.63 414.11C1340.2 398.64 1347.98 386.18 1363.98 376.72C1373.08 371.34 1383.27 368.05 1393.77 366.75C1416.15 363.99 1444.58 362.2 1479.06 361.39L1548.69 359.67C1551.04 359.67 1573.62 359.74 1592.28 359.8C1605.93 359.84 1617.48 359.89 1617.48 359.89L1617.54 362.99C1616.6 365.79 1616.76 368.67 1616.33 371.59C1613.21 392.69 1616.99 392.34 1597.74 403.51ZM1369.04 150.52C1374.17 146.38 1387.28 153.13 1391.83 156.57C1404.37 166.04 1409.56 178.67 1416.73 191.86C1417.44 193.16 1417.48 194.99 1419.6 194.86C1419.77 177.94 1413.94 142.44 1425.49 128.95C1434.09 118.91 1448.99 129.96 1450.43 139.53C1450.77 141.84 1450.11 152.3 1447.24 152.31C1441.88 152.33 1433.55 137.34 1428.16 151.84C1420.47 172.54 1434 203.49 1423.17 223.81C1418.86 221 1418.42 215.29 1415.79 210.53C1412.35 204.31 1395.27 179.45 1389.98 176.75C1388.75 176.12 1388.37 175.72 1386.94 176.54C1383.8 186.37 1365.43 177.41 1363.05 171.82C1361.93 169.16 1366.86 152.29 1369.04 150.52ZM1548.26 292.08C1536.82 300.41 1522.28 311.45 1504.71 325.26C1499.74 329.17 1494.51 333.32 1489.05 337.68C1487.48 338.93 1485.89 340.2 1484.29 341.48L1483.98 337.87L1483.32 330.23C1485.05 328.84 1486.92 327.34 1488.95 325.73C1490.13 324.8 1491.36 323.83 1492.64 322.83L1492.66 322.81L1547.54 280.77C1555.35 275.07 1565.18 268.08 1577.01 259.79C1583.49 255.26 1590.57 250.33 1598.25 245.03L1599 256.24C1597.35 256.82 1585.55 264.94 1548.26 292.08Z" fill="white"/>
<path d="M1598.99 256.24L1599.01 256.56C1599.26 256.27 1599.28 256.14 1598.99 256.24Z" fill="white"/>
<path d="M46.72 269.25L55.81 278.34L66.69 267.46L55.81 256.59L46.72 265.68L37.63 256.59L26.75 267.46L37.63 278.34L46.72 269.25Z" fill="white"/>
<path d="M241.32 330.4C240.07 325.88 238.02 321.01 235.17 315.78H231.6L224.65 331.29C228.09 335.57 230.98 339.82 233.29 344.04C235.61 348.26 237.13 351.91 237.84 355C234.87 356.31 231.27 357.32 227.05 358.03C222.83 358.74 218.29 359.1 213.41 359.1H74.3498C68.1698 359.1 63.8298 358 61.3398 355.8C58.8398 353.6 57.5898 349.77 57.5898 344.3V284.93H54.0298L47.6098 298.84L27.6398 311.68C20.0298 316.55 14.6498 321.39 11.5098 326.21C8.35978 331.02 6.77979 336.04 6.77979 341.27C6.77979 347.45 8.58979 352.15 12.2198 355.36C15.8398 358.57 21.0998 360.17 27.9998 360.17C33.8198 360.17 38.9898 359.04 43.5098 356.78L48.4998 344.84C49.3298 352.57 50.3698 358.72 51.6198 363.29C52.8698 367.87 54.9498 371.14 57.8598 373.1C60.7698 375.06 65.0798 376.04 70.7898 376.04H209.85C215.31 376.04 220.55 375.5 225.54 374.43C230.53 373.36 234.69 371.88 238.02 369.98C239.68 366.17 240.96 362.04 241.85 357.59C242.74 353.13 243.19 348.7 243.19 344.3C243.19 339.55 242.56 334.92 241.32 330.4ZM40.3998 342.25C37.4798 342.91 33.9498 343.23 29.7898 343.23C24.7998 343.23 20.7898 342.37 17.7598 340.65C14.7298 338.93 13.2098 336.64 13.2098 333.78C13.2098 331.88 14.1298 330.01 15.9698 328.17C17.8098 326.33 20.7598 324.63 24.7998 323.09L45.4798 315.24L47.9698 339.85C45.8398 340.8 43.3098 341.6 40.3998 342.25Z" fill="white"/>
<path d="M289.19 355.09C290.26 358.24 290.79 361.48 290.79 364.81C290.79 373.13 286.87 380.2 279.02 386.03C271.29 391.77 260.14 395.42 245.6 397L236.77 388.17L227.68 397.26L218.59 388.17L207.71 399.05L218.59 409.92L227.68 400.83L236.77 409.92L245.7 400.99L275.99 415.27C283 404.57 288.11 394.11 291.32 383.89C294.53 373.67 296.13 364.04 296.13 355.01C296.13 348.71 295.06 342.17 292.92 335.4C290.78 328.62 287.81 322.09 284.01 315.79H280.45L273.5 331.3C277.78 336.41 281.19 340.87 283.75 344.67C286.3 348.47 288.12 351.95 289.19 355.1V355.09Z" fill="white"/>
<path d="M432.71 283.87L441.8 292.96L452.68 282.08L441.8 271.21L432.71 280.3L423.62 271.21L412.74 282.08L423.62 292.96L432.71 283.87Z" fill="white"/>
<path d="M640.59 256.77V243.04H637.02C625.73 249.1 622.58 257.36 627.57 267.82L630.07 356.43C624.36 358.21 619.31 359.1 614.91 359.1H582.82C573.91 359.1 566.77 358.39 561.43 356.96C565.35 353.16 568.41 348.91 570.61 344.21C572.81 339.52 573.91 334.5 573.91 329.15C573.91 323.21 571.68 318.27 567.22 314.35C562.76 310.43 556.37 308.47 548.06 308.47C544.37 308.47 540.54 308.89 536.56 309.72C532.57 310.55 528.62 311.62 524.7 312.93L515.61 336.82C517.98 337.29 520.03 338.15 521.76 339.4C523.48 340.65 525.83 343 528.8 346.44L537.89 356.6C529.22 358.27 519.47 359.1 508.65 359.1H465.87C458.97 359.1 452.43 358.57 446.25 357.5C449.34 354.17 451.72 350.57 453.39 346.71C455.05 342.85 455.88 338.72 455.88 334.32C455.88 329.33 454.87 324.6 452.85 320.15C450.83 315.69 448.19 312.06 444.92 309.27C441.65 306.48 438.17 305.08 434.49 305.08C431.52 305.08 428.52 306.15 425.48 308.29C422.45 310.43 419.66 313.25 417.1 316.76C414.55 320.27 412.5 324.1 410.95 328.26C409.41 332.42 408.64 336.52 408.64 340.56C408.64 347.1 410.89 353.04 415.41 358.39C410.18 358.86 404.47 359.1 398.3 359.1H344.81C338.63 359.1 334.29 358 331.8 355.8C329.3 353.6 328.05 349.77 328.05 344.3V243.04H324.49L314.86 263.9L317.18 344.3C317.41 352.27 318.34 358.57 319.94 363.2C321.54 367.84 324.07 371.14 327.52 373.1C330.96 375.06 335.54 376.04 341.24 376.04H394.73C401.27 376.04 407.48 375.44 413.36 374.25C419.24 373.07 424.62 371.34 429.5 369.08C434.01 371.34 439.03 373.07 444.56 374.25C450.09 375.44 456 376.04 462.3 376.04H505.09C513.17 376.04 520.87 375.21 528.18 373.54C535.49 371.88 542.11 369.5 548.06 366.41C552.33 369.5 557.09 371.88 562.32 373.54C567.55 375.21 573.19 376.04 579.26 376.04H611.35C615.63 376.04 619.87 375.48 624.09 374.34C628.31 373.22 631.97 371.82 635.06 370.16C636.96 366.47 638.36 362.37 639.25 357.85C640.14 353.34 640.59 348.82 640.59 344.3V277.45L650.57 269.78L640.59 256.77ZM436.28 355C429.39 352.86 423.95 350.01 419.97 346.44C415.98 342.88 413.99 338.95 413.99 334.68C413.99 331.11 415.45 328.11 418.36 325.67C421.27 323.24 424.93 322.02 429.33 322.02C433.01 322.02 436.46 323 439.67 324.96C442.88 326.92 445.49 329.48 447.51 332.63C449.53 335.78 450.54 339.19 450.54 342.88C450.54 348.11 445.79 352.15 436.28 355ZM548.78 349.65L538.44 338.24C534.04 333.37 530.35 330.52 527.38 329.68V328.97C530.47 327.78 533.8 326.89 537.37 326.3C540.93 325.7 544.38 325.41 547.71 325.41C553.65 325.41 558.46 326.39 562.15 328.35C565.83 330.31 567.68 332.89 567.68 336.1C567.68 339.31 566.31 342.49 563.58 345.28C560.84 348.08 556.98 350.49 551.99 352.51C550.8 351.67 549.73 350.72 548.78 349.65Z" fill="white"/>
<path d="M672.68 376.04L679.81 349.83V243.04H676.25L666.62 263.9L669.12 376.04H672.68Z" fill="white"/>
<path d="M766.46 376.4C772.17 374.86 776.8 372.78 780.37 370.16C782.03 365.05 783.19 360.56 783.85 356.7C784.5 352.84 784.83 349.12 784.83 345.56C784.83 341.28 783.94 336.89 782.16 332.37C780.38 327.86 777.37 322.54 773.16 316.41C768.94 310.29 763.2 302.83 755.96 294.04H752.39L745.44 309.55C754.47 318.35 761.42 325.6 766.3 331.3C771.17 337.01 774.56 341.76 776.46 345.56C778.36 349.36 779.43 352.93 779.67 356.26C777.17 357.57 773.67 358.82 769.15 360C764.63 361.19 758.87 361.78 751.86 361.78C745.68 361.78 741.01 361.36 737.86 360.53C734.71 359.7 732.6 358.21 731.53 356.07C730.46 353.93 729.93 350.9 729.93 346.98H726.36C725.65 350.19 725.14 352.84 724.84 354.91C724.54 356.99 724.39 358.8 724.39 360.35C724.39 366.65 726.32 371.29 730.18 374.26C734.04 377.23 740.07 378.72 748.28 378.72C754.7 378.72 760.76 377.95 766.47 376.4H766.46Z" fill="white"/>
<path d="M883.42 376.04H904.81C908.26 376.04 911.82 375.66 915.51 374.88C919.19 374.11 923.5 372.83 928.44 371.05C933.37 369.27 939.28 366.89 946.18 363.92C966.15 355.01 985.34 350.55 1003.77 350.55H1005.37L1008.76 333.61H999.85C996.88 333.61 993.85 333.25 990.76 332.54C987.67 331.83 984.04 330.55 979.88 328.71C975.72 326.87 970.43 324.4 964.01 321.31C955.81 317.27 949.33 314.3 944.58 312.4C939.83 310.5 935.72 309.55 932.28 309.55C927.17 309.55 923.1 311.1 920.07 314.19C917.04 317.28 915.52 322.45 915.52 329.7C915.52 332.08 915.7 334.69 916.06 337.54H919.63C920.34 330.17 924.44 326.49 931.93 326.49C933.95 326.49 936.54 326.94 939.69 327.83C942.84 328.72 947.33 330.53 953.15 333.27C959.69 336.24 965.24 338.74 969.82 340.76C974.39 342.78 978.58 344.33 982.39 345.39V346.1C976.09 346.58 970.03 347.44 964.2 348.69C958.37 349.94 951.96 351.45 944.94 353.24C938.88 354.67 933.83 355.83 929.79 356.72C925.75 357.61 922.09 358.24 918.83 358.59C915.56 358.95 912.08 359.13 908.4 359.13H833.52C827.34 359.13 823 358.03 820.51 355.83C818.01 353.63 816.77 349.8 816.77 344.33V243.06H813.2L803.57 263.92L805.89 344.33C806.13 352.29 807.05 358.59 808.65 363.23C810.25 367.87 812.78 371.16 816.23 373.12C819.68 375.08 824.25 376.06 829.96 376.06H851.35H883.44L883.42 376.04Z" fill="white"/>
<path d="M962.759 373.907L951.883 384.782L962.759 395.657L973.634 384.782L962.759 373.907Z" fill="white"/>
<path d="M1067.95 329.51C1065.69 323.44 1062.69 318.6 1058.94 314.98C1055.2 311.35 1051.01 309.54 1046.37 309.54C1043.16 309.54 1040.07 310.64 1037.1 312.84C1034.13 315.04 1031.42 317.95 1028.99 321.57C1026.55 325.2 1024.65 329.21 1023.28 333.61C1021.92 338 1021.23 342.46 1021.23 346.98C1021.23 353.87 1023.2 359.4 1027.12 363.56C1031.04 367.72 1036.63 369.8 1043.88 369.8C1046.85 369.8 1049.52 369.56 1051.9 369.08C1054.28 368.61 1056.77 367.72 1059.39 366.41L1065.45 352.15C1065.81 354.29 1065.98 356.43 1065.98 358.57C1065.98 369.15 1061.47 377.55 1052.43 383.79C1043.4 390.03 1028.84 394.46 1008.75 397.08V400.64L1037.99 415.26C1060.22 396.24 1071.33 374.38 1071.33 349.65C1071.33 342.28 1070.2 335.57 1067.95 329.51ZM1045.65 352.86C1039.82 352.86 1035.19 352.15 1031.74 350.72C1028.29 349.3 1026.57 346.74 1026.57 343.06C1026.57 340.2 1027.29 337.53 1028.71 335.03C1030.14 332.54 1032.04 330.49 1034.42 328.88C1036.79 327.28 1039.35 326.48 1042.08 326.48C1047.08 326.48 1051.68 328.68 1055.9 333.07C1060.12 337.47 1063.06 342.82 1064.73 349.12C1060.56 351.61 1054.21 352.86 1045.65 352.86Z" fill="white"/>
<path d="M128.89 440.92H99.4799V442.88L114.02 449.08L94.9099 514.6L73.1799 444.35H66.6399L45.0699 514.44L24.1599 443.53H39.5199V440.92H0.149902V443.53H9.77991L35.1099 528.98H43.5999L64.5199 461.83L85.2699 528.98H93.5999L117.45 449.25L128.89 442.88V440.92Z" fill="white"/>
<path d="M178.88 496.46C179.04 494.83 179.04 493.36 179.04 491.89C179.04 475.71 170.71 465.91 153.88 465.91C137.05 465.91 124.15 479.47 124.15 498.91C124.15 518.35 135.42 530.28 153.72 530.28C164.66 530.28 173.65 524.89 177.73 517.38L176.92 516.72C171.69 521.79 165.64 524.07 159.27 524.07C147.02 524.07 137.22 515.74 137.22 497.61V496.46H178.88ZM154.22 467.87C162.71 467.87 166.64 476.37 166.64 490.42V492.87L137.23 494.34C138.04 478 144.42 467.87 154.22 467.87Z" fill="white"/>
<path d="M244.07 496.46C244.23 494.83 244.23 493.36 244.23 491.89C244.23 475.71 235.9 465.91 219.07 465.91C202.24 465.91 189.34 479.47 189.34 498.91C189.34 518.35 200.61 530.28 218.91 530.28C229.85 530.28 238.84 524.89 242.92 517.38L242.11 516.72C236.88 521.79 230.83 524.07 224.46 524.07C212.21 524.07 202.41 515.74 202.41 497.61V496.46H244.07ZM219.4 467.87C227.89 467.87 231.81 476.37 231.81 490.42V492.87L202.41 494.34C203.22 478 209.59 467.87 219.4 467.87Z" fill="white"/>
<path d="M257.14 448.1L267.11 457.91L276.75 448.1L267.11 438.14L257.14 448.1Z" fill="white"/>
<path d="M251.75 472.28H261.55V526.85C261.55 542.86 259.59 548.91 251.58 559.04L252.56 560.18C261.55 553.65 268.08 547.27 271.51 540.25C274.12 535.19 274.29 530.77 274.29 522.28V466.4L251.74 470.81V472.28H251.75Z" fill="white"/>
<path d="M339.32 523.75V488.46C339.32 480.13 337.85 475.06 334.74 471.79C330.99 467.71 324.45 465.91 315.14 465.91C310.24 465.91 301.9 467.05 296.51 469.67C294.72 473.59 293.08 481.92 293.25 486.01L294.55 486.5L301.09 478.65C307.62 470.81 311.54 467.87 314.98 467.87C322.98 467.87 326.58 472.28 326.58 484.86V497.93L293.74 500.06C290.96 503.98 289.81 508.72 289.81 512.64C289.81 522.11 296.02 530.28 309.09 530.28C316.61 530.28 322.98 526.36 326.58 519.66C326.74 523.91 327.72 527.34 328.7 529.79L348.63 525.38V523.75H339.32ZM326.58 517.87C323.47 522.11 318.57 524.24 313.99 524.24C308.11 524.24 302.07 520.15 302.07 510.84C302.07 507.25 302.72 503.82 304.03 501.2H326.58V517.87Z" fill="white"/>
<path d="M411.86 523.75V436.5L388.5 440.59V442.38H399.12V471.79C395.2 468.2 389.97 465.91 382.94 465.91C366.77 465.91 355.17 479.15 355.17 500.06C355.17 517.38 363.01 530.28 380.16 530.28C387.52 530.28 395.52 526.53 399.12 517.87V529.79L421.17 525.38V523.75H411.86ZM399.12 514.6C396.67 521.13 391.27 523.91 385.88 523.91C374.61 523.91 369.05 514.27 369.05 499.73C369.05 480.29 377.39 470.49 388.17 470.49C391.93 470.49 395.85 471.63 399.12 474.08V514.6Z" fill="white"/>
<path d="M526.24 525.87L502.06 486.99C520.68 484.54 529.18 475.71 529.18 463.13C529.18 450.55 520.36 440.91 494.54 440.91H456.8V443.53H468.4V525.87H456.8V528.49H491.76V525.87H482.61V488.13H487.52L511.37 528.49H533.26V525.87H526.24ZM482.6 485.68V443.53H493.88C508.58 443.53 514.14 452.19 514.14 463.62C514.14 477.84 506.62 485.68 487.67 485.68H482.6Z" fill="white"/>
<path d="M590.28 496.46C590.45 494.83 590.45 493.36 590.45 491.89C590.45 475.71 582.11 465.91 565.29 465.91C548.47 465.91 535.55 479.47 535.55 498.91C535.55 518.35 546.82 530.28 565.12 530.28C576.07 530.28 585.05 524.89 589.14 517.38L588.32 516.72C583.09 521.79 577.05 524.07 570.68 524.07C558.42 524.07 548.62 515.74 548.62 497.61V496.46H590.28ZM565.6 467.87C574.1 467.87 578.02 476.37 578.02 490.42V492.87L548.61 494.34C549.43 478 555.8 467.87 565.6 467.87Z" fill="white"/>
<path d="M650.72 523.75V488.46C650.72 480.13 649.25 475.06 646.15 471.79C642.39 467.71 635.86 465.91 626.54 465.91C621.64 465.91 613.31 467.05 607.92 469.67C606.12 473.59 604.49 481.92 604.65 486.01L605.96 486.5L612.49 478.65C619.03 470.81 622.95 467.87 626.38 467.87C634.39 467.87 637.98 472.28 637.98 484.86V497.93L605.14 500.06C602.36 503.98 601.22 508.72 601.22 512.64C601.22 522.11 607.43 530.28 620.5 530.28C628.01 530.28 634.39 526.36 637.98 519.66C638.14 523.91 639.12 527.34 640.1 529.79L660.04 525.38V523.75H650.72ZM637.99 517.87C634.89 522.11 629.98 524.24 625.41 524.24C619.53 524.24 613.48 520.15 613.48 510.84C613.48 507.25 614.14 503.82 615.44 501.2H637.99V517.87Z" fill="white"/>
<path d="M686.02 436.5L662.98 440.59V442.39H673.28V526.36H663.64V528.49H695.49V526.36H686.02V436.5Z" fill="white"/>
<path d="M799.9 504.31L792.87 517.22C789.6 524.08 787.48 525.88 781.6 525.88H756.77V486.02H778.83L786.02 498.93H787.98V470.5H786.02L778.83 483.57H756.77V443.54H777.85C784.22 443.54 785.69 445.34 789.12 451.06L795.66 462.33H797.78C798.11 456.94 797.94 447.3 797.13 440.93H730.96V443.54H742.56V525.88H730.96V528.49H800.89C801.87 521.46 802.36 511.17 802.03 504.31H799.91H799.9Z" fill="white"/>
<path d="M842.86 492.38L833.71 489.11C827.5 486.82 823.42 484.7 823.42 479.47C823.42 472.61 829.14 467.87 836.98 467.87C843.84 467.87 847.11 470.97 850.7 477.35L854.78 484.21L856.41 484.05C856.74 477.51 856.41 473.59 855.92 469.18C852.49 467.55 845.3 465.91 837.29 465.91C824.22 465.91 814.58 473.43 814.58 485.52C814.58 489.61 815.72 493.2 818.34 495.81C820.95 498.59 824.88 500.55 830.1 502.51L838.76 505.61C846.28 508.39 850.03 510.67 850.03 516.07C850.03 522.77 844.96 528.16 836.47 528.16C829.28 528.16 825.85 524.89 820.3 515.09L816.71 508.88L815.08 509.21C814.75 515.42 815.08 521.95 815.57 526.36C820.96 528.97 829.46 530.28 836.16 530.28C849.56 530.28 860.18 522.11 860.18 509.86C860.18 505.94 858.71 502.67 856.59 500.22C853.49 496.62 848.26 494.5 842.87 492.38H842.86Z" fill="white"/>
<path d="M897.92 524.24C892.69 524.24 888.77 521.79 888.77 514.76V472.28H908.05V470.16H888.77V453.5H887.3L876.19 469.18L866.06 470.81V472.28H876.03V514.76C876.03 525.05 881.42 530.28 891.55 530.28C901.03 530.28 906.58 525.54 909.69 520.31L908.55 519.49C905.61 523.08 901.52 524.23 897.93 524.23L897.92 524.24Z" fill="white"/>
<path d="M964.58 523.75V488.46C964.58 480.13 963.11 475.06 960 471.79C956.25 467.71 949.71 465.91 940.4 465.91C935.5 465.91 927.16 467.05 921.77 469.67C919.98 473.59 918.34 481.92 918.51 486.01L919.81 486.5L926.35 478.65C932.88 470.81 936.8 467.87 940.24 467.87C948.24 467.87 951.84 472.28 951.84 484.86V497.93L919 500.06C916.22 503.98 915.07 508.72 915.07 512.64C915.07 522.11 921.28 530.28 934.35 530.28C941.87 530.28 948.24 526.36 951.84 519.66C952 523.91 952.98 527.34 953.96 529.79L973.89 525.38V523.75H964.58ZM951.84 517.87C948.73 522.11 943.83 524.24 939.26 524.24C933.37 524.24 927.33 520.15 927.33 510.84C927.33 507.25 927.98 503.82 929.29 501.2H951.84V517.87Z" fill="white"/>
<path d="M1008.7 524.24C1003.47 524.24 999.55 521.79 999.55 514.76V472.28H1018.83V470.16H999.55V453.5H998.08L986.97 469.18L976.84 470.81V472.28H986.81V514.76C986.81 525.05 992.2 530.28 1002.33 530.28C1011.81 530.28 1017.36 525.54 1020.47 520.31L1019.33 519.49C1016.39 523.08 1012.3 524.23 1008.71 524.23L1008.7 524.24Z" fill="white"/>
<path d="M1078.29 496.46C1078.45 494.83 1078.45 493.36 1078.45 491.89C1078.45 475.71 1070.12 465.91 1053.29 465.91C1036.46 465.91 1023.56 479.47 1023.56 498.91C1023.56 518.35 1034.83 530.28 1053.13 530.28C1064.08 530.28 1073.06 524.89 1077.15 517.38L1076.33 516.72C1071.1 521.79 1065.06 524.07 1058.69 524.07C1046.43 524.07 1036.63 515.74 1036.63 497.61V496.46H1078.29ZM1053.62 467.87C1062.12 467.87 1066.04 476.37 1066.04 490.42V492.87L1036.63 494.34C1037.45 478 1043.82 467.87 1053.62 467.87Z" fill="white"/>
</g>
<defs>
<clipPath id="clip0_275_422">
<rect width="1651" height="840" fill="white"/>
</clipPath>
</defs>
</svg>
