<svg width="691" height="222" viewBox="0 0 691 222" fill="none" xmlns="http://www.w3.org/2000/svg">
<path d="M20.2937 26.0613C23.5581 26.0613 25.2447 24.3747 25.2447 21.0014C25.2447 19.4781 24.8095 18.2811 23.9389 17.4106C23.0684 16.5401 21.8715 16.1049 20.3481 16.1049C18.8247 16.1049 17.6277 16.5401 16.7028 17.465C15.7779 18.3899 15.3427 19.5869 15.3427 21.0559C15.3427 22.6337 15.7779 23.885 16.7028 24.7555C17.6277 25.6804 18.8247 26.1157 20.3481 26.1157L20.2937 26.0613Z" fill="white"/>
<path d="M85.6357 79.271C85.6357 77.7476 85.2004 76.5507 84.3299 75.6801C83.4594 74.8096 82.2625 74.3744 80.7391 74.3744C77.4202 74.3744 75.7336 76.0066 75.7336 79.3254C75.7336 80.9032 76.1689 82.1546 77.0938 83.0251C78.0187 83.95 79.2157 84.3852 80.7391 84.3852C84.0035 84.3852 85.6901 82.6986 85.6901 79.3254L85.6357 79.271Z" fill="white"/>
<path d="M73.9388 79.271C73.9388 77.7476 73.5035 76.5507 72.633 75.6801C71.7625 74.8096 70.5656 74.3744 69.0422 74.3744C65.7234 74.3744 64.0367 76.0066 64.0367 79.3254C64.0367 80.9032 64.472 82.1546 65.3969 83.0251C66.3218 83.95 67.5188 84.3852 69.0422 84.3852C72.3066 84.3852 73.9932 82.6986 73.9932 79.3254L73.9388 79.271Z" fill="white"/>
<path d="M115.015 27.0948C118.28 27.0948 119.967 25.4082 119.967 22.0349C119.967 20.5115 119.531 19.3146 118.661 18.4441C117.79 17.5736 116.593 17.1383 115.07 17.1383C113.547 17.1383 112.35 17.5736 111.425 18.4985C110.5 19.4234 110.064 20.6204 110.064 22.0894C110.064 23.6672 110.5 24.9185 111.425 25.789C112.35 26.7139 113.547 27.1492 115.07 27.1492L115.015 27.0948Z" fill="white"/>
<path d="M157.29 75.6801C156.42 74.8096 155.223 74.3744 153.7 74.3744C150.381 74.3744 148.694 76.0066 148.694 79.3254C148.694 80.9032 149.129 82.1546 150.054 83.0251C150.979 83.95 152.176 84.3852 153.7 84.3852C156.964 84.3852 158.651 82.6986 158.651 79.3254C158.651 77.802 158.215 76.6051 157.345 75.7346L157.29 75.6801Z" fill="white"/>
<path d="M146.898 79.271C146.898 77.7476 146.463 76.5507 145.592 75.6801C144.722 74.8096 143.525 74.3744 142.001 74.3744C138.682 74.3744 136.996 76.0066 136.996 79.3254C136.996 80.9032 137.431 82.1546 138.356 83.0251C139.281 83.95 140.478 84.3852 142.001 84.3852C145.266 84.3852 146.952 82.6986 146.952 79.3254L146.898 79.271Z" fill="white"/>
<path d="M184.657 51.6867V18.4985L175.19 23.5584V51.5779C175.19 54.0262 174.7 55.7128 173.721 56.7466C172.742 57.7803 171.055 58.27 168.77 58.27H161.697C159.793 58.27 158.433 57.8347 157.617 57.0186C156.8 56.2025 156.42 54.788 156.42 52.8293V33.7869L146.844 38.7923V52.8293C146.844 54.788 146.463 56.2025 145.647 57.0186C144.831 57.8347 143.471 58.27 141.567 58.27H127.312C129.216 55.1688 130.196 52.0676 130.196 48.8576C130.196 44.4506 129.053 40.8054 126.768 37.8674C124.048 34.2766 120.185 32.4811 115.234 32.4811C110.881 32.4811 107.345 33.8957 104.679 36.6705C101.686 39.7716 100.217 43.8522 100.217 48.912C100.217 52.122 101.197 55.2232 103.101 58.3244H88.8463C86.9421 58.3244 85.5819 57.8891 84.7658 57.073C83.9497 56.2569 83.5688 54.8423 83.5688 52.8837V33.8413L73.9932 38.8467V52.8837C73.9932 54.8423 73.6124 56.2569 72.7963 57.073C71.9802 57.8891 70.62 58.3244 68.7158 58.3244H59.6298C57.7256 58.3244 56.3654 57.8891 55.5493 57.073C54.7332 56.2569 54.3524 54.8423 54.3524 52.8837V33.8413H54.2979V18.6074L44.8312 23.6672V51.6867C44.8312 54.135 44.3415 55.8217 43.3622 56.8554C42.3828 57.8891 40.6962 58.3788 38.4111 58.3788H31.3383C29.434 58.3788 28.0738 57.9435 27.2577 57.1274C26.4416 56.3113 26.0608 54.8967 26.0608 52.9381V33.8957H26.0064L22.742 35.6367L16.5396 38.9011V63.493C16.5396 66.7031 15.7779 69.1513 14.2001 70.9468C12.6767 72.7422 10.5004 73.6671 7.72567 73.6671C5.22295 73.6671 2.61141 72.9599 -0.00012207 71.4909V79.8151C3.04666 81.4473 6.14786 82.2634 9.35787 82.2634C13.4384 82.2634 16.9748 81.0121 19.9128 78.4549C23.1772 75.6258 25.0814 71.7629 25.7343 66.9207C27.2033 67.3559 28.7811 67.6279 30.5221 67.6279H39.0096C43.0357 67.6279 46.4634 66.5398 49.2381 64.3092C51.7408 66.5398 54.9508 67.6279 58.8681 67.6279H69.8039C73.5036 67.6279 76.5504 66.6487 78.9987 64.69C81.447 66.6487 84.4938 67.6279 88.1934 67.6279H109.467C111.969 67.6279 113.982 67.4647 115.56 67.0839C117.029 67.4647 119.042 67.6279 121.654 67.6279H142.818C146.518 67.6279 149.564 66.6487 152.013 64.69C154.461 66.6487 157.508 67.6279 161.207 67.6279H169.695C174.265 67.6279 177.91 66.2678 180.631 63.6018C183.623 60.6639 185.092 56.7466 185.092 51.85L184.657 51.6867ZM119.26 53.6998C118.172 55.3864 116.757 56.6378 115.07 57.4539C113.384 56.6922 112.024 55.4952 110.99 53.7542C109.902 52.0676 109.412 50.2178 109.412 48.2591C109.412 43.6345 111.316 41.3495 115.179 41.3495C116.975 41.3495 118.335 41.9479 119.369 43.1993C120.402 44.4506 120.946 46.1372 120.946 48.3135C120.946 50.1634 120.402 51.9588 119.314 53.6454L119.26 53.6998Z" fill="white"/>
<path d="M231.338 75.2448C231.338 78.1284 232.752 79.5974 235.582 79.5974C238.411 79.5974 239.825 78.1284 239.825 75.2448C239.825 72.3613 238.411 71.0011 235.582 71.0011C232.752 71.0011 231.338 72.4157 231.338 75.2448Z" fill="white"/>
<path d="M286.125 79.271C286.125 77.7476 285.69 76.5507 284.82 75.6801C283.949 74.8096 282.752 74.3744 281.229 74.3744C277.91 74.3744 276.223 76.0066 276.223 79.3254C276.223 80.9032 276.659 82.1546 277.584 83.0251C278.508 83.95 279.705 84.3852 281.229 84.3852C284.493 84.3852 286.18 82.6986 286.18 79.3254L286.125 79.271Z" fill="white"/>
<path d="M274.429 79.271C274.429 77.7476 273.993 76.5507 273.123 75.6801C272.252 74.8096 271.055 74.3744 269.532 74.3744C266.213 74.3744 264.526 76.0066 264.526 79.3254C264.526 80.9032 264.962 82.1546 265.887 83.0251C266.812 83.95 268.009 84.3852 269.532 84.3852C272.796 84.3852 274.483 82.6986 274.483 79.3254L274.429 79.271Z" fill="white"/>
<path d="M298.639 27.0948C301.904 27.0948 303.59 25.4082 303.59 22.0349C303.59 20.5115 303.155 19.3146 302.284 18.4441C301.414 17.5736 300.217 17.1383 298.694 17.1383C297.17 17.1383 295.973 17.5736 295.048 18.4985C294.123 19.4234 293.688 20.6204 293.688 22.0894C293.688 23.6672 294.123 24.9185 295.048 25.789C295.973 26.7139 297.17 27.1492 298.694 27.1492L298.639 27.0948Z" fill="white"/>
<path d="M310.228 27.0948C313.493 27.0948 315.18 25.4082 315.18 22.0349C315.18 20.5115 314.744 19.3146 313.874 18.4441C313.003 17.5736 311.806 17.1383 310.283 17.1383C308.759 17.1383 307.617 17.5736 306.692 18.4985C305.767 19.4234 305.277 20.6204 305.277 22.0894C305.277 23.5583 305.713 24.8097 306.638 25.789C307.563 26.7139 308.759 27.2036 310.283 27.2036L310.228 27.0948Z" fill="white"/>
<path d="M308.378 64.4725C310.827 66.4311 313.873 67.4104 317.573 67.4104H329.815C333.569 67.4104 336.616 66.3223 339.009 64.0916C341.403 66.3223 344.45 67.4104 348.204 67.4104H355.712C359.303 67.4104 362.187 66.2679 364.363 64.0916C366.757 66.3223 369.804 67.4104 373.558 67.4104H381.066C384.983 67.3016 388.084 66.1046 390.478 63.8196C393.199 61.2624 394.559 57.6716 394.559 53.2102V33.6781L384.983 38.6836V52.7205C384.983 54.6792 384.602 56.0938 383.786 56.9099C382.97 57.726 381.61 58.1612 379.706 58.1612H374.537C372.633 58.1612 371.218 57.726 370.402 56.9099C369.586 56.0938 369.151 54.6792 369.151 52.7205V35.6368L359.575 40.6966V52.6661C359.575 54.6248 359.194 56.0394 358.378 56.8555C357.562 57.6716 356.202 58.1068 354.298 58.1068H349.129C347.225 58.1068 345.865 57.6716 345.049 56.8555C344.232 56.0394 343.852 54.6248 343.852 52.6661V37.6499L334.276 42.6553V52.6661C334.276 54.6248 333.841 56.0394 333.025 56.8555C332.209 57.6716 330.794 58.1068 328.89 58.1068H318.552C316.648 58.1068 315.288 57.6716 314.472 56.8555C313.656 56.0394 313.275 54.6248 313.275 52.6661V33.6237L303.699 38.6292V52.6661C303.699 54.6248 303.319 56.0394 302.502 56.8555C301.686 57.6716 300.326 58.1068 298.422 58.1068H289.336C287.432 58.1068 286.072 57.6716 285.255 56.8555C284.439 56.0394 284.058 54.6248 284.058 52.6661V33.6237L274.483 38.6292V52.6661C274.483 54.6248 274.102 56.0394 273.286 56.8555C272.47 57.6716 271.11 58.1068 269.205 58.1068H261.969C257.617 58.1068 254.461 57.5083 252.502 56.3658C253.591 55.4409 254.57 54.2439 255.549 52.7205V48.9121C252.666 43.5802 249.347 39.4997 245.593 36.6161C241.839 33.7326 237.976 32.2635 234.004 32.2635C228.618 32.2635 223.884 34.6031 219.641 39.2277V47.6607C224.32 43.2537 228.781 41.0775 232.916 41.0775C237.813 41.0775 242.002 44.1243 245.538 50.2723C243.743 51.6868 240.587 52.9382 236.18 53.9719C231.338 55.1145 227.965 56.1482 226.061 56.9099C224.156 57.726 222.415 58.9229 220.783 60.5007C217.084 64.0916 215.234 69.0426 215.234 75.3538C215.234 81.665 216.975 86.2352 220.457 89.9349C224.102 93.7978 228.944 95.702 235.038 95.702C240.587 95.702 245.593 94.2874 250 91.4583V82.4267C245.647 85.147 240.968 86.5072 236.017 86.5072C228.291 86.5072 224.429 82.8075 224.429 75.4082C224.429 71.7085 225.517 68.8794 227.693 66.812C229.488 65.2342 232.753 63.9284 237.486 62.7858C241.186 61.9153 243.743 61.2624 245.158 60.7184C247.279 63.1123 249.619 64.7445 252.122 65.7238C254.624 66.7031 257.889 67.1928 261.969 67.1928H270.185C273.884 67.1928 276.931 66.2135 279.379 64.2548C281.828 66.2135 284.875 67.1928 288.574 67.1928H299.51C303.21 67.1928 306.256 66.2135 308.705 64.2548L308.378 64.4725Z" fill="white"/>
<path d="M445.592 74.3744C444.068 74.3744 442.872 74.8096 441.947 75.7346C441.022 76.6595 440.586 77.8564 440.586 79.3254C440.586 80.9032 441.022 82.1546 441.947 83.0251C442.872 83.95 444.068 84.3852 445.592 84.3852C448.856 84.3852 450.543 82.6986 450.543 79.3254C450.543 77.802 450.108 76.6051 449.237 75.7346C448.367 74.8641 447.17 74.4288 445.646 74.4288L445.592 74.3744Z" fill="white"/>
<path d="M441.621 38.738V52.775C441.621 54.7336 441.24 56.1482 440.424 56.9643C439.608 57.7804 438.247 58.2156 436.343 58.2156H427.257C425.353 58.2156 423.993 57.7804 423.177 56.9643C422.361 56.1482 421.98 54.7336 421.98 52.775V33.7325H421.925L418.661 35.4736L412.459 38.738V63.3299C412.459 66.5399 411.697 68.9882 410.119 70.7836C408.596 72.579 406.419 73.504 403.645 73.504C401.142 73.504 398.53 72.7967 395.919 71.3277V79.652C398.966 81.2842 402.067 82.1003 405.277 82.1003C409.357 82.1003 412.894 80.8489 415.832 78.2918C419.096 75.4626 421.001 71.5997 421.653 66.7575C423.122 67.1928 424.7 67.4648 426.441 67.4648H437.377C441.349 67.4648 444.613 66.3223 447.116 64.0372C449.945 61.4801 451.36 57.8892 451.36 53.2646V33.7325L441.784 38.738H441.621Z" fill="white"/>
<path d="M451.141 190.207V186.888H358.976V190.207H451.141Z" fill="white"/>
<path d="M92.7094 190.262V186.943H0.544083V190.262H92.7094Z" fill="white"/>
<path d="M12.9491 94.342C11.3713 94.342 9.08618 94.4508 6.0394 94.6684C2.99261 94.8861 1.19719 95.1037 0.544312 95.2125V139.336H9.68467V122.851C10.2831 123.232 11.9698 123.395 14.7989 123.395C18.3354 123.395 21.3821 122.47 23.9937 120.675C27.911 118.009 29.8696 113.82 29.8696 108.107C29.8696 98.9122 24.2113 94.2876 12.9491 94.2876V94.342ZM18.6074 114.201C17.5193 115.506 16.0503 116.214 14.2004 116.214C12.3506 116.214 10.8816 115.996 9.68467 115.506V102.177C10.1743 101.85 11.6433 101.687 14.0372 101.687C18.1721 101.687 20.2396 104.026 20.2396 108.76C20.2396 111.099 19.6955 112.895 18.6074 114.255V114.201Z" fill="white"/>
<path d="M52.4489 106.855C51.0343 106.855 49.6742 107.236 48.3684 107.943C47.0626 108.651 46.1377 109.521 45.7025 110.5L44.8864 107.726H37.4326V139.445H46.0833V116.703C46.845 115.071 47.9875 114.254 49.5653 114.254C51.3064 114.254 52.9386 115.125 54.462 116.92L61.8613 112.894C59.7938 108.923 56.6927 106.964 52.5033 106.964L52.4489 106.855Z" fill="white"/>
<path d="M78.6723 106.855C74.1566 106.855 70.4569 108.324 67.5189 111.316C64.2545 114.581 62.6223 118.716 62.6223 123.667C62.6223 128.618 64.0913 132.698 66.9749 135.582C70.0216 138.629 74.211 140.206 79.5973 140.206C84.6027 140.206 88.792 138.737 92.1653 135.745L89.9346 131.066C86.6158 132.916 83.4602 133.841 80.4134 133.841C78.2915 133.841 76.4417 133.133 74.8639 131.719C73.2861 130.304 72.4156 128.509 72.2523 126.387H94.0151V123.177C94.0151 118.552 92.8181 114.798 90.3698 111.915C87.5951 108.542 83.6778 106.801 78.6179 106.801L78.6723 106.855ZM71.7627 119.913C72.2523 115.342 74.5374 113.057 78.6179 113.057C82.6984 113.057 85.0379 115.342 85.2556 119.913H71.7627Z" fill="white"/>
<path d="M121.001 122.905C119.641 121.762 117.084 120.674 113.33 119.749C110.283 118.988 108.814 117.736 108.814 115.995C108.814 114.091 109.956 113.112 112.187 113.112C115.125 113.112 117.737 113.873 120.022 115.342L123.232 110.663C119.967 108.106 116.159 106.801 111.697 106.801C108.433 106.801 105.713 107.671 103.591 109.466C101.415 111.262 100.326 113.438 100.326 116.104C100.326 121.654 103.863 125.081 110.936 126.441C114.255 127.04 115.887 128.346 115.887 130.304C115.887 131.392 115.452 132.263 114.635 132.861C113.819 133.514 112.677 133.841 111.371 133.841C107.998 133.841 105.06 132.861 102.666 130.957L99.4559 135.854C102.938 138.737 107.236 140.206 112.296 140.206C115.887 140.206 118.716 139.336 120.838 137.54C122.96 135.799 123.993 133.405 123.993 130.413C123.993 127.04 123.014 124.537 121.055 122.851L121.001 122.905Z" fill="white"/>
<path d="M144.396 133.95C142.873 133.95 142.111 132.807 142.111 130.468V114.744H151.197V107.671H142.166V97.3339C138.575 99.1837 135.637 100.761 133.297 102.013V107.671H128.836V114.744H133.243V131.284C133.243 137.432 136.018 140.479 141.622 140.479C145.648 140.479 149.293 139.173 152.557 136.561L149.62 132.1C147.552 133.297 145.757 133.895 144.396 133.895V133.95Z" fill="white"/>
<path d="M162.948 94.0695C161.479 94.0695 160.282 94.6136 159.194 95.7017C158.16 96.7899 157.616 98.0956 157.616 99.5646C157.616 101.142 158.106 102.448 159.14 103.482C160.119 104.516 161.425 105.06 162.948 105.06C164.58 105.06 165.941 104.57 166.974 103.536C168.008 102.503 168.552 101.197 168.552 99.5646C168.552 98.0412 168.008 96.7355 166.92 95.6473C165.832 94.5592 164.526 94.0151 163.003 94.0151L162.948 94.0695Z" fill="white"/>
<path d="M167.573 107.671H158.705V139.391H167.573V107.671Z" fill="white"/>
<path d="M198.15 111.099C198.15 110.609 197.498 109.956 196.137 109.031C194.07 107.562 191.622 106.855 188.684 106.855C184.984 106.855 181.828 108.106 179.108 110.555C175.572 113.874 173.776 118.553 173.776 124.646C173.776 128.944 174.864 132.481 177.041 135.255C179.598 138.574 183.189 140.207 187.868 140.207C191.676 140.207 194.614 138.629 196.736 135.528C196.736 142.492 194.233 145.974 189.173 145.974C185.637 145.974 182.427 145.049 179.598 143.199L177.367 147.66C181.067 151.033 185.419 152.666 190.425 152.666C195.43 152.666 198.967 151.251 201.578 148.422C204.244 145.538 205.55 141.403 205.55 136.072V107.671H198.803L198.096 111.099H198.15ZM196.736 126.442C196.736 128.455 196.029 130.196 194.668 131.665C193.254 133.134 191.622 133.841 189.717 133.841C185.147 133.841 182.862 130.359 182.862 123.449C182.862 120.294 183.569 117.791 184.93 115.887C186.344 114.037 188.194 113.112 190.533 113.112C192.002 113.112 193.363 113.656 194.614 114.69C195.865 115.723 196.573 116.975 196.736 118.444V126.496V126.442Z" fill="white"/>
<path d="M229.054 106.855C224.538 106.855 220.838 108.324 217.9 111.316C214.636 114.581 213.004 118.716 213.004 123.667C213.004 128.618 214.473 132.698 217.356 135.582C220.403 138.629 224.592 140.206 229.979 140.206C234.984 140.206 239.173 138.737 242.546 135.745L240.316 131.066C236.997 132.916 233.841 133.841 230.795 133.841C228.673 133.841 226.823 133.133 225.245 131.719C223.667 130.304 222.797 128.509 222.634 126.387H244.396V123.177C244.396 118.552 243.199 114.798 240.751 111.915C237.976 108.542 234.059 106.801 228.999 106.801L229.054 106.855ZM222.144 119.913C222.634 115.342 224.919 113.057 228.999 113.057C233.08 113.057 235.419 115.342 235.637 119.913H222.144Z" fill="white"/>
<path d="M278.563 95.212H269.423V139.39H295.103V132.046H278.563V95.212Z" fill="white"/>
<path d="M314.853 106.855C310.337 106.855 306.638 108.324 303.7 111.316C300.435 114.581 298.803 118.716 298.803 123.667C298.803 128.618 300.272 132.698 303.156 135.582C306.202 138.629 310.392 140.206 315.778 140.206C320.783 140.206 324.973 138.737 328.346 135.745L326.115 131.066C322.797 132.916 319.641 133.841 316.594 133.841C314.472 133.841 312.622 133.133 311.045 131.719C309.467 130.304 308.596 128.509 308.433 126.387H330.196V123.177C330.196 118.552 328.999 114.798 326.551 111.915C323.776 108.542 319.859 106.801 314.799 106.801L314.853 106.855ZM307.943 119.913C308.433 115.342 310.718 113.057 314.799 113.057C318.879 113.057 321.219 115.342 321.436 119.913H307.943Z" fill="white"/>
<path d="M349.564 128.618L342.818 107.671H333.95L346.3 139.391H353.155C355.495 133.678 358.814 125.462 363.112 114.744L364.635 110.99L365.941 107.726H356.746L349.564 128.672V128.618Z" fill="white"/>
<path d="M385.038 106.855C380.522 106.855 376.822 108.324 373.884 111.316C370.62 114.581 368.988 118.716 368.988 123.667C368.988 128.618 370.457 132.698 373.34 135.582C376.387 138.629 380.576 140.206 385.962 140.206C390.968 140.206 395.157 138.737 398.53 135.745L396.3 131.066C392.981 132.916 389.825 133.841 386.779 133.841C384.657 133.841 382.807 133.133 381.229 131.719C379.651 130.304 378.781 128.509 378.618 126.387H400.38V123.177C400.38 118.552 399.183 114.798 396.735 111.915C393.96 108.542 390.043 106.801 384.983 106.801L385.038 106.855ZM378.128 119.913C378.618 115.342 380.903 113.057 384.983 113.057C389.064 113.057 391.403 115.342 391.621 119.913H378.128Z" fill="white"/>
<path d="M407.78 139.39H416.594V94.3414L407.78 98.966V139.39Z" fill="white"/>
<path d="M445.647 122.905C444.287 121.762 441.73 120.674 437.976 119.749C434.929 118.988 433.46 117.736 433.46 115.995C433.46 114.091 434.603 113.112 436.833 113.112C439.771 113.112 442.383 113.873 444.668 115.342L447.878 110.663C444.614 108.106 440.805 106.801 436.344 106.801C433.079 106.801 430.359 107.671 428.237 109.466C426.061 111.262 424.973 113.438 424.973 116.104C424.973 121.654 428.509 125.081 435.582 126.441C438.901 127.04 440.533 128.346 440.533 130.304C440.533 131.392 440.098 132.263 439.282 132.861C438.466 133.514 437.323 133.841 436.017 133.841C432.644 133.841 429.706 132.861 427.312 130.957L424.102 135.854C427.584 138.737 431.882 140.206 436.942 140.206C440.533 140.206 443.362 139.336 445.484 137.54C447.606 135.799 448.64 133.405 448.64 130.413C448.64 127.04 447.66 124.537 445.702 122.851L445.647 122.905Z" fill="white"/>
<path d="M123.503 167.9L137.812 201.524H134.113L129.325 190.153H113.71L108.977 201.524H104.679L119.695 167.9H123.449H123.503ZM115.125 187.16H128.128L121.708 171.763L115.179 187.16H115.125Z" fill="white"/>
<path d="M167.193 198.314V201.524H157.563C154.951 201.524 152.829 200.816 151.251 199.347C149.674 197.878 148.858 195.865 148.858 193.254V167.9H152.231V193.852C152.231 194.995 152.775 196.137 153.917 197.28C154.625 197.987 155.876 198.314 157.617 198.314H167.247H167.193Z" fill="white"/>
<path d="M203.645 167.9V201.524H199.891L180.576 172.253V201.524H177.094V167.9H181.664L200.217 196.137V167.9H203.645Z" fill="white"/>
<path d="M241.675 189.173V201.469H238.465V197.606C235.745 200.708 232.426 202.177 228.509 202.068C225.027 201.905 222.089 200.599 219.749 198.096C217.355 195.539 216.104 192.492 216.104 189.065C216.104 185.419 217.41 182.318 219.967 179.707C222.524 177.095 225.625 175.844 229.271 176.007C232.807 176.17 235.745 177.476 238.193 180.033C240.642 182.59 241.784 185.583 241.675 189.01V189.173ZM222.252 182.046C220.402 183.896 219.477 186.127 219.423 188.793C219.368 191.458 220.239 193.798 221.98 195.702C223.775 197.606 225.952 198.64 228.509 198.803C231.229 198.912 233.569 197.987 235.527 195.974C237.486 193.961 238.411 191.567 238.356 188.738C238.356 186.181 237.377 183.95 235.582 181.992C233.786 180.142 231.61 179.217 229.053 179.217C226.496 179.217 224.156 180.142 222.306 181.992L222.252 182.046Z" fill="white"/>
<path d="M257.126 186.616V201.524H253.644V176.606H256.745V180.142C257.398 178.836 258.432 177.802 259.846 177.041C261.098 176.388 262.403 176.116 263.709 176.116V179.435C262.186 179.435 260.934 179.87 259.955 180.686C259.03 181.448 258.377 182.155 257.996 182.753C257.452 183.678 257.18 184.984 257.18 186.616H257.126Z" fill="white"/>
<path d="M275.952 209.195L275.027 209.358V206.039C276.115 205.931 276.877 205.495 277.367 204.679C277.693 204.135 277.856 203.101 277.856 201.524V176.551H281.229V202.122C281.229 204.462 280.794 206.094 280.033 206.964C279.053 208.107 277.747 208.814 276.006 209.141L275.952 209.195ZM281.284 167.846V173.722H277.856V167.846H281.284Z" fill="white"/>
<path d="M315.287 193.363H318.824C317.899 196.029 316.321 198.151 314.09 199.728C311.859 201.252 309.411 202.068 306.691 202.122C303.263 202.177 300.216 200.925 297.659 198.423C294.993 195.811 293.688 192.764 293.633 189.282C293.524 185.528 294.83 182.373 297.55 179.652C300.325 176.932 303.535 175.68 307.18 175.898C310.554 176.116 313.437 177.476 315.831 179.979C318.171 182.481 319.368 185.256 319.368 188.357V190.153H297.006C297.278 192.71 298.312 194.777 300.216 196.355C302.121 197.987 304.351 198.803 306.8 198.749C310.717 198.749 313.492 196.899 315.233 193.308L315.287 193.363ZM297.061 187.16H316.158C315.668 184.821 314.58 182.971 312.893 181.502C311.207 180.087 309.139 179.326 306.745 179.271C304.406 179.271 302.284 179.979 300.434 181.393C298.693 182.808 297.55 184.712 297.061 187.106V187.16Z" fill="white"/>
<path d="M334.602 194.124V194.94C334.602 195.757 335.091 196.627 336.016 197.552C336.941 198.477 337.921 198.912 339.009 198.858C340.423 198.803 341.566 198.368 342.328 197.606C343.035 196.899 343.416 195.92 343.47 194.614C343.47 192.492 342.273 191.023 339.825 190.261L336.887 189.337C333.84 188.357 332.208 186.29 332.099 183.08C331.99 181.175 332.643 179.489 334.003 178.129C335.418 176.769 337.104 176.007 339.009 175.952C340.695 175.844 342.273 176.442 343.742 177.639C345.211 178.782 346.027 180.251 346.136 181.992V182.753H342.708V182.209C342.708 181.339 342.327 180.686 341.62 180.087C340.913 179.543 340.042 179.271 339.063 179.271C338.084 179.271 337.268 179.652 336.615 180.251C335.962 180.903 335.581 181.72 335.581 182.644C335.472 184.44 336.506 185.691 338.791 186.453L341.675 187.432C344.993 188.575 346.789 190.806 347.007 194.07C347.17 196.301 346.408 198.259 344.667 199.946C342.926 201.524 340.913 202.285 338.628 202.177C336.615 202.068 334.819 201.197 333.35 199.619C331.936 198.096 331.229 196.246 331.229 194.124H334.656H334.602Z" fill="white"/>
<path d="M653.917 147.932V129.434H653.699C653.699 119.205 645.429 110.935 635.201 110.935H540.043C529.869 110.935 521.653 102.72 521.545 92.6003C521.545 92.7635 521.545 92.9267 521.545 93.0899V91.8386C521.218 81.9366 513.057 73.9932 503.046 73.9932H484.548V110.99H503.046C513.057 110.99 521.218 118.933 521.545 128.835C521.545 128.998 521.545 129.162 521.545 129.325V129.651C521.599 139.771 529.869 147.987 540.043 147.987H653.917V147.932Z" fill="white"/>
<path d="M629.76 73.939V55.4406H629.542C629.542 45.2121 621.272 36.9423 611.044 36.9423H540.043C529.869 36.9423 521.653 28.7269 521.545 18.6072C521.545 18.7704 521.545 18.9336 521.545 19.0968V17.8455C521.218 7.94344 513.057 0 503.046 0H484.548V36.9967H503.046C513.057 36.9967 521.218 44.9401 521.545 54.8421C521.545 55.0054 521.545 55.1686 521.545 55.3318V55.6583C521.599 65.7779 529.869 73.9934 540.043 73.9934H629.76V73.939Z" fill="white"/>
<path d="M690.859 221.925V203.427C690.859 193.198 682.589 184.929 672.36 184.929H539.988C529.76 184.929 521.49 176.659 521.49 166.43C521.49 166.648 521.49 166.866 521.49 167.083V165.832C521.164 155.93 513.003 147.986 502.992 147.986H484.493V184.983H502.992C513.003 184.983 521.164 192.926 521.49 202.828C521.49 203.046 521.49 203.264 521.49 203.481C521.49 213.71 529.76 221.98 539.988 221.98H690.859V221.925Z" fill="white"/>
</svg>
