<?xml version="1.0" encoding="UTF-8"?>
<svg xmlns="http://www.w3.org/2000/svg" xmlns:xlink="http://www.w3.org/1999/xlink" width="450pt" height="111.91pt" viewBox="0 0 450 111.91" version="1.1">
<defs>
<clipPath id="clip1">
  <path d="M 85 82 L 106 82 L 106 111.910156 L 85 111.910156 Z M 85 82 "/>
</clipPath>
</defs>
<g id="surface1">
<path style=" stroke:none;fill-rule:nonzero;fill:rgb(9.803772%,83.135986%,77.645874%);fill-opacity:1;" d="M 27.433594 -0.0078125 L 27.433594 27.425781 L 0 27.425781 L 25.144531 -0.0078125 Z M 27.433594 -0.0078125 "/>
<path style=" stroke:none;fill-rule:nonzero;fill:rgb(0%,38.430786%,36.077881%);fill-opacity:1;" d="M 0 54.859375 L 0 27.425781 L 27.429688 27.425781 L 2.285156 54.859375 Z M 0 54.859375 "/>
<g clip-path="url(#clip1)" clip-rule="nonzero">
<path style=" stroke:none;fill-rule:nonzero;fill:rgb(32.940674%,34.117126%,35.293579%);fill-opacity:1;" d="M 85.777344 92.582031 C 85.777344 98.363281 89.542969 102.207031 94.742188 102.207031 C 96.570313 102.207031 98.042969 102.207031 100.296875 101.972656 C 100.136719 105.3125 98.199219 107.175781 94.667969 107.175781 C 93.152344 107.175781 91.214844 106.785156 89.039063 106.4375 L 88.558594 108.863281 L 90.363281 111.320313 C 91.90625 111.660156 93.488281 111.910156 94.820313 111.910156 C 102.078125 111.910156 105.6875 107.640625 105.6875 101.625 L 105.6875 83.695313 C 103.359375 83.503906 100.839844 82.804688 95.09375 82.804688 C 89.152344 82.804688 85.816406 86.683594 85.777344 92.582031 M 100.296875 87.5 L 100.296875 97.394531 C 98.082031 97.746094 96.800781 97.703125 95.597656 97.703125 C 92.84375 97.703125 91.054688 95.492188 91.054688 92.738281 C 91.054688 89.632813 92.296875 87.265625 95.949219 87.265625 C 97.65625 87.265625 99.050781 87.382813 100.296875 87.5 "/>
</g>
<path style=" stroke:none;fill-rule:nonzero;fill:rgb(32.940674%,34.117126%,35.293579%);fill-opacity:1;" d="M 49.496094 83.386719 L 43.054688 83.386719 L 37 90.058594 L 35.875 90.058594 L 35.875 74.421875 L 32.933594 74.421875 L 30.480469 77.097656 L 30.480469 101.976563 L 35.875 101.976563 L 35.875 95.066406 L 38.863281 95.066406 L 43.714844 101.976563 L 49.925781 101.976563 L 42.472656 91.144531 "/>
<path style=" stroke:none;fill-rule:nonzero;fill:rgb(32.940674%,34.117126%,35.293579%);fill-opacity:1;" d="M 55.535156 73.992188 C 53.59375 73.992188 52.082031 75.46875 52.082031 77.449219 C 52.082031 79.390625 53.59375 80.824219 55.535156 80.824219 C 57.4375 80.824219 58.988281 79.390625 58.988281 77.449219 C 58.988281 75.46875 57.4375 73.992188 55.535156 73.992188 "/>
<path style=" stroke:none;fill-rule:nonzero;fill:rgb(32.940674%,34.117126%,35.293579%);fill-opacity:1;" d="M 52.839844 86.0625 L 52.839844 101.976563 L 58.234375 101.976563 L 58.234375 83.386719 L 55.289063 83.386719 "/>
<path style=" stroke:none;fill-rule:nonzero;fill:rgb(32.940674%,34.117126%,35.293579%);fill-opacity:1;" d="M 74.226563 82.804688 C 70.65625 82.804688 68.027344 83.035156 65.617188 83.382813 L 63.167969 86.0625 L 63.167969 101.972656 L 68.558594 101.972656 L 68.558594 87.964844 C 70.113281 87.808594 71.585938 87.695313 72.945313 87.695313 C 75.117188 87.695313 76.671875 89.167969 76.671875 91.535156 L 76.671875 101.972656 L 82.0625 101.972656 L 82.0625 89.945313 C 82.0625 85.636719 78.921875 82.804688 74.226563 82.804688 "/>
<path style=" stroke:none;fill-rule:nonzero;fill:rgb(32.940674%,34.117126%,35.293579%);fill-opacity:1;" d="M 440.296875 35.746094 C 440.261719 35.746094 440.234375 35.746094 440.199219 35.746094 C 440.167969 35.746094 440.140625 35.746094 440.109375 35.746094 C 434.433594 35.765625 430.5625 39.351563 430.402344 44.710938 L 430.402344 45.042969 C 430.402344 46.855469 429.789063 49.996094 425.6875 49.996094 L 424.949219 49.996094 C 420.859375 49.996094 420.246094 46.820313 420.242188 45.003906 C 420.242188 39.265625 415.972656 35.738281 409.613281 35.738281 C 407.648438 35.738281 405.273438 36.097656 403.554688 36.648438 L 396.164063 38.910156 L 396.164063 27.449219 L 393.261719 27.449219 L 390.8125 30.125 L 390.8125 49.996094 L 386.65625 49.996094 C 382.554688 49.996094 381.980469 46.960938 381.980469 45.148438 L 381.980469 27.449219 L 379.078125 27.449219 L 376.625 30.125 L 376.625 45.472656 C 376.664063 51.175781 380.582031 55.003906 386.371094 55.003906 L 409.824219 55.003906 C 412.960938 55.003906 415.597656 53.957031 417.441406 52.183594 C 419.15625 53.960938 421.636719 55.003906 424.632813 55.003906 L 426.007813 55.003906 C 428.902344 55.003906 431.332031 54.042969 433.039063 52.371094 C 434.753906 54.039063 437.203125 55.003906 440.148438 55.003906 C 444.59375 55.003906 450 53.902344 450 53.902344 L 450 44.960938 C 449.960938 39.457031 446.058594 35.765625 440.296875 35.746094 M 409.789063 49.996094 L 396.164063 49.996094 L 396.164063 43.703125 L 404.78125 41.367188 C 406.488281 40.984375 408.257813 40.75 409.507813 40.75 C 412.828125 40.75 414.890625 42.503906 414.890625 45.324219 C 414.890625 48.082031 412.890625 49.996094 409.789063 49.996094 M 444.648438 49.996094 L 440.46875 49.996094 C 436.367188 49.996094 435.753906 47.226563 435.753906 45.546875 L 435.753906 45.226563 C 435.753906 43.585938 436.359375 40.882813 440.199219 40.75 C 444.039063 40.882813 444.648438 43.585938 444.648438 45.226563 "/>
<path style=" stroke:none;fill-rule:nonzero;fill:rgb(32.940674%,34.117126%,35.293579%);fill-opacity:1;" d="M 364.175781 63.96875 C 368.746094 62.859375 371.558594 59.09375 371.558594 53.722656 L 371.558594 35.746094 L 368.660156 35.746094 L 366.207031 38.421875 L 366.207031 54.863281 C 366.207031 55.292969 366.175781 55.742188 366 56.136719 C 365.332031 57.644531 363.652344 58.617188 361.84375 58.992188 L 360.175781 59.347656 L 360.734375 61.964844 "/>
<path style=" stroke:none;fill-rule:nonzero;fill:rgb(32.940674%,34.117126%,35.293579%);fill-opacity:1;" d="M 350.144531 27.449219 L 347.246094 27.449219 L 344.792969 30.125 L 344.792969 55.003906 L 350.144531 55.003906 "/>
<path style=" stroke:none;fill-rule:nonzero;fill:rgb(32.940674%,34.117126%,35.293579%);fill-opacity:1;" d="M 329.980469 55.003906 C 335.769531 55.003906 339.6875 50.933594 339.726563 44.886719 L 339.726563 27.453125 L 336.828125 27.453125 L 334.375 30.128906 L 334.378906 44.859375 C 334.378906 46.78125 333.761719 49.996094 329.660156 49.996094 L 326.144531 49.996094 L 326.144531 44.960938 C 326.101563 39.457031 322.203125 35.765625 316.4375 35.75 C 316.40625 35.746094 316.378906 35.746094 316.34375 35.746094 C 316.308594 35.746094 316.285156 35.746094 316.253906 35.75 C 310.578125 35.765625 306.707031 39.351563 306.546875 44.710938 L 306.546875 45.042969 C 306.546875 46.855469 305.933594 49.996094 301.832031 49.996094 L 301.09375 49.996094 C 297.003906 49.996094 296.390625 46.820313 296.386719 45.007813 L 296.367188 42.472656 L 296.367188 27.453125 L 293.464844 27.453125 L 291.011719 30.128906 L 291.011719 45.324219 C 291.011719 48.085938 289.03125 49.996094 285.933594 49.996094 L 284.910156 49.996094 C 280.824219 49.996094 280.210938 46.820313 280.207031 45.007813 L 280.183594 42.472656 L 280.183594 27.453125 L 277.285156 27.453125 L 274.832031 30.128906 L 274.832031 45.324219 C 274.832031 48.085938 272.851563 49.996094 269.75 49.996094 L 259.1875 49.996094 C 256.304688 49.996094 254.339844 47.972656 254.339844 45.609375 C 254.339844 43.902344 254.867188 41.621094 255.265625 40.425781 L 255.726563 39.046875 L 253.164063 38.492188 L 249.71875 40.757813 C 249.230469 42.308594 248.984375 43.855469 248.984375 45.378906 C 248.984375 51.269531 253.144531 54.996094 259.578125 54.996094 L 269.789063 55.003906 C 272.921875 55.003906 275.5625 53.957031 277.40625 52.183594 C 279.121094 53.960938 281.597656 55.003906 284.59375 55.003906 L 285.96875 55.003906 C 289.101563 55.003906 291.742188 53.957031 293.585938 52.183594 C 295.300781 53.960938 297.777344 55.003906 300.773438 55.003906 L 302.148438 55.003906 C 305.046875 55.003906 307.476563 54.042969 309.183594 52.371094 C 310.894531 54.039063 313.347656 55.003906 316.292969 55.003906 Z M 320.792969 49.996094 L 316.613281 49.996094 C 312.511719 49.996094 311.898438 47.230469 311.898438 45.546875 L 311.898438 45.226563 C 311.898438 43.585938 312.503906 40.882813 316.34375 40.75 C 320.183594 40.882813 320.792969 43.585938 320.792969 45.226563 "/>
<path style=" stroke:none;fill-rule:nonzero;fill:rgb(32.940674%,34.117126%,35.293579%);fill-opacity:1;" d="M 263.304688 40.082031 L 268.988281 40.082031 L 270.035156 38.933594 L 270.035156 38.160156 L 265.398438 38.160156 L 265.398438 36.757813 C 265.398438 35.507813 266.207031 34.734375 267.507813 34.734375 C 268.523438 34.734375 269.542969 35.078125 269.542969 35.078125 L 269.722656 34.40625 L 268.941406 33.058594 C 268.269531 32.828125 268.230469 32.765625 267.464844 32.765625 C 264.976563 32.765625 263.304688 34.363281 263.304688 36.746094 L 263.304688 38.160156 L 261.125 38.160156 L 261.125 38.933594 L 262.171875 40.082031 "/>
<path style=" stroke:none;fill-rule:nonzero;fill:rgb(32.940674%,34.117126%,35.293579%);fill-opacity:1;" d="M 223.992188 32.914063 C 225.773438 32.914063 227.171875 31.535156 227.171875 29.769531 C 227.171875 27.984375 225.773438 26.589844 223.992188 26.589844 C 222.210938 26.589844 220.8125 27.984375 220.8125 29.769531 C 220.8125 31.535156 222.210938 32.914063 223.992188 32.914063 "/>
<path style=" stroke:none;fill-rule:nonzero;fill:rgb(32.940674%,34.117126%,35.293579%);fill-opacity:1;" d="M 183.171875 55.003906 L 189.210938 55.003906 C 195 55.003906 198.914063 51.175781 198.957031 45.472656 L 198.957031 27.453125 L 196.058594 27.453125 L 193.601563 30.128906 L 193.601563 45.148438 C 193.601563 46.960938 193.027344 49.996094 188.925781 49.996094 L 181.710938 49.996094 C 181.832031 49.496094 181.90625 48.976563 181.90625 48.429688 L 181.90625 48.15625 C 181.90625 33.179688 167.609375 35.839844 165.921875 36.417969 L 163.964844 39.792969 L 164.421875 41.480469 C 164.421875 41.480469 176.652344 37.136719 176.652344 48.191406 L 176.652344 49.996094 L 161.765625 49.996094 L 161.765625 52.113281 L 164.390625 55.003906 L 175.125 55.003906 C 176.660156 55.003906 178.078125 54.519531 179.214844 53.699219 C 180.324219 54.511719 181.683594 55.003906 183.171875 55.003906 "/>
<path style=" stroke:none;fill-rule:nonzero;fill:rgb(32.940674%,34.117126%,35.293579%);fill-opacity:1;" d="M 220.121094 36.613281 C 218.308594 37.273438 218.304688 37.601563 216.917969 38.71875 L 216.230469 42.5625 L 217.234375 43.988281 C 217.234375 43.988281 219.191406 42.039063 221.585938 41.167969 C 224.648438 40.054688 228.394531 41.1875 229.464844 44.125 L 231.660156 49.996094 L 213.914063 49.996094 C 209.816406 49.996094 209.238281 46.960938 209.238281 45.148438 L 209.238281 27.449219 L 206.339844 27.449219 L 203.886719 30.125 L 203.886719 45.46875 C 203.925781 51.175781 207.84375 55.003906 213.632813 55.003906 L 234.738281 55.003906 L 237.238281 52.710938 L 237.238281 49.929688 L 234.507813 42.421875 C 232.46875 36.816406 225.980469 34.480469 220.121094 36.613281 "/>
<path style=" stroke:none;fill-rule:nonzero;fill:rgb(32.940674%,34.117126%,35.293579%);fill-opacity:1;" d="M 155.300781 82.804688 C 153.59375 82.804688 151.578125 82.996094 149.597656 83.269531 L 149.597656 74.421875 L 146.679688 74.421875 L 144.242188 77.078125 L 144.242188 101.972656 L 149.597656 101.972656 L 149.597656 88.15625 C 151.191406 87.886719 152.664063 87.695313 154.019531 87.695313 C 156.15625 87.695313 157.710938 89.167969 157.710938 91.535156 L 157.710938 101.972656 L 163.105469 101.972656 L 163.105469 89.945313 C 163.105469 85.636719 159.960938 82.804688 155.300781 82.804688 "/>
<path style=" stroke:none;fill-rule:nonzero;fill:rgb(32.940674%,34.117126%,35.293579%);fill-opacity:1;" d="M 204.839844 73.992188 C 202.898438 73.992188 201.386719 75.46875 201.386719 77.449219 C 201.386719 79.390625 202.898438 80.824219 204.839844 80.824219 C 206.742188 80.824219 208.292969 79.390625 208.292969 77.449219 C 208.292969 75.46875 206.742188 73.992188 204.839844 73.992188 "/>
<path style=" stroke:none;fill-rule:nonzero;fill:rgb(32.940674%,34.117126%,35.293579%);fill-opacity:1;" d="M 202.140625 86.0625 L 202.140625 101.976563 L 207.535156 101.976563 L 207.535156 83.386719 L 204.59375 83.386719 "/>
<path style=" stroke:none;fill-rule:nonzero;fill:rgb(32.940674%,34.117126%,35.293579%);fill-opacity:1;" d="M 140.75 83.386719 L 134.308594 83.386719 L 128.253906 90.058594 L 127.128906 90.058594 L 127.128906 74.421875 L 124.1875 74.421875 L 121.734375 77.097656 L 121.734375 101.976563 L 127.128906 101.976563 L 127.128906 95.066406 L 130.113281 95.066406 L 134.964844 101.976563 L 141.175781 101.976563 L 133.726563 91.144531 "/>
<path style=" stroke:none;fill-rule:nonzero;fill:rgb(32.940674%,34.117126%,35.293579%);fill-opacity:1;" d="M 191.796875 77.097656 L 191.796875 101.972656 L 197.1875 101.972656 L 197.1875 74.421875 L 194.246094 74.421875 "/>
<path style=" stroke:none;fill-rule:nonzero;fill:rgb(32.940674%,34.117126%,35.293579%);fill-opacity:1;" d="M 225.796875 77.097656 L 225.800781 83.230469 C 224.519531 82.996094 222.460938 82.804688 221.023438 82.804688 C 214.546875 82.804688 211.363281 86.683594 211.320313 92.503906 C 211.320313 98.988281 215.28125 102.402344 220.25 102.402344 C 223.042969 102.402344 225.332031 102.4375 231.191406 101.703125 L 231.191406 74.421875 L 228.25 74.421875 Z M 225.800781 97.746094 C 223.585938 97.976563 222.113281 98.054688 221.492188 98.054688 C 218.113281 98.054688 216.5625 95.84375 216.5625 92.503906 C 216.5625 89.515625 217.804688 87.265625 221.761719 87.265625 C 222.808594 87.265625 224.480469 87.421875 225.800781 87.695313 "/>
<path style=" stroke:none;fill-rule:nonzero;fill:rgb(32.940674%,34.117126%,35.293579%);fill-opacity:1;" d="M 166.882813 92.582031 L 166.882813 92.777344 C 167 98.675781 170.300781 102.558594 176.199219 102.558594 C 180.15625 102.558594 182.328125 102.246094 186.789063 101.664063 L 186.789063 83.695313 C 182.328125 83.113281 180.15625 82.804688 176.199219 82.804688 C 170.300781 82.804688 167 86.683594 166.882813 92.582031 M 181.398438 87.5 L 181.398438 97.859375 C 180.15625 97.976563 178.757813 98.09375 177.050781 98.09375 C 173.464844 98.09375 172.179688 95.753906 172.164063 92.679688 C 172.179688 89.605469 173.464844 87.265625 177.050781 87.265625 C 178.757813 87.265625 180.15625 87.382813 181.398438 87.5 "/>
<path style=" stroke:none;fill-rule:nonzero;fill:rgb(32.940674%,34.117126%,35.293579%);fill-opacity:1;" d="M 408.078125 82.570313 C 401.792969 82.570313 397.5625 86.566406 397.5625 92.542969 C 397.5625 98.597656 401.792969 102.671875 408.078125 102.671875 C 414.328125 102.671875 418.519531 98.597656 418.519531 92.542969 C 418.519531 86.566406 414.328125 82.570313 408.078125 82.570313 M 408.078125 97.859375 C 405.011719 97.859375 402.914063 95.726563 402.914063 92.542969 C 402.914063 89.4375 405.011719 87.382813 408.078125 87.382813 C 411.144531 87.382813 413.199219 89.4375 413.199219 92.542969 C 413.199219 95.726563 411.144531 97.859375 408.078125 97.859375 "/>
<path style=" stroke:none;fill-rule:nonzero;fill:rgb(32.940674%,34.117126%,35.293579%);fill-opacity:1;" d="M 362.035156 83.609375 L 359.585938 86.277344 L 359.585938 101.976563 L 364.980469 101.976563 L 364.980469 88.3125 C 367.113281 88.121094 369.328125 88.082031 371.578125 88.082031 L 371.578125 82.800781 C 369.613281 82.800781 367.246094 82.980469 364.941406 83.238281 C 363.945313 83.347656 362.964844 83.472656 362.035156 83.609375 "/>
<path style=" stroke:none;fill-rule:nonzero;fill:rgb(32.940674%,34.117126%,35.293579%);fill-opacity:1;" d="M 424.914063 83.609375 L 422.46875 86.277344 L 422.46875 101.976563 L 427.863281 101.976563 L 427.863281 88.3125 C 429.996094 88.121094 432.210938 88.082031 434.460938 88.082031 L 434.460938 82.800781 C 432.492188 82.800781 430.125 82.980469 427.820313 83.238281 C 426.824219 83.347656 425.847656 83.472656 424.914063 83.609375 "/>
<path style=" stroke:none;fill-rule:nonzero;fill:rgb(32.940674%,34.117126%,35.293579%);fill-opacity:1;" d="M 351.957031 73.992188 C 350.019531 73.992188 348.503906 75.46875 348.503906 77.449219 C 348.503906 79.390625 350.019531 80.824219 351.957031 80.824219 C 353.859375 80.824219 355.410156 79.390625 355.410156 77.449219 C 355.410156 75.46875 353.859375 73.992188 351.957031 73.992188 "/>
<path style=" stroke:none;fill-rule:nonzero;fill:rgb(32.940674%,34.117126%,35.293579%);fill-opacity:1;" d="M 349.261719 86.0625 L 349.261719 101.976563 L 354.65625 101.976563 L 354.65625 83.386719 L 351.714844 83.386719 "/>
<path style=" stroke:none;fill-rule:nonzero;fill:rgb(32.940674%,34.117126%,35.293579%);fill-opacity:1;" d="M 445.84375 97.746094 C 443.746094 97.746094 442.933594 96.542969 442.933594 94.484375 L 442.933594 88.082031 L 448.792969 88.082031 L 448.792969 82.804688 L 442.933594 82.804688 L 442.933594 76.75 L 439.992188 76.75 L 437.539063 79.425781 L 437.539063 95.335938 L 437.558594 95.335938 C 437.675781 99.980469 440.242188 102.554688 444.679688 102.554688 C 447.160156 102.554688 448.132813 102.363281 449.996094 101.933594 L 449.492188 97.472656 C 447.976563 97.664063 446.96875 97.746094 445.84375 97.746094 "/>
<path style=" stroke:none;fill-rule:nonzero;fill:rgb(32.940674%,34.117126%,35.293579%);fill-opacity:1;" d="M 385.351563 82.804688 C 382.472656 82.804688 379.621094 83.089844 377.230469 83.382813 L 377.207031 83.382813 L 374.757813 86.058594 L 374.757813 110.941406 L 380.152344 110.941406 L 380.152344 101.972656 C 382.402344 102.207031 383.914063 102.207031 385.703125 102.207031 C 390.898438 102.207031 394.664063 98.367188 394.664063 92.582031 C 394.511719 86.683594 391.289063 82.804688 385.351563 82.804688 M 384.847656 97.707031 C 383.644531 97.707031 382.402344 97.742188 380.152344 97.394531 L 380.152344 87.5 C 381.394531 87.382813 382.789063 87.265625 384.496094 87.265625 C 388.144531 87.265625 389.425781 89.632813 389.425781 92.738281 C 389.425781 95.492188 387.601563 97.707031 384.847656 97.707031 "/>
<path style=" stroke:none;fill-rule:nonzero;fill:rgb(32.940674%,34.117126%,35.293579%);fill-opacity:1;" d="M 324.488281 92.582031 L 324.488281 92.777344 C 324.605469 98.675781 327.902344 102.558594 333.800781 102.558594 C 337.761719 102.558594 339.933594 102.246094 344.394531 101.664063 L 344.394531 83.695313 C 339.933594 83.113281 337.761719 82.804688 333.800781 82.804688 C 327.902344 82.804688 324.605469 86.683594 324.488281 92.582031 M 339.003906 87.5 L 339.003906 97.859375 C 337.761719 97.976563 336.363281 98.09375 334.65625 98.09375 C 331.070313 98.09375 329.785156 95.753906 329.769531 92.679688 C 329.785156 89.605469 331.070313 87.265625 334.65625 87.265625 C 336.363281 87.265625 337.761719 87.382813 339.003906 87.5 "/>
<path style=" stroke:none;fill-rule:nonzero;fill:rgb(32.940674%,34.117126%,35.293579%);fill-opacity:1;" d="M 294.847656 82.144531 L 299.539063 82.144531 L 300.589844 72.167969 L 294.847656 72.167969 Z M 294.847656 82.144531 "/>
<path style=" stroke:none;fill-rule:nonzero;fill:rgb(32.940674%,34.117126%,35.293579%);fill-opacity:1;" d="M 303.808594 77.097656 L 303.808594 101.972656 L 309.203125 101.972656 L 309.203125 74.421875 L 306.261719 74.421875 "/>
<path style=" stroke:none;fill-rule:nonzero;fill:rgb(32.940674%,34.117126%,35.293579%);fill-opacity:1;" d="M 249.933594 73.992188 C 247.996094 73.992188 246.480469 75.46875 246.480469 77.449219 C 246.480469 79.390625 247.996094 80.824219 249.933594 80.824219 C 251.835938 80.824219 253.390625 79.390625 253.390625 77.449219 C 253.390625 75.46875 251.835938 73.992188 249.933594 73.992188 "/>
<path style=" stroke:none;fill-rule:nonzero;fill:rgb(32.940674%,34.117126%,35.293579%);fill-opacity:1;" d="M 247.238281 86.0625 L 247.238281 101.976563 L 252.632813 101.976563 L 252.632813 83.386719 L 249.691406 83.386719 "/>
<path style=" stroke:none;fill-rule:nonzero;fill:rgb(32.940674%,34.117126%,35.293579%);fill-opacity:1;" d="M 268.625 82.804688 C 265.054688 82.804688 262.425781 83.035156 260.019531 83.382813 L 257.566406 86.0625 L 257.566406 101.972656 L 262.960938 101.972656 L 262.960938 87.964844 C 264.511719 87.808594 265.984375 87.695313 267.34375 87.695313 C 269.519531 87.695313 271.070313 89.167969 271.070313 91.535156 L 271.070313 101.972656 L 276.464844 101.972656 L 276.464844 89.945313 C 276.464844 85.636719 273.320313 82.804688 268.625 82.804688 "/>
<path style=" stroke:none;fill-rule:nonzero;fill:rgb(32.940674%,34.117126%,35.293579%);fill-opacity:1;" d="M 288.816406 97.746094 C 286.722656 97.746094 285.90625 96.542969 285.90625 94.484375 L 285.90625 88.082031 L 291.765625 88.082031 L 291.765625 83.386719 L 285.90625 83.386719 L 285.90625 76.75 L 282.964844 76.75 L 280.511719 79.425781 L 280.511719 95.335938 L 280.535156 95.335938 C 280.648438 99.980469 283.214844 102.554688 287.652344 102.554688 C 290.136719 102.554688 291.105469 102.363281 292.96875 101.933594 L 292.464844 97.472656 C 290.953125 97.664063 289.941406 97.746094 288.816406 97.746094 "/>
<path style=" stroke:none;fill-rule:nonzero;fill:rgb(32.940674%,34.117126%,35.293579%);fill-opacity:1;" d="M 40.410156 69.894531 C 41.886719 69.757813 43.128906 68.535156 43.296875 67.0625 C 43.519531 65.082031 42.023438 63.464844 40.078125 63.464844 C 38.261719 63.464844 36.835938 64.875 36.835938 66.671875 C 36.835938 68.597656 38.4375 70.082031 40.410156 69.894531 "/>
<path style=" stroke:none;fill-rule:nonzero;fill:rgb(32.940674%,34.117126%,35.293579%);fill-opacity:1;" d="M 47.445313 63.464844 C 45.628906 63.464844 44.207031 64.871094 44.207031 66.671875 C 44.207031 68.597656 45.804688 70.082031 47.777344 69.894531 C 49.253906 69.757813 50.5 68.535156 50.664063 67.0625 C 50.890625 65.082031 49.394531 63.464844 47.445313 63.464844 "/>
<path style=" stroke:none;fill-rule:nonzero;fill:rgb(32.940674%,34.117126%,35.293579%);fill-opacity:1;" d="M 70.796875 49.984375 C 66.960938 49.839844 66.402344 46.914063 66.402344 45.148438 L 66.402344 35.871094 L 59.542969 35.871094 C 53.582031 35.871094 49.574219 39.691406 49.574219 45.925781 L 49.574219 48.773438 C 49.574219 53.414063 46.980469 56.207031 42.671875 56.207031 C 38.371094 56.207031 35.800781 53.609375 35.800781 48.695313 C 35.800781 47.027344 36.085938 45.105469 36.664063 42.824219 L 36.957031 41.667969 L 34.28125 41.15625 L 31.128906 43.40625 C 30.703125 45.214844 30.480469 47.097656 30.480469 48.933594 C 30.480469 56.277344 35.394531 61.214844 42.703125 61.214844 C 44.355469 61.214844 45.945313 60.964844 47.40625 60.496094 C 48.351563 60.191406 49.242188 59.761719 50.058594 59.230469 C 53.203125 57.175781 54.925781 53.519531 54.925781 49.765625 L 54.925781 46.03125 C 54.925781 42.773438 56.867188 40.75 59.996094 40.75 L 61.050781 40.75 L 61.050781 45.472656 C 61.089844 51.175781 65.007813 55.003906 70.796875 55.003906 L 71.984375 55.003906 C 77.773438 55.003906 81.691406 51.175781 81.730469 45.472656 L 81.730469 27.453125 L 78.832031 27.453125 L 76.378906 30.128906 L 76.378906 45.148438 C 76.378906 46.914063 75.816406 49.839844 71.984375 49.984375 "/>
<path style=" stroke:none;fill-rule:nonzero;fill:rgb(32.940674%,34.117126%,35.293579%);fill-opacity:1;" d="M 129.316406 55.003906 L 130.296875 55.003906 C 136.085938 55.003906 140.003906 51.175781 140.042969 45.472656 L 140.042969 27.453125 L 137.140625 27.453125 L 134.6875 30.128906 L 134.6875 45.148438 C 134.6875 46.960938 134.113281 49.996094 130.011719 49.996094 L 127.859375 49.996094 C 127.980469 49.496094 128.050781 48.976563 128.050781 48.429688 L 128.050781 48.15625 C 128.050781 33.179688 113.753906 35.839844 112.070313 36.417969 L 110.109375 39.792969 L 110.566406 41.480469 C 110.566406 41.480469 122.800781 37.136719 122.800781 48.191406 L 122.800781 49.996094 L 107.910156 49.996094 L 107.910156 52.113281 L 110.535156 55.003906 L 121.273438 55.003906 C 122.808594 55.003906 124.222656 54.519531 125.359375 53.699219 C 126.472656 54.511719 127.828125 55.003906 129.316406 55.003906 "/>
<path style=" stroke:none;fill-rule:nonzero;fill:rgb(32.940674%,34.117126%,35.293579%);fill-opacity:1;" d="M 150.496094 55.003906 L 150.496094 27.453125 L 147.59375 27.453125 L 145.140625 30.128906 L 145.140625 55.003906 "/>
<path style=" stroke:none;fill-rule:nonzero;fill:rgb(32.940674%,34.117126%,35.293579%);fill-opacity:1;" d="M 94.828125 35.871094 C 88.195313 35.871094 84.910156 39.664063 84.871094 45.5625 C 84.871094 51.347656 88.675781 55.003906 93.875 55.003906 C 95.703125 55.003906 97.175781 55.003906 99.425781 54.769531 C 99.273438 58.109375 97.292969 58.945313 93.761719 58.945313 C 92.246094 58.945313 90.304688 58.554688 88.132813 58.207031 L 87.652344 60.90625 L 89.457031 63.367188 C 91 63.703125 92.582031 63.949219 93.914063 63.949219 C 101.171875 63.949219 104.78125 59.507813 104.78125 53.492188 L 104.78125 45.484375 C 104.714844 39.632813 101.460938 35.871094 94.828125 35.871094 M 99.425781 49.722656 C 97.214844 50.03125 95.894531 49.996094 94.691406 49.996094 C 91.933594 49.996094 90.226563 48.035156 90.226563 45.59375 C 90.226563 42.898438 91.355469 40.839844 94.828125 40.753906 L 94.828125 40.75 C 98.242188 40.816406 99.363281 42.78125 99.425781 45.386719 "/>
</g>
</svg>
