<?xml version="1.0" encoding="utf-8"?>
<!-- Generator: Adobe Illustrator 26.0.3, SVG Export Plug-In . SVG Version: 6.00 Build 0)  -->
<svg version="1.1" xmlns="http://www.w3.org/2000/svg" xmlns:xlink="http://www.w3.org/1999/xlink" x="0px" y="0px"
	 viewBox="0 0 822 822" style="enable-background:new 0 0 822 822;" xml:space="preserve">
<style type="text/css">
	.st0{fill:#808080;}
	.st1{fill:#007580;}
</style>
<g id="Layer_1">
</g>
<g id="Layer_3">
</g>
<g id="Layer_2">
	<g>
		<g>
			<path class="st0" d="M483,561.1l11.3-0.1v-24l-11.3,0.1c-2.9,0.1-5.4,1.2-7.5,3.2c-2,2-3,4.5-2.9,7.3v3.1c0,2.8,1,5.3,3.1,7.4
				C477.8,560.2,480.2,561.2,483,561.1z M477.6,547.7c0-1.7,0.5-3.1,1.6-4.3c1.1-1.1,2.4-1.6,4-1.6l6.1-0.1l0.1,15.1h-6.3
				c-1.5,0-2.8-0.6-3.9-1.8c-1.1-1.2-1.7-2.6-1.7-4.2V547.7z"/>
			<path class="st0" d="M480.4,532.2h4.5c0.2,0,0.3,0,0.3,0s0-0.2,0-0.5v-4.5c-0.1-0.1-0.2-0.1-0.3-0.1h-4.5c-0.1,0-0.2,0-0.3,0.1
				v4.5C480.1,532,480.2,532.2,480.4,532.2z"/>
			<path class="st0" d="M487.6,532.2h4.7c0.1,0,0.1,0,0.1,0s0-0.2,0-0.5v-4.5l-0.1-0.1h-4.7c-0.1,0-0.2,0-0.3,0.1v4.5
				C487.3,532,487.4,532.2,487.6,532.2z"/>
			<path class="st0" d="M539.6,571c0.1,0,0.1,0,0.1,0s0-0.2,0-0.5v-4.5l-0.1-0.1h-4.7c-0.1,0-0.2,0-0.3,0.1v4.5
				c0,0.4,0.1,0.5,0.3,0.5H539.6z"/>
			<path class="st0" d="M532.3,571c0.2,0,0.3,0,0.3,0s0-0.2,0-0.5v-4.5c-0.1-0.1-0.2-0.1-0.3-0.1h-4.5c-0.1,0-0.2,0-0.3,0.1v4.5
				c0,0.4,0.1,0.5,0.3,0.5H532.3z"/>
			<path class="st0" d="M569.2,539.1c-1-0.9-2.2-1.4-3.6-1.4h-5.5c-2.8,0-5.3,1-7.3,3.1c-2,2-3,4.5-2.9,7.3l0.1,6.1v0.5
				c-0.6,0.8-1.2,1.3-1.6,1.5c-0.4,0.2-1.2,0.3-2.1,0.3h-1.5h-2.3h-5.9v-19.5l-4.1,1.7c-0.8,0.4-1.2,0.9-1.2,1.6l0.1,16.1h-5.3h-2.7
				h-16.5v-18.7l-4,1.3c-0.6,0.4-0.9,1-0.9,1.6v20c0,4.9-2.4,7.3-7.2,7.3H494l-1.7,4.1c1,0.3,2.4,0.4,4.1,0.4c3.4,0,6-1,7.9-2.9
				c1.9-2,2.8-4.9,2.8-8.8h16.5h2.7h16.4h2.3h1.5c2,0,3.8-0.6,5.5-1.7c1.2,1.2,2.6,1.7,4.4,1.7h8.5c2,0,3.5-0.6,4.5-1.9
				c1.1-1.2,1.6-2.9,1.6-4.9c0-5.2,0-9-0.1-11.6C570.7,541.2,570.2,540,569.2,539.1z M564.8,556.6h-8.7c-1.1,0-1.6-0.8-1.6-2.4v-6.1
				c0-1.6,0.6-3,1.7-4.1c1.2-1.2,2.5-1.7,4.1-1.7h4.4c0.7,0,1.2,0.3,1.3,0.9l0.3,11.1C566.4,555.8,565.9,556.6,564.8,556.6z"/>
			<path class="st0" d="M601.8,558.5c1.9-1.8,2.8-4.1,2.8-7.1v-26.8l-4.3,1.7c-0.6,0.3-0.9,0.8-0.9,1.6v22.8c0,4-1.7,6-5.2,6H593
				l-6.7-28.4H581l6.7,28.4H576v4.3h18.7C597.6,561,599.9,560.1,601.8,558.5z"/>
			<path class="st0" d="M580.2,525.7l8.5-2.7l-0.8-2.9l-3.5,1.2c-1.4-0.6-2.1-1.4-2.1-2.3c0-0.8,0.8-1.2,2.4-1.2
				c0.6,0,1.1,0,1.5,0.1l0.1-2.9c-0.4-0.1-1-0.1-1.7-0.1c-1.6,0-2.9,0.4-3.9,1.1c-1,0.8-1.5,1.7-1.5,2.9c0,1.3,0.6,2.5,1.9,3.5
				l-2,0.7L580.2,525.7z"/>
			<path class="st0" d="M614.5,524.6l-4,1.7c-0.8,0.4-1.2,0.9-1.2,1.6V561h5.2V524.6z"/>
			<path class="st0" d="M635.5,532.2h4.5c0.2,0,0.3,0,0.3,0s0-0.2,0-0.5v-4.5c-0.1-0.1-0.2-0.1-0.3-0.1h-4.5c-0.1,0-0.2,0-0.3,0.1
				v4.5C635.2,532,635.3,532.2,635.5,532.2z"/>
			<path class="st0" d="M642.7,532.2h4.7c0.1,0,0.1,0,0.1,0s0-0.2,0-0.5v-4.5l-0.1-0.1h-4.7c-0.1,0-0.2,0-0.3,0.1v4.5
				C642.4,532,642.5,532.2,642.7,532.2z"/>
			<path class="st0" d="M717.9,561c2,0,3.5-0.6,4.5-1.9c1.1-1.2,1.6-2.9,1.6-4.9c0-5.2,0-9-0.1-11.6c-0.1-1.4-0.6-2.6-1.6-3.5
				c-1-0.9-2.2-1.4-3.6-1.4h-5.5c-2.8,0-5.3,1-7.3,3.1c-2,2-3,4.5-2.9,7.3l0.1,6.1v0.5c-0.6,0.8-1.2,1.3-1.6,1.5
				c-0.4,0.2-1.2,0.3-2.1,0.3h-4.7H693h-4c1.3-4.2,2-7.8,2-10.8c0-3.1-0.6-5.4-1.7-6.9c-1.4-1.9-3.7-2.8-6.9-2.8
				c-2,0-4.3,0.3-6.7,0.9l-5.7,1.3l-1.6,5.2l4.1,13.1h-5.2H654h-3.6V537l-11.3,0.1c-2.9,0.1-5.4,1.2-7.5,3.2c-2,2-3,4.5-2.9,7.3v3.1
				c0,2.8,1,5.3,3.1,7.4c2,2.1,4.5,3.1,7.3,3l11.3-0.1h3.6h13.2H693h1.9h4.7c2,0,3.8-0.6,5.5-1.7c1.2,1.2,2.6,1.7,4.4,1.7H717.9z
				 M644,556.6v0.1h-4.8c-1.5,0-2.8-0.6-3.9-1.8c-1.1-1.2-1.7-2.6-1.7-4.2v-3.1c0-1.7,0.5-3.1,1.6-4.3c1.1-1.1,2.4-1.6,4-1.6
				l6.1-0.1l0.1,14.9H644z M685.2,551.8c-0.5,1.9-1.1,3.1-1.7,3.7c-0.6,0.6-1.5,1-2.7,1.1h-3.5l-4.3-12.8l0.7-1.7
				c0.6-0.3,1.4-0.5,2.2-0.7c0.8-0.2,1.6-0.3,2.2-0.3c1.2-0.3,2.3-0.4,3.1-0.4c1.7,0,3,0.4,3.9,1.3c0.7,0.7,1.1,2,1.1,3.9
				S685.9,549.7,685.2,551.8z M707.7,554.2v-6.1c0-1.6,0.6-3,1.7-4.1c1.2-1.2,2.5-1.7,4.1-1.7h4.4c0.7,0,1.2,0.3,1.3,0.9l0.3,11.1
				c0,1.6-0.5,2.4-1.6,2.4h-8.7C708.2,556.6,707.7,555.8,707.7,554.2z"/>
			<path class="st0" d="M765,564.3h-4.5c-0.3,0-0.4,0-0.4,0.1v4.7c0,0.2,0.1,0.3,0.4,0.3h4.5c0.2,0,0.3-0.1,0.3-0.3v-4.7
				c0-0.1,0-0.1-0.1-0.1C765.2,564.3,765.1,564.3,765,564.3z"/>
			<path class="st0" d="M742.4,561H772l-0.5-4.4h-1.7v-9.3c-0.1-3-1.1-5.5-2.9-7.5c-1.9-2-4.3-2.9-7.2-2.9c-0.8,0-2,0.2-3.5,0.5
				c-1.6,0.3-2.9,0.6-4.1,1l0.8,4.1c3-0.7,5.3-1.1,6.9-1.1c1.6,0,2.9,0.5,3.9,1.6c1,1.1,1.5,2.5,1.5,4.3l0.1,9.3h-22.8H740h-3.7v-32
				l-4,1.7c-0.8,0.4-1.2,0.9-1.2,1.6V561h8.7H742.4z"/>
			<path class="st0" d="M96,536.1c-0.3,0-0.4,0-0.4,0.1v4.7c0,0.2,0.1,0.3,0.4,0.3h4.6c0.2,0,0.3-0.1,0.3-0.3v-4.7
				c0-0.1,0-0.1-0.1-0.1c0,0-0.1,0-0.2,0H96z"/>
			<path class="st0" d="M173.9,556.1h-1.8v-9.5c-0.1-3.1-1.1-5.6-3-7.6c-1.9-2-4.3-3-7.3-3c-0.8,0-2,0.2-3.6,0.5
				c-1.6,0.3-3,0.7-4.1,1l0.8,4.2c3.1-0.7,5.4-1.1,7-1.1c1.6,0,2.9,0.5,3.9,1.6c1,1.1,1.5,2.5,1.5,4.3l0.1,9.5h-13.8h-0.3h-3.5
				c-1,0-1.7-0.1-2.2-0.3c-0.5-0.2-0.9-0.7-1.5-1.4v-0.7c0-5.2,0-9.2-0.1-11.8c-0.1-1.4-0.6-2.6-1.6-3.6c-1-0.9-2.2-1.4-3.7-1.4
				h-5.6c-2.9,0-5.3,1-7.4,3.1c-2,2.1-3,4.6-2.9,7.4l0.1,6.2v0.5c-0.6,0.8-1.2,1.3-1.6,1.6c-0.5,0.2-1.2,0.3-2.2,0.3h-1.5h-2.3h-3.7
				v-5.4v-5.8l-4.1,1.8c-0.9,0.3-1.4,0.8-1.4,1.6l0.1,5.3v5.7c0,2.6-0.1,4.6-0.3,5.9c-0.2,1.3-0.7,2.4-1.6,3.2
				c-0.8,0.8-1.9,1.4-3.4,1.8c-1.4,0.4-3,0.6-4.6,0.6c-1.6,0-3.1-0.2-4.5-0.7c-1.4-0.5-2.4-1.1-2.9-1.9c-1.2-1.4-1.8-3.7-1.8-6.9
				c0-3.8,0.8-7.8,2.3-11.9l-4.9-0.1c-1.5,4.1-2.3,8-2.3,11.9c0,4.4,1,7.8,3,10.2c1.1,1.3,2.6,2.2,4.7,2.9c2,0.7,4.3,1,6.7,1
				c2.3,0,4.6-0.3,6.6-0.9c2.1-0.6,3.7-1.5,4.7-2.7c1.2-1.1,2-2.5,2.5-4.1c0.5-1.7,0.8-3.9,1-6.8h3.7h2.3h1.5c2,0,3.8-0.6,5.6-1.8
				c1.2,1.2,2.7,1.8,4.5,1.8h8.7c1.8,0,3.3-0.6,4.5-1.8c1.5,1.2,3.3,1.8,5.4,1.8h3.2h0.5h20.7L173.9,556.1z M140,556.1h-8.8
				c-1.1,0-1.6-0.8-1.6-2.4v-6.2c0-1.6,0.6-3,1.8-4.2c1.2-1.2,2.6-1.8,4.2-1.8h4.5c0.7,0,1.2,0.3,1.4,0.9l0.3,11.2
				C141.7,555.3,141.1,556.1,140,556.1z"/>
			<path class="st0" d="M194.6,527v29.1h-3.3h-2.7h-2.4v-19l-4.1,1.4c-0.6,0.5-0.9,1-0.9,1.6v20.3c0,5-2.4,7.4-7.3,7.4h-0.9
				l-1.8,4.2c1,0.3,2.4,0.4,4.2,0.4c3.4,0,6.1-1,8-3c1.9-2,2.8-5,2.8-8.9h2.4h2.7h8.5v-37l-4.1,1.8C195,525.7,194.6,526.3,194.6,527
				z"/>
			<path class="st0" d="M204.8,527v33.6h5.3v-37l-4.1,1.8C205.2,525.7,204.8,526.3,204.8,527z"/>
			<path class="st0" d="M252.1,565.4h-4.6c-0.3,0-0.4,0-0.4,0.1v4.7c0,0.2,0.1,0.3,0.4,0.3h4.6c0.2,0,0.3-0.1,0.3-0.3v-4.7
				c0-0.1,0-0.1-0.1-0.1C252.2,565.4,252.2,565.4,252.1,565.4z"/>
			<path class="st0" d="M270.3,554.9c-0.7-0.6-1.3-1.7-1.8-3.5c-1-3-1.5-5.2-1.5-6.8c0-2.6,1.5-3.9,4.5-3.9c1.7,0,4.1,0.4,7,1.2
				l0.8-4.7c-3.2-0.8-6-1.2-8.4-1.2c-3,0-5.2,0.7-6.6,2.2c-1.4,1.4-2.1,3.7-2.1,6.6c0,2.9,0.6,6.6,1.9,11.2h-3h-2.8h-5.4v-19.8
				l-4.2,1.8c-0.8,0.4-1.2,0.9-1.2,1.6l0.1,16.4h-5.4h-0.8h-3.5v-8c-0.1-3.7-1.2-6.7-3.2-8.9c-2-2.2-4.6-3.3-7.8-3.3
				c-3.1,0-6.2,1-9.3,3l1.2,4.2c2.7-1.6,5.2-2.4,7.4-2.4c1.9,0,3.4,0.6,4.5,1.8c1.1,1.2,1.7,2.9,1.8,5.1l0.3,8.4h-17.6v4.6h26.1h0.8
				h16.1h2.8h20.3v-4.5c-4.2,0-6.9,0-8.2-0.1C272,555.9,271,555.5,270.3,554.9z"/>
			<path class="st0" d="M318.1,531.6V527c0-0.2-0.1-0.3-0.3-0.3h-4.7c-0.1,0-0.1,0-0.1,0.1c0,0,0,0.1,0,0.2v4.6c0,0.3,0,0.4,0.1,0.4
				h4.7C318,532,318.1,531.9,318.1,531.6z"/>
			<path class="st0" d="M310.5,532c0.1,0,0.1-0.1,0.1-0.4V527c0-0.1,0-0.2,0-0.2c0,0,0-0.1-0.1-0.1h-4.7c-0.2,0-0.3,0.1-0.3,0.3v4.6
				c0,0.3,0.1,0.4,0.3,0.4H310.5z"/>
			<path class="st0" d="M346.9,532.3c0.2,0,0.3-0.1,0.3-0.3v-4.7c0-0.1,0-0.1-0.1-0.1c0,0-0.1,0-0.2,0h-4.6c-0.3,0-0.4,0-0.4,0.1
				v4.7c0,0.2,0.1,0.3,0.4,0.3H346.9z"/>
			<path class="st0" d="M361.8,565.2h-4.6c-0.3,0-0.4,0-0.4,0.1v4.7c0,0.2,0.1,0.3,0.4,0.3h4.6c0.2,0,0.3-0.1,0.3-0.3v-4.7
				c0-0.1,0-0.1-0.1-0.1C362,565.2,361.9,565.2,361.8,565.2z"/>
			<path class="st0" d="M359.5,539.7l0.1,16.4h-5.4h-0.8h-5.6v-19.8l-4.2,1.8c-0.8,0.4-1.2,0.9-1.2,1.6l0.1,16.4h-5.4h-0.8h-5.6
				v-19.8l-4.2,1.8c-0.8,0.4-1.2,0.9-1.2,1.6l0.1,16.4h-20.9c-2.5,0-4.3-0.6-5.4-1.8c-1.1-1.2-1.6-3.1-1.6-5.8
				c0-1.6,0.1-3.4,0.4-5.4h-4.3c-0.6,2.5-0.9,4.9-0.9,7c0,7,3.8,10.4,11.4,10.4h32.2h0.8h16.2h0.8H365v-24.2l-4.2,1.8
				C359.9,538.4,359.5,539,359.5,539.7z"/>
			<path class="st0" d="M399.3,536.2l-11.5,0.1c-3,0.1-5.5,1.2-7.6,3.2c-2.1,2.1-3.1,4.6-3,7.4v3.1c0,2.9,1,5.4,3.1,7.5
				c2.1,2.1,4.6,3.1,7.4,3l11.5-0.1V536.2z M388,556.2c-1.5,0-2.9-0.6-4-1.8c-1.1-1.2-1.7-2.6-1.7-4.3V547c0-1.7,0.5-3.2,1.6-4.3
				c1.1-1.1,2.4-1.6,4.1-1.6l6.2-0.1l0.1,15.3H388z"/>
			<path class="st0" d="M392.2,526.2v4.6c0,0.4,0.1,0.5,0.3,0.5h4.7c0.1,0,0.1,0,0.1,0s0-0.2,0-0.5v-4.6l-0.1-0.1h-4.7
				C392.3,526,392.3,526.1,392.2,526.2z"/>
			<path class="st0" d="M384.9,526.2v4.6c0,0.4,0.1,0.5,0.3,0.5h4.6c0.2,0,0.3,0,0.3,0s0-0.2,0-0.5v-4.6c-0.1-0.1-0.2-0.1-0.3-0.1
				h-4.6C385,526,384.9,526.1,384.9,526.2z"/>
			<path class="st0" d="M407.2,540.1v20.3c0,5-2.4,7.4-7.3,7.4H399l-1.8,4.2c1,0.3,2.4,0.4,4.2,0.4c3.4,0,6.1-1,8-3
				c1.9-2,2.8-5,2.8-8.9v-23.4l-4.1,1.4C407.6,538.9,407.2,539.5,407.2,540.1z"/>
			<path class="st0" d="M454.6,539.7l0.1,16.4H442h-2.4h-0.9v-19.5l-10-0.1c-3.3,0-6,1.3-8.1,3.8c-1.8,2.3-2.7,5.1-2.7,8.4
				c0,3.2,0.9,6,2.7,8.3c1.9,2.4,4.6,3.7,8.1,3.7h5c0,2.3-0.6,4-1.8,5.3c-1.2,1.3-3,2-5.6,2h-0.9l-1.8,4.2c1,0.3,2.4,0.4,4.2,0.4
				c3.4,0,6.1-1,8-3c1.9-2,2.8-4.9,2.8-8.8v-0.1h0.9h2.4H460v-24.2l-4.2,1.8C455,538.4,454.6,539,454.6,539.7z M433.6,556.1h-5
				c-1.8,0-3.3-0.7-4.3-2.2c-1.1-1.4-1.6-3.2-1.6-5.3c0-1.7,0.5-3.4,1.6-5.1c1-1.5,2.4-2.3,4.3-2.3h5V556.1z"/>
			<path class="st0" d="M453.7,527.1c-0.3,0-0.4,0-0.4,0.1v4.7c0,0.2,0.1,0.3,0.4,0.3h4.6c0.2,0,0.3-0.1,0.3-0.3v-4.7
				c0-0.1,0-0.1-0.1-0.1c0,0-0.1,0-0.2,0H453.7z"/>
		</g>
		<g>
			<path class="st0" d="M84.8,589.2c0.9-0.5,2-0.9,3.2-1.2c1.2-0.3,2.5-0.4,3.7-0.4c5.8,0,8.7,2.3,8.7,7v2.3c0,1.8-0.7,3.4-2,4.7
				c-1.3,1.3-2.9,1.9-4.6,1.9l-5.3-0.1v9h-3.7V589.2z M93.7,600.3c0.8,0,1.6-0.3,2.2-1c0.6-0.7,0.9-1.5,0.9-2.4v-2.3
				c-0.1-1.6-0.5-2.6-1.3-3.1c-0.8-0.5-2.1-0.7-3.9-0.7c-1,0-2.1,0.1-3.1,0.4v9.1H93.7z"/>
			<path class="st0" d="M111.8,595.9c2,0,3.5,0.3,4.4,0.9l-2.2,2.8c-0.7-0.2-1.8-0.3-3.3-0.3c-1,0-1.8,0.1-2.4,0.3v12.9h-3.7v-15.7
				c0-0.6,0.3-1.1,0.9-1.3l2.8-1v1.9C109.6,596,110.7,595.9,111.8,595.9z"/>
			<path class="st0" d="M503.6,595.8c2,0,3.5,0.3,4.4,0.9l-2.2,2.8c-0.7-0.2-1.8-0.3-3.3-0.3c-1,0-1.8,0.1-2.4,0.3v12.9h-3.7v-15.7
				c0-0.6,0.3-1.1,0.9-1.3l2.8-1v1.9C501.4,596,502.5,595.8,503.6,595.8z"/>
			<path class="st0" d="M117.7,592.7v-3.3c0-0.1,0.1-0.2,0.3-0.2h3.2c0.1,0,0.2,0.1,0.2,0.2v3.3c0,0.1-0.1,0.2-0.2,0.2H118
				C117.8,592.8,117.7,592.8,117.7,592.7z M117.7,596.5c0-0.3,0.1-0.6,0.3-0.9c0.2-0.3,0.4-0.4,0.7-0.5l2.7-0.8v18.1h-3.7V596.5z"/>
			<path class="st0" d="M124.9,596.7c0-0.3,0.1-0.6,0.4-0.9c0.3-0.3,0.7-0.6,1.4-0.9l1.7-0.8l0.1,2.2c1.2-1,2.6-1.4,4.1-1.4
				c2.1,0,3.9,0.6,5.4,1.8c1.5,1.2,2.2,2.8,2.2,4.8l0.1,10.8h-3.7v-10.8c0-1-0.4-1.8-1.1-2.3c-0.8-0.5-1.7-0.8-2.8-0.8
				s-2.1,0.3-2.9,0.8c-0.8,0.6-1.2,1.3-1.2,2.2v10.8H125L124.9,596.7z"/>
			<path class="st0" d="M147.3,599.1c-0.9,1-1.4,2.5-1.4,4.3c0,1.8,0.5,3.3,1.4,4.3c0.9,1,2.2,1.5,3.8,1.5c2.1,0,3.6-0.4,4.2-1.3
				l1.6,2.9c-1.3,1.1-3.2,1.7-5.8,1.7c-2.7,0-4.8-0.8-6.4-2.5c-1.6-1.7-2.4-3.8-2.4-6.6c0-2.7,0.8-4.9,2.4-6.6
				c1.6-1.7,3.8-2.5,6.4-2.5c2.6,0,4.5,0.6,5.7,1.7l-1.5,3.1c-0.3-0.5-0.9-0.8-1.6-1.1c-0.8-0.3-1.6-0.4-2.6-0.4
				C149.5,597.5,148.2,598,147.3,599.1z"/>
			<path class="st0" d="M174.4,610.7c-0.8,0.5-1.9,0.9-3.1,1.3c-1.2,0.3-2.5,0.5-3.8,0.5c-2.9,0-5.2-0.8-6.9-2.4
				c-1.7-1.6-2.5-3.8-2.5-6.7c0-2.8,0.8-5,2.3-6.6c1.5-1.6,3.6-2.4,6.3-2.4c2.8,0,4.9,0.8,6.3,2.4c1.4,1.6,2,3.9,1.8,6.8l-13.1,1.5
				c0.6,2.9,2.6,4.3,6,4.3c2.4,0,4.1-0.4,5.2-1.2L174.4,610.7z M163.2,598.8c-0.8,0.7-1.4,1.6-1.6,2.8l9.4-1
				c-0.3-1.9-1.8-2.8-4.5-2.8C165.1,597.8,164,598.1,163.2,598.8z"/>
			<path class="st0" d="M179.1,607.8c1.3,1,2.9,1.6,4.9,1.6c1,0,1.8-0.2,2.6-0.5c0.7-0.3,1.1-0.8,1.1-1.4c0-0.6-0.3-1.1-0.9-1.5
				c-0.6-0.3-1.5-0.7-2.9-1.1c-1.8-0.5-3.2-1.1-4.3-1.8c-1.1-0.8-1.6-1.9-1.6-3.5c0-1.6,0.7-2.8,2-3.7c1.3-0.9,2.9-1.4,4.9-1.4
				c2.3,0,4.4,0.6,6.2,1.9l-1.7,2.8c-1.2-0.9-2.6-1.4-4.4-1.4c-0.9,0-1.7,0.2-2.4,0.5c-0.7,0.3-1,0.8-1,1.4c0,0.5,0.2,0.9,0.7,1.2
				c0.5,0.3,1.4,0.6,2.9,1c1.9,0.5,3.4,1.2,4.5,1.9c1.1,0.7,1.7,1.9,1.7,3.6c0,1.6-0.7,2.9-2.1,3.9c-1.4,1-3.1,1.5-5.1,1.5
				c-2.5,0-4.7-0.6-6.6-1.9L179.1,607.8z"/>
			<path class="st0" d="M194.8,607.8c1.3,1,2.9,1.6,4.9,1.6c1,0,1.8-0.2,2.6-0.5c0.7-0.3,1.1-0.8,1.1-1.4c0-0.6-0.3-1.1-0.9-1.5
				c-0.6-0.3-1.5-0.7-2.9-1.1c-1.8-0.5-3.2-1.1-4.3-1.8c-1.1-0.8-1.6-1.9-1.6-3.5c0-1.6,0.7-2.8,2-3.7c1.3-0.9,2.9-1.4,4.9-1.4
				c2.3,0,4.4,0.6,6.2,1.9l-1.7,2.8c-1.2-0.9-2.6-1.4-4.4-1.4c-0.9,0-1.7,0.2-2.4,0.5c-0.7,0.3-1,0.8-1,1.4c0,0.5,0.2,0.9,0.7,1.2
				c0.5,0.3,1.4,0.6,2.9,1c1.9,0.5,3.4,1.2,4.5,1.9c1.1,0.7,1.7,1.9,1.7,3.6c0,1.6-0.7,2.9-2.1,3.9c-1.4,1-3.1,1.5-5.1,1.5
				c-2.5,0-4.7-0.6-6.6-1.9L194.8,607.8z"/>
			<path class="st0" d="M238.4,588.1v24.4H235l-13.4-19.2l0.2,19.2h-3.5v-24.4h3.8l13,18.7l-0.2-18.7H238.4z"/>
			<path class="st0" d="M257.4,597.2c1.5,1.6,2.3,3.7,2.3,6.5c0,2.8-0.8,5-2.3,6.5c-1.5,1.6-3.6,2.4-6.3,2.4s-4.8-0.8-6.3-2.4
				c-1.5-1.6-2.2-3.7-2.2-6.5c0-2.8,0.7-5,2.2-6.5c1.5-1.6,3.6-2.4,6.3-2.4S255.9,595.6,257.4,597.2z M256.1,603.7
				c0-3.8-1.7-5.7-5-5.7c-3.3,0-4.9,1.9-4.9,5.7c0,3.8,1.6,5.7,4.9,5.7C254.4,609.3,256.1,607.4,256.1,603.7z"/>
			<path class="st0" d="M273.3,611.5c-1.3,0.6-2.6,0.9-3.9,0.9c-2,0-3.9-0.6-5.4-1.8c-1.6-1.2-2.4-2.8-2.4-4.6v-8.8
				c0-0.6,0.2-1,0.7-1.3l2.9-1.3V606c0,0.9,0.4,1.6,1.3,2.2c0.8,0.6,1.8,0.8,2.9,0.8c1,0,2-0.3,2.7-0.8c0.8-0.5,1.1-1.3,1.1-2.2
				l0.1-8.8c0-0.6,0.2-1,0.7-1.3l2.9-1.3v17.8h-3.6V611.5z"/>
			<path class="st0" d="M305.9,611.4c-1.6,0.7-3.3,1.1-5.1,1.1c-2,0-3.7-0.5-5-1.6c-1.3-1.1-1.9-2.6-1.9-4.4c0-1.9,0.7-3.4,2.1-4.4
				c1.4-1,3.4-1.5,6-1.5c0.7,0,2,0.1,3.9,0.3v-0.6c0-0.8-0.4-1.5-1.2-2c-0.8-0.5-1.9-0.7-3.3-0.7c-1.6,0-3.6,0.4-6,1.1v-3.2
				c2-0.6,4.1-0.9,6.1-0.9c1.4,0,2.7,0.2,3.9,0.5c1.2,0.3,2,0.9,2.7,1.5c0.9,0.9,1.4,2.2,1.4,3.9v11.8h-3.3L305.9,611.4z
				 M305.9,604.1c-1.7-0.3-3.1-0.4-4.1-0.4c-2.9,0-4.3,0.9-4.3,2.7c0,0.9,0.4,1.6,1.1,2c0.7,0.5,1.6,0.7,2.8,0.7
				c1.6,0,3.1-0.4,4.6-1.3V604.1z"/>
			<path class="st0" d="M325.5,596.5c1.3,1.2,2,2.7,2,4.5l0.1,11.5h-3.7v-11.4c0-0.8-0.3-1.5-0.9-2c-0.6-0.6-1.4-0.9-2.3-0.9H319
				c-0.8,0-1.6,0.3-2.2,0.9c-0.7,0.6-1,1.3-1,2.1v11.3h-3.6l-0.1-22.3c0-0.7,0.3-1.2,0.9-1.4l2.8-1.1v7.9c1.2-0.5,2.3-0.8,3.3-0.8
				h1.7C322.6,594.7,324.2,595.3,325.5,596.5z"/>
			<path class="st0" d="M359.6,592.7v-3.3c0-0.1,0.1-0.2,0.3-0.2h3.2c0.1,0,0.2,0.1,0.2,0.2v3.3c0,0.1-0.1,0.2-0.2,0.2h-3.2
				C359.7,592.9,359.6,592.8,359.6,592.7z M359.6,596.6c0-0.3,0.1-0.6,0.3-0.9c0.2-0.3,0.4-0.4,0.7-0.5l2.7-0.8v18.1h-3.7V596.6z"/>
			<path class="st0" d="M388.5,599.8v7.7c0,0.6,0.2,1,0.7,1.4c0.4,0.3,1,0.5,1.7,0.5h0.6l0.5,3c-0.5,0.1-1,0.2-1.5,0.2
				c-1.7,0-3-0.5-4-1.4s-1.5-2.2-1.5-3.8V592c0-0.4,0.2-0.8,0.5-1.2l3.1-1.4v7.4h4.2v3H388.5z"/>
			<path class="st0" d="M427.3,612.5h-4.2l-3.1-7.8h-9l-3,7.8h-4l10.2-24.8h2.8L427.3,612.5z M418.9,601.5l-3.2-8.6l-3.2,8.6H418.9z
				"/>
			<path class="st0" d="M430.1,612.5v-22.2c0-0.7,0.3-1.2,0.9-1.3l2.7-1.1v7l5,0.1c1.8,0.1,3.4,0.7,4.7,2c1.3,1.3,1.9,2.8,1.9,4.7
				v4.4c0,1.8-0.7,3.4-2,4.7c-1.3,1.3-2.9,1.9-4.7,1.9L430.1,612.5z M438.5,609.3c0.8,0,1.6-0.3,2.2-1c0.6-0.7,0.9-1.5,0.9-2.4v-4.4
				c0-0.9-0.3-1.7-0.9-2.4c-0.5-0.6-1.2-0.9-2.1-0.9h-4.9l-0.1,11.1H438.5z"/>
			<path class="st0" d="M340.7,612.5v-22.2c0-0.7,0.3-1.2,0.9-1.3l2.7-1.1v7l5,0.1c1.8,0.1,3.4,0.7,4.7,2c1.3,1.3,1.9,2.8,1.9,4.7
				v4.4c0,1.8-0.7,3.4-2,4.7c-1.3,1.3-2.9,1.9-4.7,1.9L340.7,612.5z M349.2,609.3c0.8,0,1.6-0.3,2.2-1c0.6-0.7,0.9-1.5,0.9-2.4v-4.4
				c0-0.9-0.3-1.7-0.9-2.4c-0.5-0.6-1.2-0.9-2.1-0.9h-4.9l-0.1,11.1H349.2z"/>
			<path class="st0" d="M464.7,587.8v24.7l-8.5,0.1c-1.8,0-3.4-0.6-4.7-1.9c-1.3-1.3-2-2.8-2-4.7v-4.4c0-1.8,0.6-3.4,1.9-4.7
				c1.3-1.3,2.8-2,4.7-2l5-0.1v-4.6c0-0.7,0.3-1.2,0.9-1.3L464.7,587.8z M461.1,609.3l-0.1-11.1h-4.9c-0.8,0-1.5,0.3-2.1,0.9
				c-0.6,0.6-0.9,1.4-0.9,2.4v4.4c0,0.9,0.3,1.7,0.9,2.4c0.6,0.7,1.4,1,2.2,1H461.1z"/>
			<path class="st0" d="M480.7,611.6c-1.3,0.6-2.6,0.9-3.9,0.9c-2,0-3.9-0.6-5.4-1.8c-1.6-1.2-2.4-2.8-2.4-4.6v-8.8
				c0-0.6,0.2-1,0.7-1.3l2.9-1.3v11.3c0,0.9,0.4,1.6,1.3,2.2c0.8,0.6,1.8,0.8,2.9,0.8c1,0,2-0.3,2.7-0.8c0.8-0.5,1.1-1.3,1.1-2.2
				l0.1-8.8c0-0.6,0.2-1,0.7-1.3l2.9-1.3v17.8h-3.6V611.6z"/>
			<path class="st0" d="M492.2,587.8v24.8h-3.6v-22.3c0-0.3,0.1-0.5,0.2-0.8c0.2-0.3,0.4-0.4,0.6-0.6L492.2,587.8z"/>
			<path class="st0" d="M521.2,611.4c-1.6,0.7-3.3,1.1-5.1,1.1c-2,0-3.7-0.5-5-1.6c-1.3-1.1-1.9-2.6-1.9-4.4c0-1.9,0.7-3.4,2.1-4.4
				c1.4-1,3.4-1.5,6-1.5c0.7,0,2,0.1,3.9,0.3v-0.6c0-0.8-0.4-1.5-1.2-2c-0.8-0.5-1.9-0.7-3.3-0.7c-1.6,0-3.6,0.4-6,1.1v-3.2
				c2-0.6,4.1-0.9,6.1-0.9c1.4,0,2.7,0.2,3.9,0.5c1.2,0.3,2,0.9,2.7,1.5c0.9,0.9,1.4,2.2,1.4,3.9v11.8h-3.3L521.2,611.4z
				 M521.1,604.2c-1.7-0.3-3.1-0.4-4.1-0.4c-2.9,0-4.3,0.9-4.3,2.7c0,0.9,0.4,1.6,1.1,2c0.7,0.5,1.6,0.7,2.8,0.7
				c1.6,0,3.1-0.4,4.6-1.3V604.2z"/>
			<path class="st0" d="M540.8,596.6c1.3,1.2,2,2.7,2,4.5l0.1,11.5h-3.7v-11.4c0-0.8-0.3-1.5-0.9-2c-0.6-0.6-1.4-0.9-2.3-0.9h-1.7
				c-0.8,0-1.6,0.3-2.2,0.9c-0.7,0.6-1,1.3-1,2.1v11.3h-3.6l-0.1-22.3c0-0.7,0.3-1.2,0.9-1.4l2.8-1.1v7.9c1.2-0.5,2.3-0.8,3.3-0.8
				h1.7C537.8,594.8,539.5,595.4,540.8,596.6z"/>
			<path class="st0" d="M572.5,612.5h-3.6v-11.2c0-0.9-0.4-1.7-1.1-2.2c-0.8-0.5-1.7-0.8-2.8-0.8c-1.1,0-2.1,0.3-2.9,0.8
				c-0.8,0.6-1.3,1.3-1.3,2.2l0.1,11.2h-3.7v-11.2c0-0.9-0.4-1.7-1.2-2.2c-0.8-0.5-1.8-0.8-2.9-0.8c-1,0-2,0.2-2.8,0.7
				s-1.2,1.1-1.2,2v11.6h-3.6v-15.8c0-0.7,0.3-1.2,0.9-1.4l2.8-1.1v1.5c1-0.6,2.3-0.9,3.9-0.9c1.3,0,2.4,0.2,3.5,0.6
				c1.1,0.4,1.9,0.9,2.6,1.6c1.5-1.5,3.4-2.2,5.7-2.2c2,0,3.8,0.6,5.4,1.8c1.5,1.2,2.3,2.7,2.3,4.7V612.5z"/>
			<path class="st0" d="M586.4,611.4c-1.6,0.7-3.3,1.1-5.1,1.1c-2,0-3.7-0.5-5-1.6c-1.3-1.1-1.9-2.6-1.9-4.4c0-1.9,0.7-3.4,2.1-4.4
				c1.4-1,3.4-1.5,6-1.5c0.7,0,2,0.1,3.9,0.3v-0.6c0-0.8-0.4-1.5-1.2-2c-0.8-0.5-1.9-0.7-3.3-0.7c-1.6,0-3.6,0.4-6,1.1v-3.2
				c2-0.6,4.1-0.9,6.1-0.9c1.4,0,2.7,0.2,3.9,0.5c1.2,0.3,2,0.9,2.7,1.5c0.9,0.9,1.4,2.2,1.4,3.9v11.8h-3.3L586.4,611.4z
				 M586.4,604.2c-1.7-0.3-3.1-0.4-4.1-0.4c-2.9,0-4.3,0.9-4.3,2.7c0,0.9,0.4,1.6,1.1,2c0.7,0.5,1.6,0.7,2.8,0.7
				c1.6,0,3.1-0.4,4.6-1.3V604.2z"/>
			<path class="st0" d="M592.6,596.8c0-0.3,0.1-0.6,0.4-0.9c0.3-0.3,0.7-0.6,1.4-0.9l1.7-0.8l0.1,1.7c1.3-0.6,2.6-0.9,4.1-0.9
				c2.1,0,3.9,0.6,5.4,1.8c1.5,1.2,2.2,2.8,2.2,4.8l0.1,10.8h-3.7v-10.8c0-1-0.4-1.8-1.1-2.3c-0.8-0.5-1.7-0.8-2.8-0.8
				s-2.1,0.3-2.9,0.8c-0.8,0.6-1.2,1.3-1.2,2.2v10.8h-3.6L592.6,596.8z"/>
			<path class="st0" d="M633.3,587.8h3.5V604c0,2.7-0.8,4.8-2.3,6.3c-1.5,1.5-3.7,2.2-6.4,2.2c-2.8,0-4.9-0.7-6.5-2.2
				c-1.5-1.5-2.3-3.6-2.3-6.3v-16.2h3.8V604c0,1.7,0.4,3,1.3,3.9c0.9,0.9,2.1,1.3,3.8,1.3c1.7,0,2.9-0.4,3.8-1.3
				c0.9-0.9,1.3-2.2,1.3-3.9V587.8z"/>
			<path class="st0" d="M661.1,592.7v-3.3c0-0.1,0.1-0.2,0.3-0.2h3.2c0.1,0,0.2,0.1,0.2,0.2v3.3c0,0.1-0.1,0.2-0.2,0.2h-3.2
				C661.2,592.9,661.1,592.8,661.1,592.7z M661.1,596.6c0-0.3,0.1-0.6,0.3-0.9c0.2-0.3,0.4-0.4,0.7-0.5l2.7-0.8v18.1h-3.7V596.6z"/>
			<path class="st0" d="M684.4,594.8l-6.9,17.7h-2.8l-7.2-17.7h4.1l4.6,12.3l4.4-12.3H684.4z"/>
			<path class="st0" d="M701.9,610.8c-0.8,0.5-1.9,0.9-3.1,1.3c-1.2,0.3-2.5,0.5-3.8,0.5c-2.9,0-5.2-0.8-6.9-2.4
				c-1.7-1.6-2.5-3.8-2.5-6.7c0-2.8,0.8-5,2.3-6.6c1.5-1.6,3.6-2.4,6.3-2.4c2.8,0,4.9,0.8,6.3,2.4c1.4,1.6,2,3.9,1.8,6.8l-13.1,1.5
				c0.6,2.9,2.6,4.3,6,4.3c2.4,0,4.1-0.4,5.2-1.2L701.9,610.8z M690.7,598.9c-0.8,0.7-1.4,1.6-1.6,2.8l9.4-1
				c-0.3-1.9-1.8-2.8-4.5-2.8C692.6,597.8,691.5,598.2,690.7,598.9z"/>
			<path class="st0" d="M721.6,607.9c1.3,1,2.9,1.6,4.9,1.6c1,0,1.8-0.2,2.6-0.5c0.7-0.3,1.1-0.8,1.1-1.4c0-0.6-0.3-1.1-0.9-1.5
				c-0.6-0.3-1.5-0.7-2.9-1.1c-1.8-0.5-3.2-1.1-4.3-1.8c-1.1-0.8-1.6-1.9-1.6-3.5c0-1.6,0.7-2.8,2-3.7c1.3-0.9,2.9-1.4,4.9-1.4
				c2.3,0,4.4,0.6,6.2,1.9l-1.7,2.8c-1.2-0.9-2.6-1.4-4.4-1.4c-0.9,0-1.7,0.2-2.4,0.5c-0.7,0.3-1,0.8-1,1.4c0,0.5,0.2,0.9,0.7,1.2
				c0.5,0.3,1.4,0.6,2.9,1c1.9,0.5,3.4,1.2,4.5,1.9c1.1,0.7,1.7,1.9,1.7,3.6c0,1.6-0.7,2.9-2.1,3.9c-1.4,1-3.1,1.5-5.1,1.5
				c-2.5,0-4.7-0.6-6.6-1.9L721.6,607.9z"/>
			<path class="st0" d="M736.8,592.7v-3.3c0-0.1,0.1-0.2,0.3-0.2h3.2c0.1,0,0.2,0.1,0.2,0.2v3.3c0,0.1-0.1,0.2-0.2,0.2h-3.2
				C736.9,592.9,736.8,592.8,736.8,592.7z M736.8,596.6c0-0.3,0.1-0.6,0.3-0.9c0.2-0.3,0.4-0.4,0.7-0.5l2.7-0.8v18.1h-3.7V596.6z"/>
			<path class="st0" d="M748.4,599.8v7.7c0,0.6,0.2,1,0.7,1.4c0.4,0.3,1,0.5,1.7,0.5h0.6l0.5,3c-0.5,0.1-1,0.2-1.5,0.2
				c-1.7,0-3-0.5-4-1.4c-1-0.9-1.5-2.2-1.5-3.8V592c0-0.4,0.2-0.8,0.5-1.2l3.1-1.4v7.4h4.2v3H748.4z"/>
			<path class="st0" d="M771.8,594.8l-10.1,24.4h-3.5l3.2-7.6l-6.8-16h3.7l5,11.9l5-12.7H771.8z"/>
			<path class="st0" d="M288.4,595.9c2,0,3.5,0.3,4.4,0.9l-2.2,2.8c-0.7-0.2-1.8-0.3-3.3-0.3c-1,0-1.8,0.1-2.4,0.3v12.9h-3.7v-15.7
				c0-0.6,0.3-1.1,0.9-1.3l2.8-1v1.9C286.1,596,287.3,595.9,288.4,595.9z"/>
			<path class="st0" d="M712.9,595.8c2,0,3.5,0.3,4.4,0.9l-2.2,2.8c-0.7-0.2-1.8-0.3-3.3-0.3c-1,0-1.8,0.1-2.4,0.3v12.9h-3.7v-15.7
				c0-0.6,0.3-1.1,0.9-1.3l2.8-1v1.9C710.6,596,711.8,595.8,712.9,595.8z"/>
			<path class="st0" d="M366.8,596.8c0-0.3,0.1-0.6,0.4-0.9c0.3-0.3,0.7-0.6,1.4-0.9l1.7-0.8l0.1,2.2c1.2-1,2.6-1.4,4.1-1.4
				c2.1,0,3.9,0.6,5.4,1.8c1.5,1.2,2.2,2.8,2.2,4.8l0.1,10.8h-3.7v-10.8c0-1-0.4-1.8-1.1-2.3c-0.8-0.5-1.7-0.8-2.8-0.8
				s-2.1,0.3-2.9,0.8c-0.8,0.6-1.2,1.3-1.2,2.2v10.8h-3.6L366.8,596.8z"/>
			<path class="st0" d="M641.1,596.8c0-0.3,0.1-0.6,0.4-0.9c0.3-0.3,0.7-0.6,1.4-0.9l1.7-0.8l0.1,2.2c1.2-1,2.6-1.4,4.1-1.4
				c2.1,0,3.9,0.6,5.4,1.8c1.5,1.2,2.2,2.8,2.2,4.8l0.1,10.8h-3.7v-10.8c0-1-0.4-1.8-1.1-2.3c-0.8-0.5-1.7-0.8-2.8-0.8
				s-2.1,0.3-2.9,0.8c-0.8,0.6-1.2,1.3-1.2,2.2v10.8h-3.6L641.1,596.8z"/>
		</g>
	</g>
	<g>
		<path class="st1" d="M422.6,202.9c-79.1,0-143.2,64.1-143.2,143.2s64.1,143.2,143.2,143.2s143.2-64.1,143.2-143.2
			S501.7,202.9,422.6,202.9z M504.5,247.3c-4.9,2.9-12.8,7.9-21.9,14.8c-1.1,0.9-2.3,1.8-3.4,2.7c-7.4-9.1-15.6-17.5-24.5-25.2
			c-5.2-4.5-10.6-8.6-16.3-12.5c-2.8-1.9-5.7-3.8-8.7-5.6c-1.7-1-5.4-3.2-6.4-3.8C454.2,217.9,482.5,229,504.5,247.3z M422.9,225.3
			c11.9,6.9,22.9,15.1,33,24.5c6.5,6,12.6,12.5,18.2,19.3c-11.6,10-24.9,23.6-34.8,40.3c-0.9,0-1.8-0.1-2.7-0.1h-29
			c-0.1,0-0.2,0-0.4,0c-10-16.8-23.5-30.6-35.2-40.5c12.5-15.3,27.4-28.6,44.1-39.3C416.8,229,422.3,224.9,422.9,225.3z
			 M350.2,401.6H328c0.2-13.9,0.5-27.7,0.9-31.1c0.8-6.6,1.9-13.2,3.3-19.7c1.4-6.5,3.2-12.9,5.2-19.1c2.1-6.3,4.4-12.4,7.1-18.4
			c2.7-6,5.6-11.9,8.9-17.6c3.3-5.7,6.8-11.3,10.6-16.6c1.2-1.6,2.3-3.2,3.5-4.8c11,9.4,22.7,21.4,31.8,35.7
			c-14,2.2-26.3,9.1-35.2,19c-9,10-14.4,23.1-14.4,37.3L350.2,401.6z M422.5,217.7c-1,0.6-4.8,2.7-6.5,3.8
			c-5.8,3.5-11.3,7.3-16.7,11.4c-5.4,4.1-10.6,8.5-15.5,13.2c-5,4.7-9.7,9.6-14.1,14.8c-1,1.2-2,2.4-3,3.6c-1-0.8-2-1.6-3-2.4
			c-9.5-7.3-17.7-12.4-22.5-15.2C363.3,228.7,391.6,217.8,422.5,217.7z M322.5,367.1c-0.9,6.7-1.4,13.5-1.7,20.3
			c0,1.1-0.1,2.1-0.1,3.2c-0.1,2.8,0.1,30,0,30.5v3.1c-16.6-21.6-26.5-48.7-26.5-78.1c0-37.3,15.9-70.9,41.3-94.3
			c4.4,2.5,14.9,8.7,26.8,18.2c-1.8,2.4-3.6,4.9-5.4,7.4c-3.6,5.2-7,10.6-10.1,16.1c-3.1,5.6-6,11.3-8.6,17.1c-2.6,5.9-5,11.9-7,18
			c-2.1,6.2-3.9,12.5-5.3,18.9C324.5,353.9,323.4,360.5,322.5,367.1z M396.8,455.1c-0.3,0.7-0.7,1.2-1.3,1.7c-0.5,0.4-1.1,0.7-1.8,1
			c-0.7,0.2-1.4,0.3-2.1,0.3c-0.9,0-1.7-0.1-2.5-0.3c-0.8-0.2-1.6-0.5-2.4-0.8c-0.9,0.4-1.9,0.6-3,0.8c-1.1,0.2-2.1,0.3-3,0.3h-2.5
			l-0.5-0.3v-3l0.5-0.3h3.8c0.4,0,0.8,0,1.2-0.1c-0.3-0.5-0.6-0.9-0.7-1.4c-0.1-0.5-0.2-1.1-0.2-1.8c0-0.7,0.1-1.4,0.3-2
			c0.2-0.6,0.5-1.2,1-1.7c0.4-0.5,0.9-0.9,1.5-1.2c0.6-0.3,1.2-0.4,1.9-0.4c0.7,0,1.3,0.1,1.8,0.4c0.6,0.3,1.1,0.7,1.5,1.2
			c0.4,0.5,0.7,1,1,1.7c0.2,0.6,0.3,1.3,0.3,2c0,0.7-0.1,1.3-0.2,1.8c-0.2,0.5-0.4,1-0.8,1.5c0.2,0,0.3,0,0.5,0h0.5
			c0.7,0,1.2,0,1.6-0.1c0.4-0.1,0.7-0.2,1-0.4c0.2-0.1,0.4-0.3,0.5-0.4c0.1-0.2,0.1-0.3,0.1-0.4c0-0.6-0.1-1.3-0.4-2.1
			c-0.3-0.8-0.7-1.6-1.3-2.4c-0.6-0.8-1.4-1.6-2.3-2.4c-1-0.7-2.2-1.4-3.6-1.9l1.4-3c1.5,0.6,2.8,1.3,3.9,2.1
			c1.1,0.9,2.1,1.8,2.8,2.8c0.7,1,1.3,2.1,1.7,3.2s0.6,2.2,0.6,3.3C397.3,453.6,397.2,454.4,396.8,455.1z M409.3,458h-2.8
			c0-1.5-0.1-3-0.3-4.5c-0.1-1.6-0.3-3.1-0.6-4.6c-0.2-1.5-0.5-3-0.9-4.5c-0.4-1.5-0.7-2.9-1.1-4.2l3.5-1.1c0.4,1,0.7,2.2,1,3.4
			c0.3,1.3,0.5,2.6,0.7,3.9c0.2,1.3,0.4,2.7,0.5,4.1c0.1,1.4,0.2,2.7,0.2,3.9C409.5,455.8,409.5,457,409.3,458z M410.2,400.1
			c-3.4,3.8-10.6,10.9-12.8,13.4c-2.2,2.5-11,2.3-11,2.3s7.2-6,11.2-8.9c4-3,11.3-11.9,14.2-15c2.9-3.2,7.9-9.4,9.4-11.2
			c1.4-1.8,6-6.6,6-6.6s2.6,4.8-4,12.7C420.5,390.1,413.6,396.3,410.2,400.1z M403.8,387.1c1.2-0.9,1.1-2.5,1.1-4
			c0.1-2.7-1.5-5.1,1-7.2c1.6-1.4,5-2.7,7-1.5c4.8,3-2.3,10.1-4.4,12.6c-2.6,2.9-5.6,5.4-9,7.4c-2,1.2-7.3,5-9.6,3
			c-0.3-0.3-0.5-0.8-0.6-1.2c-1.8-7.3,1.3-13.4,5.5-19.1c2.5-3.4,5.3-6.5,8.4-9.4c0.5-0.4,2-2.1,2.6-2.1c0.1,0-0.1,0.2-0.2,0.4
			c-0.1,0.2-0.3,0.4-0.3,0.5c-1.3,2.2-10.4,18.1-10.5,21C394.7,390.5,401.9,388.5,403.8,387.1z M418.1,405c0.2-0.1,0.4-0.2,0.6-0.2
			l12.7-1.3c5.5-0.6,7.3-7.9,4.9-9.9c-2.4-2-4.6-2.6-5-6.7c-0.2-1.9,2.7-9.3,9.4-5.9c3.7,1.9,7.6,1.6,7.6,1.6l0-1.5l-0.6-6.4
			c-4.3,0.8-3.2-2.1-2.7-3.6c0.5-1.4,2.1-1,5.9-2.7c3.5-1.5,4.8-2.2,5.5-2.2c0-0.2,0.2,0,0,0l0.9,6.6c0,0.5-0.3,1.1-0.8,1.2
			c-0.6,0.1-1.3,0.2-1.9,0.4c-1,0.4-0.7,0.8-0.7,1.8c0.1,2.1-0.1,4.2-0.5,6.3c-0.2,1.1-0.5,2.2-1.2,3.1c-1.4,1.9-3.9,2.3-5.6,3.9
			c-1.7,1.6-3.3,3.4-4.8,5.3c-1,1.2-1.9,5-2.2,6.6c-1.1,5.5-14.3,10.2-20.7,10.2C409.5,411.5,416.6,406.1,418.1,405z M438.6,367.2
			c5.4-3.7,6.1-4.4,5.9-2l-0.1,1.2c-0.1,0.7-0.4,1.3-1,1.7c-0.9,0.6-2.2,1.9-3.1,4.1C438.8,375.9,433.2,370.9,438.6,367.2z
			 M429.4,457.9c-0.7,0.1-1.4,0.2-2.1,0.3c-0.7,0.1-1.4,0.1-2,0.1c-2.2,0-3.9-0.4-5.1-1.2c-1.1-0.8-1.7-2-1.7-3.5
			c0-0.9,0.2-1.8,0.8-2.7c0.5-0.9,1.2-1.5,2.1-2.1c-1-0.2-1.8-0.7-2.4-1.3c-0.6-0.6-0.9-1.3-0.9-2.2c0-0.8,0.2-1.5,0.7-2.2
			c0.5-0.7,1.2-1.4,2-2c0.9-0.6,1.9-1.1,3.1-1.5c1.2-0.4,2.4-0.7,3.8-0.8l-0.7,3.4c-0.8,0.1-1.6,0.3-2.3,0.5
			c-0.7,0.2-1.4,0.5-1.9,0.7c-0.5,0.3-1,0.6-1.3,0.9c-0.3,0.3-0.5,0.6-0.5,0.9c0,0.5,0.4,0.8,1.1,1.1c0.7,0.3,1.7,0.4,3,0.4
			c0.4,0,0.8,0,1.1,0c0.3,0,0.5,0,0.7-0.1l-0.3,3c-1.7,0.2-2.9,0.6-3.9,1.1c-0.9,0.5-1.4,1.2-1.4,2c0,0.6,0.4,1,1.1,1.3
			c0.7,0.3,1.8,0.5,3.2,0.5c0.7,0,1.4,0,2.2-0.1c0.8-0.1,1.5-0.2,2.1-0.3L429.4,457.9z M446.7,442.8c-0.7-0.1-1.3-0.1-2-0.2
			c-0.7-0.1-1.3-0.1-2-0.1c-1.3,0-2.5,0.1-3.6,0.2c0.2,0.9,0.4,1.9,0.6,2.9c0.2,1,0.3,2,0.5,3c0.1,1,0.2,2,0.3,3
			c0.1,1,0.1,1.9,0.1,2.8c0,1.3-0.1,2.4-0.2,3.5h-2.8c-0.1-3-0.3-6-0.8-9c-0.5-3-1.1-5.9-2-8.6l2.2-1.2c0.8-0.1,1.7-0.2,2.6-0.3
			c0.9-0.1,1.7-0.1,2.6-0.1c0.8,0,1.6,0,2.4,0.1c0.8,0,1.6,0.1,2.3,0.2L446.7,442.8z M463.8,443.3c-0.4,1.3-0.9,2.7-1.4,4.2
			c-0.5,1.6-1,3.2-1.5,5c-0.5,1.8-1.1,3.6-1.7,5.6h-2.9c-0.6-1.8-1.1-3.4-1.6-5c-0.5-1.6-1.1-3.1-1.6-4.5c-0.5-1.4-1.1-2.9-1.7-4.3
			c-0.6-1.4-1.2-2.8-1.8-4.2l3.5-1.1c0.4,0.8,0.7,1.8,1.2,2.9c0.4,1.1,0.8,2.3,1.3,3.6c0.4,1.2,0.9,2.5,1.3,3.8
			c0.4,1.3,0.8,2.5,1.1,3.6c0.5-2.4,1.1-4.8,1.8-7c0.6-2.3,1.3-4.5,1.9-6.8l3.3,1.1C464.6,440.9,464.3,442,463.8,443.3z
			 M517.5,430.9C517.5,430.9,517.5,430.9,517.5,430.9l0,1.6h0l0,0c-4.7,5.2-9.8,9.9-15.3,14.3v-18.8l-31,0v-53.6
			c0-21.1-17.1-38.1-38.1-38.1h-22.3c-21.1,0-38.1,17.1-38.1,38.1v53.6l-30.7,0V446c-5.2-4.2-10-8.8-14.5-13.7
			c0.1-3.1,0.2-12.1,0.3-22.3h30.7l-0.1-8.4l-0.3-35.3c0-26.8,22.7-48.7,50.7-48.7H436c27.9,0,50.7,21.9,50.7,48.8v43.6h31
			C517.6,419.4,517.6,428.7,517.5,430.9z M517.7,401.6H495v-35.3c0-24.5-15.9-45.3-38.3-53.4c0,0,0,0-0.1,0
			c-0.3-0.1-0.5-0.2-0.8-0.3c-0.3-0.1-0.5-0.2-0.8-0.3c-2.7-0.9-5.4-1.6-8.2-2.1c9-14.2,20.6-26.2,31.6-35.6
			c1.7,2.2,3.3,4.4,4.8,6.7c5.6,8.2,10.6,16.8,14.9,25.7c4,8.3,7.4,16.9,10.3,25.8c2.8,8.9,5,18,6.6,27.1c1.6,9.3,2.5,18.7,2.7,28.2
			C517.7,389.3,517.7,394.8,517.7,401.6z M523.1,369.4c-1.1-9.2-2.8-18.3-5.1-27.2c-2.2-8.8-5.1-17.4-8.5-25.8
			c-3.3-8.3-7.2-16.3-11.6-24.1c-2.2-3.8-4.5-7.6-6.9-11.3c-2.3-3.5-4.8-7.1-7.4-10.5c0,0,0-0.1-0.1-0.1
			c11.5-9.2,21.6-15.5,26.5-18.2c25.2,23.4,40.9,56.8,40.9,93.9c0,29.4-9.9,56.5-26.5,78.2c0-10.8,0.1-25.7,0.1-26.5
			C524.7,388.3,524.2,378.8,523.1,369.4z"/>
		<ellipse class="st1" cx="386.8" cy="451" rx="1.7" ry="2.1"/>
	</g>
</g>
</svg>
